<?xml version="1.0" encoding="utf-8" standalone="no"?>
<!DOCTYPE svg PUBLIC "-//W3C//DTD SVG 1.1//EN"
  "http://www.w3.org/Graphics/SVG/1.1/DTD/svg11.dtd">
<svg xmlns:xlink="http://www.w3.org/1999/xlink" width="856.491562pt" height="567.897344pt" viewBox="0 0 856.491562 567.897344" xmlns="http://www.w3.org/2000/svg" version="1.1">
 <metadata>
  <rdf:RDF xmlns:dc="http://purl.org/dc/elements/1.1/" xmlns:cc="http://creativecommons.org/ns#" xmlns:rdf="http://www.w3.org/1999/02/22-rdf-syntax-ns#">
   <cc:Work>
    <dc:type rdf:resource="http://purl.org/dc/dcmitype/StillImage"/>
    <dc:date>2025-11-18T12:26:03.581128</dc:date>
    <dc:format>image/svg+xml</dc:format>
    <dc:creator>
     <cc:Agent>
      <dc:title>Matplotlib v3.10.7, https://matplotlib.org/</dc:title>
     </cc:Agent>
    </dc:creator>
   </cc:Work>
  </rdf:RDF>
 </metadata>
 <defs>
  <style type="text/css">*{stroke-linejoin: round; stroke-linecap: butt}</style>
 </defs>
 <g id="figure_1">
  <g id="patch_1">
   <path d="M 0 567.897344 
L 856.491562 567.897344 
L 856.491562 0 
L 0 0 
z
" style="fill: #ffffff"/>
  </g>
  <g id="axes_1">
   <g id="patch_2">
    <path d="M 56.231563 527.437656 
L 849.291563 527.437656 
L 849.291563 24.597656 
L 56.231563 24.597656 
z
" style="fill: #ffffff"/>
   </g>
   <g id="FillBetweenPolyCollection_1">
    <defs>
     <path id="m0a74ea3799" d="M 92.279744 -514.309784 
L 92.279744 -470.821903 
L 98.89409 -469.942601 
L 105.508435 -468.972173 
L 112.12278 -467.9064 
L 118.737125 -466.742163 
L 125.351471 -465.477643 
L 131.965816 -464.112456 
L 138.580161 -462.647672 
L 145.194507 -461.085744 
L 151.808852 -458.505937 
L 158.423197 -454.982232 
L 165.037542 -451.10356 
L 171.651888 -446.721902 
L 178.266233 -444.545171 
L 184.880578 -442.744646 
L 191.494924 -440.96796 
L 198.109269 -438.2889 
L 204.723614 -433.272151 
L 211.337959 -423.820245 
L 217.952305 -418.372281 
L 224.56665 -397.377967 
L 231.180995 -384.791036 
L 237.795341 -357.505486 
L 244.409686 -347.16939 
L 251.024031 -336.247804 
L 257.638377 -321.576634 
L 264.252722 -310.118847 
L 270.867067 -304.059007 
L 277.481412 -301.900566 
L 284.095758 -297.370683 
L 290.710103 -292.406976 
L 297.324448 -288.175974 
L 303.938794 -283.99369 
L 310.553139 -280.767727 
L 317.167484 -277.341999 
L 323.781829 -274.646904 
L 330.396175 -268.789457 
L 337.01052 -262.387667 
L 343.624865 -255.769266 
L 350.239211 -254.202074 
L 356.853556 -249.972872 
L 363.467901 -245.004339 
L 370.082246 -237.571438 
L 376.696592 -233.565834 
L 383.310937 -229.305513 
L 389.925282 -224.158815 
L 396.539628 -220.414994 
L 403.153973 -215.281143 
L 409.768318 -214.301731 
L 416.382663 -212.482482 
L 422.997009 -210.493258 
L 429.611354 -202.319959 
L 436.225699 -198.152253 
L 442.840045 -195.430721 
L 449.45439 -194.413462 
L 456.068735 -192.993597 
L 462.68308 -190.650219 
L 469.297426 -187.816161 
L 475.911771 -187.479044 
L 482.526116 -187.479044 
L 482.526116 -334.239321 
L 482.526116 -334.239321 
L 475.911771 -334.239321 
L 469.297426 -334.285363 
L 462.68308 -335.043468 
L 456.068735 -336.10175 
L 449.45439 -336.96067 
L 442.840045 -338.026355 
L 436.225699 -338.70708 
L 429.611354 -338.391601 
L 422.997009 -339.51543 
L 416.382663 -341.158393 
L 409.768318 -342.99278 
L 403.153973 -344.576008 
L 396.539628 -346.017633 
L 389.925282 -348.633115 
L 383.310937 -355.947947 
L 376.696592 -359.970023 
L 370.082246 -366.627156 
L 363.467901 -369.090389 
L 356.853556 -370.217238 
L 350.239211 -371.617001 
L 343.624865 -373.407538 
L 337.01052 -382.223644 
L 330.396175 -396.299958 
L 323.781829 -404.137605 
L 317.167484 -405.855907 
L 310.553139 -407.646484 
L 303.938794 -409.549162 
L 297.324448 -415.497062 
L 290.710103 -421.323353 
L 284.095758 -427.760637 
L 277.481412 -436.130312 
L 270.867067 -444.344858 
L 264.252722 -451.389001 
L 257.638377 -457.014156 
L 251.024031 -468.049835 
L 244.409686 -470.370464 
L 237.795341 -473.545463 
L 231.180995 -476.689256 
L 224.56665 -478.67675 
L 217.952305 -477.97761 
L 211.337959 -481.888033 
L 204.723614 -489.754986 
L 198.109269 -492.886244 
L 191.494924 -494.170964 
L 184.880578 -495.729933 
L 178.266233 -497.50576 
L 171.651888 -499.387542 
L 165.037542 -500.684474 
L 158.423197 -501.451507 
L 151.808852 -502.319559 
L 145.194507 -503.388065 
L 138.580161 -504.408372 
L 131.965816 -505.525822 
L 125.351471 -506.742869 
L 118.737125 -508.060585 
L 112.12278 -509.478582 
L 105.508435 -510.995044 
L 98.89409 -512.60685 
L 92.279744 -514.309784 
z
" style="stroke: #1f77b4; stroke-opacity: 0.2"/>
    </defs>
    <g clip-path="url(#p0ce34fb479)">
     <use xlink:href="#m0a74ea3799" x="0" y="567.897344" style="fill: #1f77b4; fill-opacity: 0.2; stroke: #1f77b4; stroke-opacity: 0.2"/>
    </g>
   </g>
   <g id="FillBetweenPolyCollection_2">
    <defs>
     <path id="mf6d341b110" d="M 92.279744 -514.309784 
L 92.279744 -470.821903 
L 98.89409 -469.807188 
L 105.508435 -468.627323 
L 112.12278 -467.275859 
L 118.737125 -465.750327 
L 125.351471 -464.052527 
L 131.965816 -462.188317 
L 138.580161 -460.166945 
L 145.194507 -458.000101 
L 151.808852 -455.700888 
L 158.423197 -453.282887 
L 165.037542 -450.759416 
L 171.651888 -448.143029 
L 178.266233 -445.445213 
L 184.880578 -442.676261 
L 191.494924 -439.845255 
L 198.109269 -436.960122 
L 204.723614 -434.027736 
L 211.337959 -431.054029 
L 217.952305 -427.881129 
L 224.56665 -424.44882 
L 231.180995 -420.840172 
L 237.795341 -416.763592 
L 244.409686 -411.979803 
L 251.024031 -406.612805 
L 257.638377 -400.721156 
L 264.252722 -394.372467 
L 270.867067 -387.348859 
L 277.481412 -380.09121 
L 284.095758 -375.520195 
L 290.710103 -370.556281 
L 297.324448 -365.202153 
L 303.938794 -361.205033 
L 310.553139 -357.31891 
L 317.167484 -352.377277 
L 323.781829 -346.071185 
L 330.396175 -339.194202 
L 337.01052 -333.571074 
L 343.624865 -327.72571 
L 350.239211 -321.690054 
L 356.853556 -315.679328 
L 363.467901 -282.196652 
L 370.082246 -248.870991 
L 376.696592 -245.489217 
L 383.310937 -241.87882 
L 389.925282 -240.414482 
L 396.539628 -240.23119 
L 403.153973 -239.917208 
L 409.768318 -235.325563 
L 416.382663 -220.681894 
L 422.997009 -200.446052 
L 429.611354 -186.272674 
L 436.225699 -183.194509 
L 442.840045 -180.874905 
L 449.45439 -176.622062 
L 456.068735 -171.0939 
L 462.68308 -163.429046 
L 469.297426 -160.647685 
L 475.911771 -156.34656 
L 482.526116 -149.304612 
L 489.140462 -141.674387 
L 495.754807 -137.001993 
L 502.369152 -134.716225 
L 508.983497 -133.977256 
L 515.597843 -133.443426 
L 522.212188 -132.662378 
L 528.826533 -130.407319 
L 535.440879 -126.333237 
L 542.055224 -122.636815 
L 548.669569 -121.174498 
L 555.283914 -122.322306 
L 561.89826 -122.172012 
L 568.512605 -116.531811 
L 575.12695 -114.3782 
L 581.741296 -113.429188 
L 588.355641 -112.84152 
L 594.969986 -109.7325 
L 601.584331 -102.542817 
L 608.198677 -95.872042 
L 614.813022 -92.844794 
L 621.427367 -86.604314 
L 628.041713 -83.517374 
L 634.656058 -81.105479 
L 641.270403 -76.873338 
L 647.884748 -73.646714 
L 654.499094 -69.404786 
L 661.113439 -68.976265 
L 667.727784 -66.970492 
L 674.34213 -66.443368 
L 680.956475 -63.316051 
L 687.57082 -63.316051 
L 694.185166 -63.316051 
L 694.185166 -220.788202 
L 694.185166 -220.788202 
L 687.57082 -220.788202 
L 680.956475 -220.788202 
L 674.34213 -221.917048 
L 667.727784 -222.194659 
L 661.113439 -222.474253 
L 654.499094 -222.559194 
L 647.884748 -224.045669 
L 641.270403 -225.985742 
L 634.656058 -231.596629 
L 628.041713 -235.774643 
L 621.427367 -237.014197 
L 614.813022 -241.617219 
L 608.198677 -244.473489 
L 601.584331 -247.305944 
L 594.969986 -253.150366 
L 588.355641 -257.987576 
L 581.741296 -258.517108 
L 575.12695 -259.176401 
L 568.512605 -260.688082 
L 561.89826 -276.852819 
L 555.283914 -303.878015 
L 548.669569 -322.735726 
L 542.055224 -327.539045 
L 535.440879 -328.330848 
L 528.826533 -331.827938 
L 522.212188 -338.048718 
L 515.597843 -348.643602 
L 508.983497 -359.242016 
L 502.369152 -373.188268 
L 495.754807 -380.977807 
L 489.140462 -389.805655 
L 482.526116 -397.199145 
L 475.911771 -403.529538 
L 469.297426 -407.768744 
L 462.68308 -411.570772 
L 456.068735 -417.144218 
L 449.45439 -423.694041 
L 442.840045 -431.038914 
L 436.225699 -436.639687 
L 429.611354 -440.098138 
L 422.997009 -443.122999 
L 416.382663 -447.303819 
L 409.768318 -451.71756 
L 403.153973 -453.711107 
L 396.539628 -456.486369 
L 389.925282 -458.88465 
L 383.310937 -460.52366 
L 376.696592 -462.133851 
L 370.082246 -463.972666 
L 363.467901 -460.566343 
L 356.853556 -461.019908 
L 350.239211 -462.694054 
L 343.624865 -464.660812 
L 337.01052 -465.488457 
L 330.396175 -466.277062 
L 323.781829 -467.552538 
L 317.167484 -469.056395 
L 310.553139 -470.542417 
L 303.938794 -472.16349 
L 297.324448 -474.172805 
L 290.710103 -476.722442 
L 284.095758 -479.662295 
L 277.481412 -483.01467 
L 270.867067 -486.533811 
L 264.252722 -487.536988 
L 257.638377 -488.966786 
L 251.024031 -490.853624 
L 244.409686 -493.265112 
L 237.795341 -496.25981 
L 231.180995 -498.833143 
L 224.56665 -499.829562 
L 217.952305 -501.002321 
L 211.337959 -501.796959 
L 204.723614 -501.727735 
L 198.109269 -501.699833 
L 191.494924 -501.719183 
L 184.880578 -501.79266 
L 178.266233 -501.928191 
L 171.651888 -502.134859 
L 165.037542 -502.422955 
L 158.423197 -502.803967 
L 151.808852 -503.290449 
L 145.194507 -503.89572 
L 138.580161 -504.633359 
L 131.965816 -505.51647 
L 125.351471 -506.556743 
L 118.737125 -507.763427 
L 112.12278 -509.142378 
L 105.508435 -510.695397 
L 98.89409 -512.420015 
L 92.279744 -514.309784 
z
" style="stroke: #ff7f0e; stroke-opacity: 0.2"/>
    </defs>
    <g clip-path="url(#p0ce34fb479)">
     <use xlink:href="#mf6d341b110" x="0" y="567.897344" style="fill: #ff7f0e; fill-opacity: 0.2; stroke: #ff7f0e; stroke-opacity: 0.2"/>
    </g>
   </g>
   <g id="FillBetweenPolyCollection_3">
    <defs>
     <path id="mcf82c45571" d="M 92.279959 -514.309784 
L 92.279959 -470.821903 
L 98.894305 -187.697757 
L 105.50865 -187.697757 
L 112.122995 -177.941036 
L 118.737341 -177.941036 
L 125.351686 -165.795677 
L 131.966031 -138.548619 
L 138.580376 -137.344122 
L 145.194722 -120.187574 
L 151.809067 -120.131277 
L 158.423412 -120.131277 
L 165.037758 -120.131277 
L 171.652103 -113.114436 
L 178.266448 -121.167608 
L 184.880793 -121.167608 
L 191.495139 -110.508577 
L 198.109484 -110.508577 
L 204.723829 -110.508577 
L 211.338175 -110.508577 
L 217.95252 -110.302624 
L 224.566865 -109.219559 
L 231.18121 -109.219559 
L 237.795556 -109.219559 
L 244.409901 -109.219559 
L 251.024246 -109.219559 
L 257.638592 -109.219559 
L 264.252937 -109.219559 
L 270.867282 -109.219559 
L 277.481627 -109.219559 
L 284.095973 -109.219559 
L 290.710318 -109.219559 
L 297.324663 -109.219559 
L 303.939009 -109.219559 
L 310.553354 -109.219559 
L 317.167699 -109.219559 
L 323.782044 -109.219559 
L 330.39639 -109.219559 
L 337.010735 -109.219559 
L 343.62508 -119.747052 
L 350.239426 -119.747052 
L 356.853771 -119.747052 
L 363.468116 -119.747052 
L 370.082461 -119.747052 
L 376.696807 -119.747052 
L 383.311152 -119.747052 
L 389.925497 -119.747052 
L 396.539843 -112.401166 
L 403.154188 -112.160537 
L 409.768533 -112.160537 
L 416.382878 -112.160537 
L 422.997224 -112.160537 
L 429.611569 -112.160537 
L 436.225914 -112.160537 
L 442.84026 -112.160537 
L 449.454605 -112.160537 
L 456.06895 -112.160537 
L 462.683295 -112.160537 
L 469.297641 -112.160537 
L 475.911986 -112.160537 
L 482.526331 -112.160537 
L 489.140677 -112.160537 
L 495.755022 -112.160537 
L 502.369367 -112.160537 
L 508.983712 -112.160537 
L 515.598058 -112.160537 
L 522.212403 -112.160537 
L 528.826748 -112.160537 
L 528.826748 -200.064325 
L 528.826748 -200.064325 
L 522.212403 -200.064325 
L 515.598058 -200.064325 
L 508.983712 -200.064325 
L 502.369367 -200.064325 
L 495.755022 -200.064325 
L 489.140677 -200.064325 
L 482.526331 -200.064325 
L 475.911986 -200.064325 
L 469.297641 -200.064325 
L 462.683295 -200.064325 
L 456.06895 -200.064325 
L 449.454605 -200.064325 
L 442.84026 -200.064325 
L 436.225914 -200.064325 
L 429.611569 -200.064325 
L 422.997224 -200.064325 
L 416.382878 -200.064325 
L 409.768533 -200.064325 
L 403.154188 -200.064325 
L 396.539843 -204.218476 
L 389.925497 -208.111731 
L 383.311152 -208.111731 
L 376.696807 -208.111731 
L 370.082461 -208.111731 
L 363.468116 -208.111731 
L 356.853771 -208.111731 
L 350.239426 -208.111731 
L 343.62508 -208.111731 
L 337.010735 -242.475911 
L 330.39639 -242.475911 
L 323.782044 -242.475911 
L 317.167699 -242.475911 
L 310.553354 -242.475911 
L 303.939009 -242.475911 
L 297.324663 -242.475911 
L 290.710318 -242.475911 
L 284.095973 -242.475911 
L 277.481627 -242.475911 
L 270.867282 -242.475911 
L 264.252937 -242.475911 
L 257.638592 -242.475911 
L 251.024246 -242.475911 
L 244.409901 -242.475911 
L 237.795556 -242.475911 
L 231.18121 -242.475911 
L 224.566865 -242.475911 
L 217.95252 -243.682348 
L 211.338175 -243.965583 
L 204.723829 -243.965583 
L 198.109484 -243.965583 
L 191.495139 -243.965583 
L 184.880793 -246.379651 
L 178.266448 -246.379651 
L 171.652103 -353.404617 
L 165.037758 -386.182189 
L 158.423412 -386.182189 
L 151.809067 -386.182189 
L 145.194722 -386.194296 
L 138.580376 -424.30696 
L 131.966031 -424.451299 
L 125.351686 -466.125613 
L 118.737341 -498.000874 
L 112.122995 -498.000874 
L 105.50865 -520.443324 
L 98.894305 -520.443324 
L 92.279959 -514.309784 
z
" style="stroke: #2ca02c; stroke-opacity: 0.2"/>
    </defs>
    <g clip-path="url(#p0ce34fb479)">
     <use xlink:href="#mcf82c45571" x="0" y="567.897344" style="fill: #2ca02c; fill-opacity: 0.2; stroke: #2ca02c; stroke-opacity: 0.2"/>
    </g>
   </g>
   <g id="FillBetweenPolyCollection_4">
    <defs>
     <path id="mc1e9225b0e" d="M 92.279744 -514.309784 
L 92.279744 -470.821903 
L 98.89409 -459.795443 
L 105.508435 -447.914526 
L 112.12278 -435.166934 
L 118.737125 -421.638948 
L 125.351471 -407.47382 
L 131.965816 -392.820928 
L 138.580161 -377.806535 
L 145.194507 -362.526703 
L 151.808852 -347.051064 
L 158.423197 -331.429256 
L 165.037542 -315.69668 
L 171.651888 -299.878815 
L 178.266233 -283.994243 
L 184.880578 -268.056721 
L 191.494924 -252.076591 
L 198.109269 -236.061739 
L 204.723614 -220.018266 
L 211.337959 -210.573877 
L 217.952305 -201.855674 
L 224.56665 -193.108939 
L 231.180995 -184.136307 
L 237.795341 -175.12308 
L 244.409686 -166.92611 
L 251.024031 -158.536141 
L 257.638377 -149.919794 
L 264.252722 -134.41412 
L 270.867067 -119.112855 
L 277.481412 -107.813461 
L 284.095758 -102.659721 
L 290.710103 -99.292954 
L 297.324448 -96.439617 
L 303.938794 -94.321413 
L 310.553139 -91.24086 
L 317.167484 -90.536722 
L 323.781829 -88.674348 
L 330.396175 -88.641729 
L 337.01052 -88.620263 
L 343.624865 -91.383405 
L 350.239211 -94.054448 
L 356.853556 -94.892362 
L 363.467901 -94.246284 
L 370.082246 -93.63799 
L 376.696592 -92.501191 
L 383.310937 -91.33186 
L 389.925282 -91.307581 
L 396.539628 -91.284653 
L 403.153973 -91.261678 
L 409.768318 -91.236486 
L 416.382663 -91.209045 
L 422.997009 -91.190746 
L 429.611354 -91.193192 
L 436.225699 -91.194942 
L 442.840045 -91.196153 
L 449.45439 -91.196821 
L 456.068735 -91.19691 
L 462.68308 -91.19691 
L 469.297426 -91.19691 
L 475.911771 -91.19691 
L 482.526116 -91.19691 
L 489.140462 -91.19691 
L 495.754807 -91.19691 
L 502.369152 -91.19691 
L 508.983497 -91.19691 
L 515.597843 -91.19691 
L 522.212188 -91.19691 
L 528.826533 -91.091079 
L 535.440879 -90.840685 
L 542.055224 -90.611298 
L 548.669569 -90.611298 
L 555.283914 -90.611298 
L 561.89826 -90.611298 
L 568.512605 -90.611298 
L 575.12695 -90.611298 
L 581.741296 -90.611298 
L 588.355641 -90.611298 
L 594.969986 -90.611298 
L 601.584331 -90.611298 
L 608.198677 -90.611298 
L 614.813022 -90.611298 
L 621.427367 -90.611298 
L 628.041713 -90.611298 
L 634.656058 -90.611298 
L 641.270403 -90.611298 
L 647.884748 -90.611298 
L 654.499094 -90.611298 
L 661.113439 -90.611298 
L 667.727784 -90.611298 
L 674.34213 -90.611298 
L 680.956475 -90.611298 
L 687.57082 -90.611298 
L 694.185166 -90.611298 
L 700.799511 -90.611298 
L 707.413856 -90.611298 
L 714.028201 -90.611298 
L 720.642547 -90.611298 
L 727.256892 -90.611298 
L 733.871237 -90.611298 
L 740.485583 -90.611298 
L 747.099928 -90.611298 
L 753.714273 -90.611298 
L 760.328618 -90.611298 
L 766.942964 -90.611298 
L 773.557309 -90.611298 
L 780.171654 -90.611298 
L 786.786 -90.611298 
L 793.400345 -90.611298 
L 800.01469 -90.611298 
L 806.629035 -90.611298 
L 813.243381 -90.611298 
L 813.243381 -111.864538 
L 813.243381 -111.864538 
L 806.629035 -111.864538 
L 800.01469 -111.864538 
L 793.400345 -111.864538 
L 786.786 -111.864538 
L 780.171654 -111.864538 
L 773.557309 -111.864538 
L 766.942964 -111.864538 
L 760.328618 -111.864538 
L 753.714273 -111.864538 
L 747.099928 -111.864538 
L 740.485583 -111.864538 
L 733.871237 -111.864538 
L 727.256892 -111.864538 
L 720.642547 -111.864538 
L 714.028201 -111.864538 
L 707.413856 -111.864538 
L 700.799511 -111.864538 
L 694.185166 -111.864538 
L 687.57082 -111.864538 
L 680.956475 -111.864538 
L 674.34213 -111.864538 
L 667.727784 -111.864538 
L 661.113439 -111.864538 
L 654.499094 -111.864538 
L 647.884748 -111.864538 
L 641.270403 -111.864538 
L 634.656058 -111.864538 
L 628.041713 -111.864538 
L 621.427367 -111.864538 
L 614.813022 -111.864538 
L 608.198677 -111.864538 
L 601.584331 -111.864538 
L 594.969986 -111.864538 
L 588.355641 -111.864538 
L 581.741296 -111.864538 
L 575.12695 -111.864538 
L 568.512605 -111.864538 
L 561.89826 -111.864538 
L 555.283914 -111.864538 
L 548.669569 -111.864538 
L 542.055224 -111.864538 
L 535.440879 -111.819811 
L 528.826533 -111.777174 
L 522.212188 -111.761318 
L 515.597843 -111.761318 
L 508.983497 -111.761318 
L 502.369152 -111.761318 
L 495.754807 -111.761318 
L 489.140462 -111.761318 
L 482.526116 -111.761318 
L 475.911771 -111.761318 
L 469.297426 -111.761318 
L 462.68308 -111.761318 
L 456.068735 -111.761318 
L 449.45439 -111.775473 
L 442.840045 -111.826241 
L 436.225699 -111.877552 
L 429.611354 -111.929402 
L 422.997009 -111.985106 
L 416.382663 -112.08439 
L 409.768318 -112.205213 
L 403.153973 -112.328285 
L 396.539628 -112.453574 
L 389.925282 -112.556161 
L 383.310937 -112.622117 
L 376.696592 -112.564032 
L 370.082246 -113.022065 
L 363.467901 -113.544182 
L 356.853556 -116.502439 
L 350.239211 -121.601174 
L 343.624865 -136.072203 
L 337.01052 -145.569225 
L 330.396175 -154.067836 
L 323.781829 -163.141163 
L 317.167484 -176.137974 
L 310.553139 -188.67756 
L 303.938794 -201.683254 
L 297.324448 -214.921282 
L 290.710103 -223.558874 
L 284.095758 -232.482141 
L 277.481412 -241.786988 
L 270.867067 -250.940494 
L 264.252722 -261.073509 
L 257.638377 -273.317123 
L 251.024031 -283.25067 
L 244.409686 -293.38182 
L 237.795341 -303.705971 
L 231.180995 -314.130582 
L 224.56665 -324.806579 
L 217.952305 -335.733625 
L 211.337959 -346.814611 
L 204.723614 -357.68787 
L 198.109269 -365.610606 
L 191.494924 -373.561963 
L 184.880578 -381.548042 
L 178.266233 -389.576729 
L 171.651888 -397.658366 
L 165.037542 -405.806709 
L 158.423197 -414.040342 
L 151.808852 -422.384743 
L 145.194507 -430.875312 
L 138.580161 -439.561689 
L 131.965816 -448.513505 
L 125.351471 -457.826822 
L 118.737125 -467.627903 
L 112.12278 -478.066126 
L 105.508435 -489.284743 
L 98.89409 -501.370034 
L 92.279744 -514.309784 
z
" style="stroke: #d62728; stroke-opacity: 0.2"/>
    </defs>
    <g clip-path="url(#p0ce34fb479)">
     <use xlink:href="#mc1e9225b0e" x="0" y="567.897344" style="fill: #d62728; fill-opacity: 0.2; stroke: #d62728; stroke-opacity: 0.2"/>
    </g>
   </g>
   <g id="matplotlib.axis_1">
    <g id="xtick_1">
     <g id="line2d_1">
      <path d="M 92.279744 527.437656 
L 92.279744 24.597656 
" clip-path="url(#p0ce34fb479)" style="fill: none; stroke-dasharray: 2.96,1.28; stroke-dashoffset: 0; stroke: #b0b0b0; stroke-opacity: 0.3; stroke-width: 0.8"/>
     </g>
     <g id="line2d_2">
      <defs>
       <path id="m6a6a6a0c88" d="M 0 0 
L 0 3.5 
" style="stroke: #000000; stroke-width: 0.8"/>
      </defs>
      <g>
       <use xlink:href="#m6a6a6a0c88" x="92.279744" y="527.437656" style="stroke: #000000; stroke-width: 0.8"/>
      </g>
     </g>
     <g id="text_1">
      <!-- 0 -->
      <g transform="translate(89.098494 542.036094) scale(0.1 -0.1)">
       <defs>
        <path id="DejaVuSans-30" d="M 2034 4250 
Q 1547 4250 1301 3770 
Q 1056 3291 1056 2328 
Q 1056 1369 1301 889 
Q 1547 409 2034 409 
Q 2525 409 2770 889 
Q 3016 1369 3016 2328 
Q 3016 3291 2770 3770 
Q 2525 4250 2034 4250 
z
M 2034 4750 
Q 2819 4750 3233 4129 
Q 3647 3509 3647 2328 
Q 3647 1150 3233 529 
Q 2819 -91 2034 -91 
Q 1250 -91 836 529 
Q 422 1150 422 2328 
Q 422 3509 836 4129 
Q 1250 4750 2034 4750 
z
" transform="scale(0.015625)"/>
       </defs>
       <use xlink:href="#DejaVuSans-30"/>
      </g>
     </g>
    </g>
    <g id="xtick_2">
     <g id="line2d_3">
      <path d="M 224.56665 527.437656 
L 224.56665 24.597656 
" clip-path="url(#p0ce34fb479)" style="fill: none; stroke-dasharray: 2.96,1.28; stroke-dashoffset: 0; stroke: #b0b0b0; stroke-opacity: 0.3; stroke-width: 0.8"/>
     </g>
     <g id="line2d_4">
      <g>
       <use xlink:href="#m6a6a6a0c88" x="224.56665" y="527.437656" style="stroke: #000000; stroke-width: 0.8"/>
      </g>
     </g>
     <g id="text_2">
      <!-- 200 -->
      <g transform="translate(215.0229 542.036094) scale(0.1 -0.1)">
       <defs>
        <path id="DejaVuSans-32" d="M 1228 531 
L 3431 531 
L 3431 0 
L 469 0 
L 469 531 
Q 828 903 1448 1529 
Q 2069 2156 2228 2338 
Q 2531 2678 2651 2914 
Q 2772 3150 2772 3378 
Q 2772 3750 2511 3984 
Q 2250 4219 1831 4219 
Q 1534 4219 1204 4116 
Q 875 4013 500 3803 
L 500 4441 
Q 881 4594 1212 4672 
Q 1544 4750 1819 4750 
Q 2544 4750 2975 4387 
Q 3406 4025 3406 3419 
Q 3406 3131 3298 2873 
Q 3191 2616 2906 2266 
Q 2828 2175 2409 1742 
Q 1991 1309 1228 531 
z
" transform="scale(0.015625)"/>
       </defs>
       <use xlink:href="#DejaVuSans-32"/>
       <use xlink:href="#DejaVuSans-30" transform="translate(63.623047 0)"/>
       <use xlink:href="#DejaVuSans-30" transform="translate(127.246094 0)"/>
      </g>
     </g>
    </g>
    <g id="xtick_3">
     <g id="line2d_5">
      <path d="M 356.853556 527.437656 
L 356.853556 24.597656 
" clip-path="url(#p0ce34fb479)" style="fill: none; stroke-dasharray: 2.96,1.28; stroke-dashoffset: 0; stroke: #b0b0b0; stroke-opacity: 0.3; stroke-width: 0.8"/>
     </g>
     <g id="line2d_6">
      <g>
       <use xlink:href="#m6a6a6a0c88" x="356.853556" y="527.437656" style="stroke: #000000; stroke-width: 0.8"/>
      </g>
     </g>
     <g id="text_3">
      <!-- 400 -->
      <g transform="translate(347.309806 542.036094) scale(0.1 -0.1)">
       <defs>
        <path id="DejaVuSans-34" d="M 2419 4116 
L 825 1625 
L 2419 1625 
L 2419 4116 
z
M 2253 4666 
L 3047 4666 
L 3047 1625 
L 3713 1625 
L 3713 1100 
L 3047 1100 
L 3047 0 
L 2419 0 
L 2419 1100 
L 313 1100 
L 313 1709 
L 2253 4666 
z
" transform="scale(0.015625)"/>
       </defs>
       <use xlink:href="#DejaVuSans-34"/>
       <use xlink:href="#DejaVuSans-30" transform="translate(63.623047 0)"/>
       <use xlink:href="#DejaVuSans-30" transform="translate(127.246094 0)"/>
      </g>
     </g>
    </g>
    <g id="xtick_4">
     <g id="line2d_7">
      <path d="M 489.140462 527.437656 
L 489.140462 24.597656 
" clip-path="url(#p0ce34fb479)" style="fill: none; stroke-dasharray: 2.96,1.28; stroke-dashoffset: 0; stroke: #b0b0b0; stroke-opacity: 0.3; stroke-width: 0.8"/>
     </g>
     <g id="line2d_8">
      <g>
       <use xlink:href="#m6a6a6a0c88" x="489.140462" y="527.437656" style="stroke: #000000; stroke-width: 0.8"/>
      </g>
     </g>
     <g id="text_4">
      <!-- 600 -->
      <g transform="translate(479.596712 542.036094) scale(0.1 -0.1)">
       <defs>
        <path id="DejaVuSans-36" d="M 2113 2584 
Q 1688 2584 1439 2293 
Q 1191 2003 1191 1497 
Q 1191 994 1439 701 
Q 1688 409 2113 409 
Q 2538 409 2786 701 
Q 3034 994 3034 1497 
Q 3034 2003 2786 2293 
Q 2538 2584 2113 2584 
z
M 3366 4563 
L 3366 3988 
Q 3128 4100 2886 4159 
Q 2644 4219 2406 4219 
Q 1781 4219 1451 3797 
Q 1122 3375 1075 2522 
Q 1259 2794 1537 2939 
Q 1816 3084 2150 3084 
Q 2853 3084 3261 2657 
Q 3669 2231 3669 1497 
Q 3669 778 3244 343 
Q 2819 -91 2113 -91 
Q 1303 -91 875 529 
Q 447 1150 447 2328 
Q 447 3434 972 4092 
Q 1497 4750 2381 4750 
Q 2619 4750 2861 4703 
Q 3103 4656 3366 4563 
z
" transform="scale(0.015625)"/>
       </defs>
       <use xlink:href="#DejaVuSans-36"/>
       <use xlink:href="#DejaVuSans-30" transform="translate(63.623047 0)"/>
       <use xlink:href="#DejaVuSans-30" transform="translate(127.246094 0)"/>
      </g>
     </g>
    </g>
    <g id="xtick_5">
     <g id="line2d_9">
      <path d="M 621.427367 527.437656 
L 621.427367 24.597656 
" clip-path="url(#p0ce34fb479)" style="fill: none; stroke-dasharray: 2.96,1.28; stroke-dashoffset: 0; stroke: #b0b0b0; stroke-opacity: 0.3; stroke-width: 0.8"/>
     </g>
     <g id="line2d_10">
      <g>
       <use xlink:href="#m6a6a6a0c88" x="621.427367" y="527.437656" style="stroke: #000000; stroke-width: 0.8"/>
      </g>
     </g>
     <g id="text_5">
      <!-- 800 -->
      <g transform="translate(611.883617 542.036094) scale(0.1 -0.1)">
       <defs>
        <path id="DejaVuSans-38" d="M 2034 2216 
Q 1584 2216 1326 1975 
Q 1069 1734 1069 1313 
Q 1069 891 1326 650 
Q 1584 409 2034 409 
Q 2484 409 2743 651 
Q 3003 894 3003 1313 
Q 3003 1734 2745 1975 
Q 2488 2216 2034 2216 
z
M 1403 2484 
Q 997 2584 770 2862 
Q 544 3141 544 3541 
Q 544 4100 942 4425 
Q 1341 4750 2034 4750 
Q 2731 4750 3128 4425 
Q 3525 4100 3525 3541 
Q 3525 3141 3298 2862 
Q 3072 2584 2669 2484 
Q 3125 2378 3379 2068 
Q 3634 1759 3634 1313 
Q 3634 634 3220 271 
Q 2806 -91 2034 -91 
Q 1263 -91 848 271 
Q 434 634 434 1313 
Q 434 1759 690 2068 
Q 947 2378 1403 2484 
z
M 1172 3481 
Q 1172 3119 1398 2916 
Q 1625 2713 2034 2713 
Q 2441 2713 2670 2916 
Q 2900 3119 2900 3481 
Q 2900 3844 2670 4047 
Q 2441 4250 2034 4250 
Q 1625 4250 1398 4047 
Q 1172 3844 1172 3481 
z
" transform="scale(0.015625)"/>
       </defs>
       <use xlink:href="#DejaVuSans-38"/>
       <use xlink:href="#DejaVuSans-30" transform="translate(63.623047 0)"/>
       <use xlink:href="#DejaVuSans-30" transform="translate(127.246094 0)"/>
      </g>
     </g>
    </g>
    <g id="xtick_6">
     <g id="line2d_11">
      <path d="M 753.714273 527.437656 
L 753.714273 24.597656 
" clip-path="url(#p0ce34fb479)" style="fill: none; stroke-dasharray: 2.96,1.28; stroke-dashoffset: 0; stroke: #b0b0b0; stroke-opacity: 0.3; stroke-width: 0.8"/>
     </g>
     <g id="line2d_12">
      <g>
       <use xlink:href="#m6a6a6a0c88" x="753.714273" y="527.437656" style="stroke: #000000; stroke-width: 0.8"/>
      </g>
     </g>
     <g id="text_6">
      <!-- 1000 -->
      <g transform="translate(740.989273 542.036094) scale(0.1 -0.1)">
       <defs>
        <path id="DejaVuSans-31" d="M 794 531 
L 1825 531 
L 1825 4091 
L 703 3866 
L 703 4441 
L 1819 4666 
L 2450 4666 
L 2450 531 
L 3481 531 
L 3481 0 
L 794 0 
L 794 531 
z
" transform="scale(0.015625)"/>
       </defs>
       <use xlink:href="#DejaVuSans-31"/>
       <use xlink:href="#DejaVuSans-30" transform="translate(63.623047 0)"/>
       <use xlink:href="#DejaVuSans-30" transform="translate(127.246094 0)"/>
       <use xlink:href="#DejaVuSans-30" transform="translate(190.869141 0)"/>
      </g>
     </g>
    </g>
    <g id="text_7">
     <!-- Time (seconds) -->
     <g transform="translate(403.151328 557.99375) scale(0.13 -0.13)">
      <defs>
       <path id="DejaVuSans-54" d="M -19 4666 
L 3928 4666 
L 3928 4134 
L 2272 4134 
L 2272 0 
L 1638 0 
L 1638 4134 
L -19 4134 
L -19 4666 
z
" transform="scale(0.015625)"/>
       <path id="DejaVuSans-69" d="M 603 3500 
L 1178 3500 
L 1178 0 
L 603 0 
L 603 3500 
z
M 603 4863 
L 1178 4863 
L 1178 4134 
L 603 4134 
L 603 4863 
z
" transform="scale(0.015625)"/>
       <path id="DejaVuSans-6d" d="M 3328 2828 
Q 3544 3216 3844 3400 
Q 4144 3584 4550 3584 
Q 5097 3584 5394 3201 
Q 5691 2819 5691 2113 
L 5691 0 
L 5113 0 
L 5113 2094 
Q 5113 2597 4934 2840 
Q 4756 3084 4391 3084 
Q 3944 3084 3684 2787 
Q 3425 2491 3425 1978 
L 3425 0 
L 2847 0 
L 2847 2094 
Q 2847 2600 2669 2842 
Q 2491 3084 2119 3084 
Q 1678 3084 1418 2786 
Q 1159 2488 1159 1978 
L 1159 0 
L 581 0 
L 581 3500 
L 1159 3500 
L 1159 2956 
Q 1356 3278 1631 3431 
Q 1906 3584 2284 3584 
Q 2666 3584 2933 3390 
Q 3200 3197 3328 2828 
z
" transform="scale(0.015625)"/>
       <path id="DejaVuSans-65" d="M 3597 1894 
L 3597 1613 
L 953 1613 
Q 991 1019 1311 708 
Q 1631 397 2203 397 
Q 2534 397 2845 478 
Q 3156 559 3463 722 
L 3463 178 
Q 3153 47 2828 -22 
Q 2503 -91 2169 -91 
Q 1331 -91 842 396 
Q 353 884 353 1716 
Q 353 2575 817 3079 
Q 1281 3584 2069 3584 
Q 2775 3584 3186 3129 
Q 3597 2675 3597 1894 
z
M 3022 2063 
Q 3016 2534 2758 2815 
Q 2500 3097 2075 3097 
Q 1594 3097 1305 2825 
Q 1016 2553 972 2059 
L 3022 2063 
z
" transform="scale(0.015625)"/>
       <path id="DejaVuSans-20" transform="scale(0.015625)"/>
       <path id="DejaVuSans-28" d="M 1984 4856 
Q 1566 4138 1362 3434 
Q 1159 2731 1159 2009 
Q 1159 1288 1364 580 
Q 1569 -128 1984 -844 
L 1484 -844 
Q 1016 -109 783 600 
Q 550 1309 550 2009 
Q 550 2706 781 3412 
Q 1013 4119 1484 4856 
L 1984 4856 
z
" transform="scale(0.015625)"/>
       <path id="DejaVuSans-73" d="M 2834 3397 
L 2834 2853 
Q 2591 2978 2328 3040 
Q 2066 3103 1784 3103 
Q 1356 3103 1142 2972 
Q 928 2841 928 2578 
Q 928 2378 1081 2264 
Q 1234 2150 1697 2047 
L 1894 2003 
Q 2506 1872 2764 1633 
Q 3022 1394 3022 966 
Q 3022 478 2636 193 
Q 2250 -91 1575 -91 
Q 1294 -91 989 -36 
Q 684 19 347 128 
L 347 722 
Q 666 556 975 473 
Q 1284 391 1588 391 
Q 1994 391 2212 530 
Q 2431 669 2431 922 
Q 2431 1156 2273 1281 
Q 2116 1406 1581 1522 
L 1381 1569 
Q 847 1681 609 1914 
Q 372 2147 372 2553 
Q 372 3047 722 3315 
Q 1072 3584 1716 3584 
Q 2034 3584 2315 3537 
Q 2597 3491 2834 3397 
z
" transform="scale(0.015625)"/>
       <path id="DejaVuSans-63" d="M 3122 3366 
L 3122 2828 
Q 2878 2963 2633 3030 
Q 2388 3097 2138 3097 
Q 1578 3097 1268 2742 
Q 959 2388 959 1747 
Q 959 1106 1268 751 
Q 1578 397 2138 397 
Q 2388 397 2633 464 
Q 2878 531 3122 666 
L 3122 134 
Q 2881 22 2623 -34 
Q 2366 -91 2075 -91 
Q 1284 -91 818 406 
Q 353 903 353 1747 
Q 353 2603 823 3093 
Q 1294 3584 2113 3584 
Q 2378 3584 2631 3529 
Q 2884 3475 3122 3366 
z
" transform="scale(0.015625)"/>
       <path id="DejaVuSans-6f" d="M 1959 3097 
Q 1497 3097 1228 2736 
Q 959 2375 959 1747 
Q 959 1119 1226 758 
Q 1494 397 1959 397 
Q 2419 397 2687 759 
Q 2956 1122 2956 1747 
Q 2956 2369 2687 2733 
Q 2419 3097 1959 3097 
z
M 1959 3584 
Q 2709 3584 3137 3096 
Q 3566 2609 3566 1747 
Q 3566 888 3137 398 
Q 2709 -91 1959 -91 
Q 1206 -91 779 398 
Q 353 888 353 1747 
Q 353 2609 779 3096 
Q 1206 3584 1959 3584 
z
" transform="scale(0.015625)"/>
       <path id="DejaVuSans-6e" d="M 3513 2113 
L 3513 0 
L 2938 0 
L 2938 2094 
Q 2938 2591 2744 2837 
Q 2550 3084 2163 3084 
Q 1697 3084 1428 2787 
Q 1159 2491 1159 1978 
L 1159 0 
L 581 0 
L 581 3500 
L 1159 3500 
L 1159 2956 
Q 1366 3272 1645 3428 
Q 1925 3584 2291 3584 
Q 2894 3584 3203 3211 
Q 3513 2838 3513 2113 
z
" transform="scale(0.015625)"/>
       <path id="DejaVuSans-64" d="M 2906 2969 
L 2906 4863 
L 3481 4863 
L 3481 0 
L 2906 0 
L 2906 525 
Q 2725 213 2448 61 
Q 2172 -91 1784 -91 
Q 1150 -91 751 415 
Q 353 922 353 1747 
Q 353 2572 751 3078 
Q 1150 3584 1784 3584 
Q 2172 3584 2448 3432 
Q 2725 3281 2906 2969 
z
M 947 1747 
Q 947 1113 1208 752 
Q 1469 391 1925 391 
Q 2381 391 2643 752 
Q 2906 1113 2906 1747 
Q 2906 2381 2643 2742 
Q 2381 3103 1925 3103 
Q 1469 3103 1208 2742 
Q 947 2381 947 1747 
z
" transform="scale(0.015625)"/>
       <path id="DejaVuSans-29" d="M 513 4856 
L 1013 4856 
Q 1481 4119 1714 3412 
Q 1947 2706 1947 2009 
Q 1947 1309 1714 600 
Q 1481 -109 1013 -844 
L 513 -844 
Q 928 -128 1133 580 
Q 1338 1288 1338 2009 
Q 1338 2731 1133 3434 
Q 928 4138 513 4856 
z
" transform="scale(0.015625)"/>
      </defs>
      <use xlink:href="#DejaVuSans-54"/>
      <use xlink:href="#DejaVuSans-69" transform="translate(57.958984 0)"/>
      <use xlink:href="#DejaVuSans-6d" transform="translate(85.742188 0)"/>
      <use xlink:href="#DejaVuSans-65" transform="translate(183.154297 0)"/>
      <use xlink:href="#DejaVuSans-20" transform="translate(244.677734 0)"/>
      <use xlink:href="#DejaVuSans-28" transform="translate(276.464844 0)"/>
      <use xlink:href="#DejaVuSans-73" transform="translate(315.478516 0)"/>
      <use xlink:href="#DejaVuSans-65" transform="translate(367.578125 0)"/>
      <use xlink:href="#DejaVuSans-63" transform="translate(429.101562 0)"/>
      <use xlink:href="#DejaVuSans-6f" transform="translate(484.082031 0)"/>
      <use xlink:href="#DejaVuSans-6e" transform="translate(545.263672 0)"/>
      <use xlink:href="#DejaVuSans-64" transform="translate(608.642578 0)"/>
      <use xlink:href="#DejaVuSans-73" transform="translate(672.119141 0)"/>
      <use xlink:href="#DejaVuSans-29" transform="translate(724.21875 0)"/>
     </g>
    </g>
   </g>
   <g id="matplotlib.axis_2">
    <g id="ytick_1">
     <g id="line2d_13">
      <path d="M 56.231563 500.52013 
L 849.291563 500.52013 
" clip-path="url(#p0ce34fb479)" style="fill: none; stroke-dasharray: 2.96,1.28; stroke-dashoffset: 0; stroke: #b0b0b0; stroke-opacity: 0.3; stroke-width: 0.8"/>
     </g>
     <g id="line2d_14">
      <defs>
       <path id="meec214cff4" d="M 0 0 
L -3.5 0 
" style="stroke: #000000; stroke-width: 0.8"/>
      </defs>
      <g>
       <use xlink:href="#meec214cff4" x="56.231563" y="500.52013" style="stroke: #000000; stroke-width: 0.8"/>
      </g>
     </g>
     <g id="text_8">
      <!-- 1600 -->
      <g transform="translate(23.781563 504.319349) scale(0.1 -0.1)">
       <use xlink:href="#DejaVuSans-31"/>
       <use xlink:href="#DejaVuSans-36" transform="translate(63.623047 0)"/>
       <use xlink:href="#DejaVuSans-30" transform="translate(127.246094 0)"/>
       <use xlink:href="#DejaVuSans-30" transform="translate(190.869141 0)"/>
      </g>
     </g>
    </g>
    <g id="ytick_2">
     <g id="line2d_15">
      <path d="M 56.231563 415.828579 
L 849.291563 415.828579 
" clip-path="url(#p0ce34fb479)" style="fill: none; stroke-dasharray: 2.96,1.28; stroke-dashoffset: 0; stroke: #b0b0b0; stroke-opacity: 0.3; stroke-width: 0.8"/>
     </g>
     <g id="line2d_16">
      <g>
       <use xlink:href="#meec214cff4" x="56.231563" y="415.828579" style="stroke: #000000; stroke-width: 0.8"/>
      </g>
     </g>
     <g id="text_9">
      <!-- 1800 -->
      <g transform="translate(23.781563 419.627798) scale(0.1 -0.1)">
       <use xlink:href="#DejaVuSans-31"/>
       <use xlink:href="#DejaVuSans-38" transform="translate(63.623047 0)"/>
       <use xlink:href="#DejaVuSans-30" transform="translate(127.246094 0)"/>
       <use xlink:href="#DejaVuSans-30" transform="translate(190.869141 0)"/>
      </g>
     </g>
    </g>
    <g id="ytick_3">
     <g id="line2d_17">
      <path d="M 56.231563 331.137027 
L 849.291563 331.137027 
" clip-path="url(#p0ce34fb479)" style="fill: none; stroke-dasharray: 2.96,1.28; stroke-dashoffset: 0; stroke: #b0b0b0; stroke-opacity: 0.3; stroke-width: 0.8"/>
     </g>
     <g id="line2d_18">
      <g>
       <use xlink:href="#meec214cff4" x="56.231563" y="331.137027" style="stroke: #000000; stroke-width: 0.8"/>
      </g>
     </g>
     <g id="text_10">
      <!-- 2000 -->
      <g transform="translate(23.781563 334.936246) scale(0.1 -0.1)">
       <use xlink:href="#DejaVuSans-32"/>
       <use xlink:href="#DejaVuSans-30" transform="translate(63.623047 0)"/>
       <use xlink:href="#DejaVuSans-30" transform="translate(127.246094 0)"/>
       <use xlink:href="#DejaVuSans-30" transform="translate(190.869141 0)"/>
      </g>
     </g>
    </g>
    <g id="ytick_4">
     <g id="line2d_19">
      <path d="M 56.231563 246.445476 
L 849.291563 246.445476 
" clip-path="url(#p0ce34fb479)" style="fill: none; stroke-dasharray: 2.96,1.28; stroke-dashoffset: 0; stroke: #b0b0b0; stroke-opacity: 0.3; stroke-width: 0.8"/>
     </g>
     <g id="line2d_20">
      <g>
       <use xlink:href="#meec214cff4" x="56.231563" y="246.445476" style="stroke: #000000; stroke-width: 0.8"/>
      </g>
     </g>
     <g id="text_11">
      <!-- 2200 -->
      <g transform="translate(23.781563 250.244695) scale(0.1 -0.1)">
       <use xlink:href="#DejaVuSans-32"/>
       <use xlink:href="#DejaVuSans-32" transform="translate(63.623047 0)"/>
       <use xlink:href="#DejaVuSans-30" transform="translate(127.246094 0)"/>
       <use xlink:href="#DejaVuSans-30" transform="translate(190.869141 0)"/>
      </g>
     </g>
    </g>
    <g id="ytick_5">
     <g id="line2d_21">
      <path d="M 56.231563 161.753925 
L 849.291563 161.753925 
" clip-path="url(#p0ce34fb479)" style="fill: none; stroke-dasharray: 2.96,1.28; stroke-dashoffset: 0; stroke: #b0b0b0; stroke-opacity: 0.3; stroke-width: 0.8"/>
     </g>
     <g id="line2d_22">
      <g>
       <use xlink:href="#meec214cff4" x="56.231563" y="161.753925" style="stroke: #000000; stroke-width: 0.8"/>
      </g>
     </g>
     <g id="text_12">
      <!-- 2400 -->
      <g transform="translate(23.781563 165.553143) scale(0.1 -0.1)">
       <use xlink:href="#DejaVuSans-32"/>
       <use xlink:href="#DejaVuSans-34" transform="translate(63.623047 0)"/>
       <use xlink:href="#DejaVuSans-30" transform="translate(127.246094 0)"/>
       <use xlink:href="#DejaVuSans-30" transform="translate(190.869141 0)"/>
      </g>
     </g>
    </g>
    <g id="ytick_6">
     <g id="line2d_23">
      <path d="M 56.231563 77.062373 
L 849.291563 77.062373 
" clip-path="url(#p0ce34fb479)" style="fill: none; stroke-dasharray: 2.96,1.28; stroke-dashoffset: 0; stroke: #b0b0b0; stroke-opacity: 0.3; stroke-width: 0.8"/>
     </g>
     <g id="line2d_24">
      <g>
       <use xlink:href="#meec214cff4" x="56.231563" y="77.062373" style="stroke: #000000; stroke-width: 0.8"/>
      </g>
     </g>
     <g id="text_13">
      <!-- 2600 -->
      <g transform="translate(23.781563 80.861592) scale(0.1 -0.1)">
       <use xlink:href="#DejaVuSans-32"/>
       <use xlink:href="#DejaVuSans-36" transform="translate(63.623047 0)"/>
       <use xlink:href="#DejaVuSans-30" transform="translate(127.246094 0)"/>
       <use xlink:href="#DejaVuSans-30" transform="translate(190.869141 0)"/>
      </g>
     </g>
    </g>
    <g id="text_14">
     <!-- Best Perplexity -->
     <g transform="translate(17.077969 324.698594) rotate(-90) scale(0.13 -0.13)">
      <defs>
       <path id="DejaVuSans-42" d="M 1259 2228 
L 1259 519 
L 2272 519 
Q 2781 519 3026 730 
Q 3272 941 3272 1375 
Q 3272 1813 3026 2020 
Q 2781 2228 2272 2228 
L 1259 2228 
z
M 1259 4147 
L 1259 2741 
L 2194 2741 
Q 2656 2741 2882 2914 
Q 3109 3088 3109 3444 
Q 3109 3797 2882 3972 
Q 2656 4147 2194 4147 
L 1259 4147 
z
M 628 4666 
L 2241 4666 
Q 2963 4666 3353 4366 
Q 3744 4066 3744 3513 
Q 3744 3084 3544 2831 
Q 3344 2578 2956 2516 
Q 3422 2416 3680 2098 
Q 3938 1781 3938 1306 
Q 3938 681 3513 340 
Q 3088 0 2303 0 
L 628 0 
L 628 4666 
z
" transform="scale(0.015625)"/>
       <path id="DejaVuSans-74" d="M 1172 4494 
L 1172 3500 
L 2356 3500 
L 2356 3053 
L 1172 3053 
L 1172 1153 
Q 1172 725 1289 603 
Q 1406 481 1766 481 
L 2356 481 
L 2356 0 
L 1766 0 
Q 1100 0 847 248 
Q 594 497 594 1153 
L 594 3053 
L 172 3053 
L 172 3500 
L 594 3500 
L 594 4494 
L 1172 4494 
z
" transform="scale(0.015625)"/>
       <path id="DejaVuSans-50" d="M 1259 4147 
L 1259 2394 
L 2053 2394 
Q 2494 2394 2734 2622 
Q 2975 2850 2975 3272 
Q 2975 3691 2734 3919 
Q 2494 4147 2053 4147 
L 1259 4147 
z
M 628 4666 
L 2053 4666 
Q 2838 4666 3239 4311 
Q 3641 3956 3641 3272 
Q 3641 2581 3239 2228 
Q 2838 1875 2053 1875 
L 1259 1875 
L 1259 0 
L 628 0 
L 628 4666 
z
" transform="scale(0.015625)"/>
       <path id="DejaVuSans-72" d="M 2631 2963 
Q 2534 3019 2420 3045 
Q 2306 3072 2169 3072 
Q 1681 3072 1420 2755 
Q 1159 2438 1159 1844 
L 1159 0 
L 581 0 
L 581 3500 
L 1159 3500 
L 1159 2956 
Q 1341 3275 1631 3429 
Q 1922 3584 2338 3584 
Q 2397 3584 2469 3576 
Q 2541 3569 2628 3553 
L 2631 2963 
z
" transform="scale(0.015625)"/>
       <path id="DejaVuSans-70" d="M 1159 525 
L 1159 -1331 
L 581 -1331 
L 581 3500 
L 1159 3500 
L 1159 2969 
Q 1341 3281 1617 3432 
Q 1894 3584 2278 3584 
Q 2916 3584 3314 3078 
Q 3713 2572 3713 1747 
Q 3713 922 3314 415 
Q 2916 -91 2278 -91 
Q 1894 -91 1617 61 
Q 1341 213 1159 525 
z
M 3116 1747 
Q 3116 2381 2855 2742 
Q 2594 3103 2138 3103 
Q 1681 3103 1420 2742 
Q 1159 2381 1159 1747 
Q 1159 1113 1420 752 
Q 1681 391 2138 391 
Q 2594 391 2855 752 
Q 3116 1113 3116 1747 
z
" transform="scale(0.015625)"/>
       <path id="DejaVuSans-6c" d="M 603 4863 
L 1178 4863 
L 1178 0 
L 603 0 
L 603 4863 
z
" transform="scale(0.015625)"/>
       <path id="DejaVuSans-78" d="M 3513 3500 
L 2247 1797 
L 3578 0 
L 2900 0 
L 1881 1375 
L 863 0 
L 184 0 
L 1544 1831 
L 300 3500 
L 978 3500 
L 1906 2253 
L 2834 3500 
L 3513 3500 
z
" transform="scale(0.015625)"/>
       <path id="DejaVuSans-79" d="M 2059 -325 
Q 1816 -950 1584 -1140 
Q 1353 -1331 966 -1331 
L 506 -1331 
L 506 -850 
L 844 -850 
Q 1081 -850 1212 -737 
Q 1344 -625 1503 -206 
L 1606 56 
L 191 3500 
L 800 3500 
L 1894 763 
L 2988 3500 
L 3597 3500 
L 2059 -325 
z
" transform="scale(0.015625)"/>
      </defs>
      <use xlink:href="#DejaVuSans-42"/>
      <use xlink:href="#DejaVuSans-65" transform="translate(68.603516 0)"/>
      <use xlink:href="#DejaVuSans-73" transform="translate(130.126953 0)"/>
      <use xlink:href="#DejaVuSans-74" transform="translate(182.226562 0)"/>
      <use xlink:href="#DejaVuSans-20" transform="translate(221.435547 0)"/>
      <use xlink:href="#DejaVuSans-50" transform="translate(253.222656 0)"/>
      <use xlink:href="#DejaVuSans-65" transform="translate(309.900391 0)"/>
      <use xlink:href="#DejaVuSans-72" transform="translate(371.423828 0)"/>
      <use xlink:href="#DejaVuSans-70" transform="translate(412.537109 0)"/>
      <use xlink:href="#DejaVuSans-6c" transform="translate(476.013672 0)"/>
      <use xlink:href="#DejaVuSans-65" transform="translate(503.796875 0)"/>
      <use xlink:href="#DejaVuSans-78" transform="translate(563.570312 0)"/>
      <use xlink:href="#DejaVuSans-69" transform="translate(622.75 0)"/>
      <use xlink:href="#DejaVuSans-74" transform="translate(650.533203 0)"/>
      <use xlink:href="#DejaVuSans-79" transform="translate(689.742188 0)"/>
     </g>
    </g>
   </g>
   <g id="line2d_25">
    <path d="M 92.279744 75.331501 
L 98.89409 76.622618 
L 105.508435 77.913735 
L 112.12278 79.204853 
L 118.737125 80.49597 
L 125.351471 81.787087 
L 131.965816 83.078205 
L 138.580161 84.369322 
L 145.194507 85.660439 
L 151.808852 87.484596 
L 158.423197 89.680474 
L 165.037542 92.003327 
L 171.651888 94.842622 
L 178.266233 96.871879 
L 184.880578 98.660054 
L 191.494924 100.327882 
L 198.109269 102.309772 
L 204.723614 106.383775 
L 211.337959 115.043205 
L 217.952305 119.722399 
L 224.56665 129.869985 
L 231.180995 137.157198 
L 237.795341 152.371869 
L 244.409686 159.127417 
L 251.024031 165.748524 
L 257.638377 178.601949 
L 264.252722 187.143419 
L 270.867067 193.695411 
L 277.481412 198.881904 
L 284.095758 205.331684 
L 290.710103 211.032179 
L 297.324448 216.060826 
L 303.938794 221.125918 
L 310.553139 223.690238 
L 317.167484 226.298391 
L 323.781829 228.505089 
L 330.396175 235.352637 
L 337.01052 245.591688 
L 343.624865 253.308941 
L 350.239211 254.987806 
L 356.853556 257.802289 
L 363.467901 260.84998 
L 370.082246 265.798047 
L 376.696592 271.129415 
L 383.310937 275.270613 
L 389.925282 281.501379 
L 396.539628 284.68103 
L 403.153973 287.968768 
L 409.768318 289.250088 
L 416.382663 291.076907 
L 422.997009 292.893 
L 429.611354 297.541564 
L 436.225699 299.467677 
L 442.840045 301.168806 
L 449.45439 302.210277 
L 456.068735 303.34967 
L 462.68308 305.0505 
L 469.297426 306.846582 
L 475.911771 307.038161 
L 482.526116 307.038161 
" clip-path="url(#p0ce34fb479)" style="fill: none; stroke: #1f77b4; stroke-width: 2.5; stroke-linecap: square"/>
   </g>
   <g id="line2d_26">
    <path d="M 92.279744 75.331501 
L 98.89409 76.783742 
L 105.508435 78.235984 
L 112.12278 79.688225 
L 118.737125 81.140467 
L 125.351471 82.592709 
L 131.965816 84.04495 
L 138.580161 85.497192 
L 145.194507 86.949433 
L 151.808852 88.401675 
L 158.423197 89.853917 
L 165.037542 91.306158 
L 171.651888 92.7584 
L 178.266233 94.210642 
L 184.880578 95.662883 
L 191.494924 97.115125 
L 198.109269 98.567366 
L 204.723614 100.019608 
L 211.337959 101.47185 
L 217.952305 103.455619 
L 224.56665 105.758152 
L 231.180995 108.060686 
L 237.795341 111.385643 
L 244.409686 115.274886 
L 251.024031 119.164129 
L 257.638377 123.053373 
L 264.252722 126.942616 
L 270.867067 130.956009 
L 277.481412 136.344404 
L 284.095758 140.306099 
L 290.710103 144.257982 
L 297.324448 148.209865 
L 303.938794 151.213082 
L 310.553139 153.966681 
L 317.167484 157.180508 
L 323.781829 161.085482 
L 330.396175 165.161712 
L 337.01052 168.367578 
L 343.624865 171.704083 
L 350.239211 175.70529 
L 356.853556 179.547726 
L 363.467901 196.515846 
L 370.082246 211.475515 
L 376.696592 214.08581 
L 383.310937 216.696104 
L 389.925282 218.247778 
L 396.539628 219.538565 
L 403.153973 221.083186 
L 409.768318 224.375782 
L 416.382663 233.904487 
L 422.997009 246.112818 
L 429.611354 254.711938 
L 436.225699 257.980246 
L 442.840045 261.940434 
L 449.45439 267.739292 
L 456.068735 273.778285 
L 462.68308 280.397435 
L 469.297426 283.689129 
L 475.911771 287.959295 
L 482.526116 294.645466 
L 489.140462 302.157323 
L 495.754807 308.907444 
L 502.369152 313.945097 
L 508.983497 321.287708 
L 515.597843 326.85383 
L 522.212188 332.541796 
L 528.826533 336.779715 
L 535.440879 340.565301 
L 542.055224 342.809413 
L 548.669569 345.942232 
L 555.283914 354.797183 
L 561.89826 368.384928 
L 568.512605 379.287397 
L 575.12695 381.120043 
L 581.741296 381.924196 
L 588.355641 382.482796 
L 594.969986 386.455911 
L 601.584331 392.972964 
L 608.198677 397.724578 
L 614.813022 400.666338 
L 621.427367 406.088088 
L 628.041713 408.251335 
L 634.656058 411.54629 
L 641.270403 416.467804 
L 647.884748 419.051152 
L 654.499094 421.915354 
L 661.113439 422.172085 
L 667.727784 423.314768 
L 674.34213 423.717136 
L 680.956475 425.845217 
L 687.57082 425.845217 
L 694.185166 425.845217 
" clip-path="url(#p0ce34fb479)" style="fill: none; stroke: #ff7f0e; stroke-width: 2.5; stroke-linecap: square"/>
   </g>
   <g id="line2d_27">
    <path d="M 92.279959 75.331501 
L 98.894305 213.826803 
L 105.50865 213.826803 
L 112.122995 229.926389 
L 118.737341 229.926389 
L 125.351686 251.936699 
L 131.966031 286.397385 
L 138.580376 287.071803 
L 145.194722 314.706409 
L 151.809067 314.740611 
L 158.423412 314.740611 
L 165.037758 314.740611 
L 171.652103 334.637817 
L 178.266448 384.123714 
L 184.880793 384.123714 
L 191.495139 390.660263 
L 198.109484 390.660263 
L 204.723829 390.660263 
L 211.338175 390.660263 
L 217.95252 390.904858 
L 224.566865 392.049609 
L 231.18121 392.049609 
L 237.795556 392.049609 
L 244.409901 392.049609 
L 251.024246 392.049609 
L 257.638592 392.049609 
L 264.252937 392.049609 
L 270.867282 392.049609 
L 277.481627 392.049609 
L 284.095973 392.049609 
L 290.710318 392.049609 
L 297.324663 392.049609 
L 303.939009 392.049609 
L 310.553354 392.049609 
L 317.167699 392.049609 
L 323.782044 392.049609 
L 330.39639 392.049609 
L 337.010735 392.049609 
L 343.62508 403.967952 
L 350.239426 403.967952 
L 356.853771 403.967952 
L 363.468116 403.967952 
L 370.082461 403.967952 
L 376.696807 403.967952 
L 383.311152 403.967952 
L 389.925497 403.967952 
L 396.539843 409.587523 
L 403.154188 411.784913 
L 409.768533 411.784913 
L 416.382878 411.784913 
L 422.997224 411.784913 
L 429.611569 411.784913 
L 436.225914 411.784913 
L 442.84026 411.784913 
L 449.454605 411.784913 
L 456.06895 411.784913 
L 462.683295 411.784913 
L 469.297641 411.784913 
L 475.911986 411.784913 
L 482.526331 411.784913 
L 489.140677 411.784913 
L 495.755022 411.784913 
L 502.369367 411.784913 
L 508.983712 411.784913 
L 515.598058 411.784913 
L 522.212403 411.784913 
L 528.826748 411.784913 
" clip-path="url(#p0ce34fb479)" style="fill: none; stroke: #2ca02c; stroke-width: 2.5; stroke-linecap: square"/>
   </g>
   <g id="line2d_28">
    <path d="M 92.279744 75.331501 
L 98.89409 87.314605 
L 105.508435 99.297709 
L 112.12278 111.280814 
L 118.737125 123.263918 
L 125.351471 135.247023 
L 131.965816 147.230127 
L 138.580161 159.213231 
L 145.194507 171.196336 
L 151.808852 183.17944 
L 158.423197 195.162545 
L 165.037542 207.145649 
L 171.651888 219.128753 
L 178.266233 231.111858 
L 184.880578 243.094962 
L 191.494924 255.078067 
L 198.109269 267.061171 
L 204.723614 279.044275 
L 211.337959 289.2031 
L 217.952305 299.102694 
L 224.56665 308.939585 
L 231.180995 318.763899 
L 237.795341 328.482818 
L 244.409686 337.743378 
L 251.024031 347.003939 
L 257.638377 356.278885 
L 264.252722 370.15353 
L 270.867067 382.870669 
L 277.481412 393.09712 
L 284.095758 400.326413 
L 290.710103 406.47143 
L 297.324448 412.216894 
L 303.938794 419.89501 
L 310.553139 427.938134 
L 317.167484 434.559996 
L 323.781829 441.989588 
L 330.396175 446.542561 
L 337.01052 450.8026 
L 343.624865 454.169539 
L 350.239211 460.069533 
L 356.853556 462.199943 
L 363.467901 464.002111 
L 370.082246 464.567316 
L 376.696592 465.364733 
L 383.310937 465.920355 
L 389.925282 465.965473 
L 396.539628 466.02823 
L 403.153973 466.102362 
L 409.768318 466.176494 
L 416.382663 466.250627 
L 422.997009 466.309418 
L 429.611354 466.336047 
L 436.225699 466.361097 
L 442.840045 466.386147 
L 449.45439 466.411197 
L 456.068735 466.41823 
L 462.68308 466.41823 
L 469.297426 466.41823 
L 475.911771 466.41823 
L 482.526116 466.41823 
L 489.140462 466.41823 
L 495.754807 466.41823 
L 502.369152 466.41823 
L 508.983497 466.41823 
L 515.597843 466.41823 
L 522.212188 466.41823 
L 528.826533 466.463217 
L 535.440879 466.567096 
L 542.055224 466.659426 
L 548.669569 466.659426 
L 555.283914 466.659426 
L 561.89826 466.659426 
L 568.512605 466.659426 
L 575.12695 466.659426 
L 581.741296 466.659426 
L 588.355641 466.659426 
L 594.969986 466.659426 
L 601.584331 466.659426 
L 608.198677 466.659426 
L 614.813022 466.659426 
L 621.427367 466.659426 
L 628.041713 466.659426 
L 634.656058 466.659426 
L 641.270403 466.659426 
L 647.884748 466.659426 
L 654.499094 466.659426 
L 661.113439 466.659426 
L 667.727784 466.659426 
L 674.34213 466.659426 
L 680.956475 466.659426 
L 687.57082 466.659426 
L 694.185166 466.659426 
L 700.799511 466.659426 
L 707.413856 466.659426 
L 714.028201 466.659426 
L 720.642547 466.659426 
L 727.256892 466.659426 
L 733.871237 466.659426 
L 740.485583 466.659426 
L 747.099928 466.659426 
L 753.714273 466.659426 
L 760.328618 466.659426 
L 766.942964 466.659426 
L 773.557309 466.659426 
L 780.171654 466.659426 
L 786.786 466.659426 
L 793.400345 466.659426 
L 800.01469 466.659426 
L 806.629035 466.659426 
L 813.243381 466.659426 
" clip-path="url(#p0ce34fb479)" style="fill: none; stroke: #d62728; stroke-width: 2.5; stroke-linecap: square"/>
   </g>
   <g id="patch_3">
    <path d="M 56.231563 527.437656 
L 56.231563 24.597656 
" style="fill: none; stroke: #000000; stroke-width: 0.8; stroke-linejoin: miter; stroke-linecap: square"/>
   </g>
   <g id="patch_4">
    <path d="M 849.291563 527.437656 
L 849.291563 24.597656 
" style="fill: none; stroke: #000000; stroke-width: 0.8; stroke-linejoin: miter; stroke-linecap: square"/>
   </g>
   <g id="patch_5">
    <path d="M 56.231563 527.437656 
L 849.291563 527.437656 
" style="fill: none; stroke: #000000; stroke-width: 0.8; stroke-linejoin: miter; stroke-linecap: square"/>
   </g>
   <g id="patch_6">
    <path d="M 56.231563 24.597656 
L 849.291563 24.597656 
" style="fill: none; stroke: #000000; stroke-width: 0.8; stroke-linejoin: miter; stroke-linecap: square"/>
   </g>
   <g id="text_15">
    <!-- 20news - Best Perplexity vs Time -->
    <g transform="translate(312.352188 18.597656) scale(0.15 -0.15)">
     <defs>
      <path id="DejaVuSans-Bold-32" d="M 1844 884 
L 3897 884 
L 3897 0 
L 506 0 
L 506 884 
L 2209 2388 
Q 2438 2594 2547 2791 
Q 2656 2988 2656 3200 
Q 2656 3528 2436 3728 
Q 2216 3928 1850 3928 
Q 1569 3928 1234 3808 
Q 900 3688 519 3450 
L 519 4475 
Q 925 4609 1322 4679 
Q 1719 4750 2100 4750 
Q 2938 4750 3402 4381 
Q 3866 4013 3866 3353 
Q 3866 2972 3669 2642 
Q 3472 2313 2841 1759 
L 1844 884 
z
" transform="scale(0.015625)"/>
      <path id="DejaVuSans-Bold-30" d="M 2944 2338 
Q 2944 3213 2780 3570 
Q 2616 3928 2228 3928 
Q 1841 3928 1675 3570 
Q 1509 3213 1509 2338 
Q 1509 1453 1675 1090 
Q 1841 728 2228 728 
Q 2613 728 2778 1090 
Q 2944 1453 2944 2338 
z
M 4147 2328 
Q 4147 1169 3647 539 
Q 3147 -91 2228 -91 
Q 1306 -91 806 539 
Q 306 1169 306 2328 
Q 306 3491 806 4120 
Q 1306 4750 2228 4750 
Q 3147 4750 3647 4120 
Q 4147 3491 4147 2328 
z
" transform="scale(0.015625)"/>
      <path id="DejaVuSans-Bold-6e" d="M 4056 2131 
L 4056 0 
L 2931 0 
L 2931 347 
L 2931 1631 
Q 2931 2084 2911 2256 
Q 2891 2428 2841 2509 
Q 2775 2619 2662 2680 
Q 2550 2741 2406 2741 
Q 2056 2741 1856 2470 
Q 1656 2200 1656 1722 
L 1656 0 
L 538 0 
L 538 3500 
L 1656 3500 
L 1656 2988 
Q 1909 3294 2193 3439 
Q 2478 3584 2822 3584 
Q 3428 3584 3742 3212 
Q 4056 2841 4056 2131 
z
" transform="scale(0.015625)"/>
      <path id="DejaVuSans-Bold-65" d="M 4031 1759 
L 4031 1441 
L 1416 1441 
Q 1456 1047 1700 850 
Q 1944 653 2381 653 
Q 2734 653 3104 758 
Q 3475 863 3866 1075 
L 3866 213 
Q 3469 63 3072 -14 
Q 2675 -91 2278 -91 
Q 1328 -91 801 392 
Q 275 875 275 1747 
Q 275 2603 792 3093 
Q 1309 3584 2216 3584 
Q 3041 3584 3536 3087 
Q 4031 2591 4031 1759 
z
M 2881 2131 
Q 2881 2450 2695 2645 
Q 2509 2841 2209 2841 
Q 1884 2841 1681 2658 
Q 1478 2475 1428 2131 
L 2881 2131 
z
" transform="scale(0.015625)"/>
      <path id="DejaVuSans-Bold-77" d="M 225 3500 
L 1313 3500 
L 1900 1088 
L 2491 3500 
L 3425 3500 
L 4013 1113 
L 4603 3500 
L 5691 3500 
L 4769 0 
L 3547 0 
L 2956 2406 
L 2369 0 
L 1147 0 
L 225 3500 
z
" transform="scale(0.015625)"/>
      <path id="DejaVuSans-Bold-73" d="M 3272 3391 
L 3272 2541 
Q 2913 2691 2578 2766 
Q 2244 2841 1947 2841 
Q 1628 2841 1473 2761 
Q 1319 2681 1319 2516 
Q 1319 2381 1436 2309 
Q 1553 2238 1856 2203 
L 2053 2175 
Q 2913 2066 3209 1816 
Q 3506 1566 3506 1031 
Q 3506 472 3093 190 
Q 2681 -91 1863 -91 
Q 1516 -91 1145 -36 
Q 775 19 384 128 
L 384 978 
Q 719 816 1070 734 
Q 1422 653 1784 653 
Q 2113 653 2278 743 
Q 2444 834 2444 1013 
Q 2444 1163 2330 1236 
Q 2216 1309 1875 1350 
L 1678 1375 
Q 931 1469 631 1722 
Q 331 1975 331 2491 
Q 331 3047 712 3315 
Q 1094 3584 1881 3584 
Q 2191 3584 2531 3537 
Q 2872 3491 3272 3391 
z
" transform="scale(0.015625)"/>
      <path id="DejaVuSans-Bold-20" transform="scale(0.015625)"/>
      <path id="DejaVuSans-Bold-2d" d="M 347 2297 
L 2309 2297 
L 2309 1388 
L 347 1388 
L 347 2297 
z
" transform="scale(0.015625)"/>
      <path id="DejaVuSans-Bold-42" d="M 2456 2859 
Q 2741 2859 2887 2984 
Q 3034 3109 3034 3353 
Q 3034 3594 2887 3720 
Q 2741 3847 2456 3847 
L 1791 3847 
L 1791 2859 
L 2456 2859 
z
M 2497 819 
Q 2859 819 3042 972 
Q 3225 1125 3225 1434 
Q 3225 1738 3044 1889 
Q 2863 2041 2497 2041 
L 1791 2041 
L 1791 819 
L 2497 819 
z
M 3616 2497 
Q 4003 2384 4215 2081 
Q 4428 1778 4428 1338 
Q 4428 663 3972 331 
Q 3516 0 2584 0 
L 588 0 
L 588 4666 
L 2394 4666 
Q 3366 4666 3802 4372 
Q 4238 4078 4238 3431 
Q 4238 3091 4078 2852 
Q 3919 2613 3616 2497 
z
" transform="scale(0.015625)"/>
      <path id="DejaVuSans-Bold-74" d="M 1759 4494 
L 1759 3500 
L 2913 3500 
L 2913 2700 
L 1759 2700 
L 1759 1216 
Q 1759 972 1856 886 
Q 1953 800 2241 800 
L 2816 800 
L 2816 0 
L 1856 0 
Q 1194 0 917 276 
Q 641 553 641 1216 
L 641 2700 
L 84 2700 
L 84 3500 
L 641 3500 
L 641 4494 
L 1759 4494 
z
" transform="scale(0.015625)"/>
      <path id="DejaVuSans-Bold-50" d="M 588 4666 
L 2584 4666 
Q 3475 4666 3951 4270 
Q 4428 3875 4428 3144 
Q 4428 2409 3951 2014 
Q 3475 1619 2584 1619 
L 1791 1619 
L 1791 0 
L 588 0 
L 588 4666 
z
M 1791 3794 
L 1791 2491 
L 2456 2491 
Q 2806 2491 2997 2661 
Q 3188 2831 3188 3144 
Q 3188 3456 2997 3625 
Q 2806 3794 2456 3794 
L 1791 3794 
z
" transform="scale(0.015625)"/>
      <path id="DejaVuSans-Bold-72" d="M 3138 2547 
Q 2991 2616 2845 2648 
Q 2700 2681 2553 2681 
Q 2122 2681 1889 2404 
Q 1656 2128 1656 1613 
L 1656 0 
L 538 0 
L 538 3500 
L 1656 3500 
L 1656 2925 
Q 1872 3269 2151 3426 
Q 2431 3584 2822 3584 
Q 2878 3584 2943 3579 
Q 3009 3575 3134 3559 
L 3138 2547 
z
" transform="scale(0.015625)"/>
      <path id="DejaVuSans-Bold-70" d="M 1656 506 
L 1656 -1331 
L 538 -1331 
L 538 3500 
L 1656 3500 
L 1656 2988 
Q 1888 3294 2169 3439 
Q 2450 3584 2816 3584 
Q 3463 3584 3878 3070 
Q 4294 2556 4294 1747 
Q 4294 938 3878 423 
Q 3463 -91 2816 -91 
Q 2450 -91 2169 54 
Q 1888 200 1656 506 
z
M 2400 2772 
Q 2041 2772 1848 2508 
Q 1656 2244 1656 1747 
Q 1656 1250 1848 986 
Q 2041 722 2400 722 
Q 2759 722 2948 984 
Q 3138 1247 3138 1747 
Q 3138 2247 2948 2509 
Q 2759 2772 2400 2772 
z
" transform="scale(0.015625)"/>
      <path id="DejaVuSans-Bold-6c" d="M 538 4863 
L 1656 4863 
L 1656 0 
L 538 0 
L 538 4863 
z
" transform="scale(0.015625)"/>
      <path id="DejaVuSans-Bold-78" d="M 1422 1791 
L 159 3500 
L 1344 3500 
L 2059 2463 
L 2784 3500 
L 3969 3500 
L 2706 1797 
L 4031 0 
L 2847 0 
L 2059 1106 
L 1281 0 
L 97 0 
L 1422 1791 
z
" transform="scale(0.015625)"/>
      <path id="DejaVuSans-Bold-69" d="M 538 3500 
L 1656 3500 
L 1656 0 
L 538 0 
L 538 3500 
z
M 538 4863 
L 1656 4863 
L 1656 3950 
L 538 3950 
L 538 4863 
z
" transform="scale(0.015625)"/>
      <path id="DejaVuSans-Bold-79" d="M 78 3500 
L 1197 3500 
L 2138 1125 
L 2938 3500 
L 4056 3500 
L 2584 -331 
Q 2363 -916 2067 -1148 
Q 1772 -1381 1288 -1381 
L 641 -1381 
L 641 -647 
L 991 -647 
Q 1275 -647 1404 -556 
Q 1534 -466 1606 -231 
L 1638 -134 
L 78 3500 
z
" transform="scale(0.015625)"/>
      <path id="DejaVuSans-Bold-76" d="M 97 3500 
L 1216 3500 
L 2088 1081 
L 2956 3500 
L 4078 3500 
L 2700 0 
L 1472 0 
L 97 3500 
z
" transform="scale(0.015625)"/>
      <path id="DejaVuSans-Bold-54" d="M 31 4666 
L 4331 4666 
L 4331 3756 
L 2784 3756 
L 2784 0 
L 1581 0 
L 1581 3756 
L 31 3756 
L 31 4666 
z
" transform="scale(0.015625)"/>
      <path id="DejaVuSans-Bold-6d" d="M 3781 2919 
Q 3994 3244 4286 3414 
Q 4578 3584 4928 3584 
Q 5531 3584 5847 3212 
Q 6163 2841 6163 2131 
L 6163 0 
L 5038 0 
L 5038 1825 
Q 5041 1866 5042 1909 
Q 5044 1953 5044 2034 
Q 5044 2406 4934 2573 
Q 4825 2741 4581 2741 
Q 4263 2741 4089 2478 
Q 3916 2216 3909 1719 
L 3909 0 
L 2784 0 
L 2784 1825 
Q 2784 2406 2684 2573 
Q 2584 2741 2328 2741 
Q 2006 2741 1831 2477 
Q 1656 2213 1656 1722 
L 1656 0 
L 531 0 
L 531 3500 
L 1656 3500 
L 1656 2988 
Q 1863 3284 2130 3434 
Q 2397 3584 2719 3584 
Q 3081 3584 3359 3409 
Q 3638 3234 3781 2919 
z
" transform="scale(0.015625)"/>
     </defs>
     <use xlink:href="#DejaVuSans-Bold-32"/>
     <use xlink:href="#DejaVuSans-Bold-30" transform="translate(69.580078 0)"/>
     <use xlink:href="#DejaVuSans-Bold-6e" transform="translate(139.160156 0)"/>
     <use xlink:href="#DejaVuSans-Bold-65" transform="translate(210.351562 0)"/>
     <use xlink:href="#DejaVuSans-Bold-77" transform="translate(278.173828 0)"/>
     <use xlink:href="#DejaVuSans-Bold-73" transform="translate(370.556641 0)"/>
     <use xlink:href="#DejaVuSans-Bold-20" transform="translate(430.078125 0)"/>
     <use xlink:href="#DejaVuSans-Bold-2d" transform="translate(464.892578 0)"/>
     <use xlink:href="#DejaVuSans-Bold-20" transform="translate(506.396484 0)"/>
     <use xlink:href="#DejaVuSans-Bold-42" transform="translate(541.210938 0)"/>
     <use xlink:href="#DejaVuSans-Bold-65" transform="translate(617.431641 0)"/>
     <use xlink:href="#DejaVuSans-Bold-73" transform="translate(685.253906 0)"/>
     <use xlink:href="#DejaVuSans-Bold-74" transform="translate(744.775391 0)"/>
     <use xlink:href="#DejaVuSans-Bold-20" transform="translate(792.578125 0)"/>
     <use xlink:href="#DejaVuSans-Bold-50" transform="translate(827.392578 0)"/>
     <use xlink:href="#DejaVuSans-Bold-65" transform="translate(900.683594 0)"/>
     <use xlink:href="#DejaVuSans-Bold-72" transform="translate(968.505859 0)"/>
     <use xlink:href="#DejaVuSans-Bold-70" transform="translate(1017.822266 0)"/>
     <use xlink:href="#DejaVuSans-Bold-6c" transform="translate(1089.404297 0)"/>
     <use xlink:href="#DejaVuSans-Bold-65" transform="translate(1123.681641 0)"/>
     <use xlink:href="#DejaVuSans-Bold-78" transform="translate(1191.503906 0)"/>
     <use xlink:href="#DejaVuSans-Bold-69" transform="translate(1256.005859 0)"/>
     <use xlink:href="#DejaVuSans-Bold-74" transform="translate(1290.283203 0)"/>
     <use xlink:href="#DejaVuSans-Bold-79" transform="translate(1338.085938 0)"/>
     <use xlink:href="#DejaVuSans-Bold-20" transform="translate(1403.271484 0)"/>
     <use xlink:href="#DejaVuSans-Bold-76" transform="translate(1438.085938 0)"/>
     <use xlink:href="#DejaVuSans-Bold-73" transform="translate(1503.271484 0)"/>
     <use xlink:href="#DejaVuSans-Bold-20" transform="translate(1562.792969 0)"/>
     <use xlink:href="#DejaVuSans-Bold-54" transform="translate(1597.607422 0)"/>
     <use xlink:href="#DejaVuSans-Bold-69" transform="translate(1665.820312 0)"/>
     <use xlink:href="#DejaVuSans-Bold-6d" transform="translate(1700.097656 0)"/>
     <use xlink:href="#DejaVuSans-Bold-65" transform="translate(1804.296875 0)"/>
    </g>
   </g>
   <g id="legend_1">
    <g id="patch_7">
     <path d="M 760.737188 104.652656 
L 840.891562 104.652656 
Q 843.291562 104.652656 843.291562 102.252656 
L 843.291562 32.997656 
Q 843.291562 30.597656 840.891562 30.597656 
L 760.737188 30.597656 
Q 758.337188 30.597656 758.337188 32.997656 
L 758.337188 102.252656 
Q 758.337188 104.652656 760.737188 104.652656 
z
" style="fill: #ffffff; opacity: 0.8; stroke: #cccccc; stroke-linejoin: miter"/>
    </g>
    <g id="line2d_29">
     <path d="M 763.137187 40.315781 
L 775.137187 40.315781 
L 787.137187 40.315781 
" style="fill: none; stroke: #1f77b4; stroke-width: 2.5; stroke-linecap: square"/>
    </g>
    <g id="text_16">
     <!-- ES -->
     <g transform="translate(796.737188 44.515781) scale(0.12 -0.12)">
      <defs>
       <path id="DejaVuSans-45" d="M 628 4666 
L 3578 4666 
L 3578 4134 
L 1259 4134 
L 1259 2753 
L 3481 2753 
L 3481 2222 
L 1259 2222 
L 1259 531 
L 3634 531 
L 3634 0 
L 628 0 
L 628 4666 
z
" transform="scale(0.015625)"/>
       <path id="DejaVuSans-53" d="M 3425 4513 
L 3425 3897 
Q 3066 4069 2747 4153 
Q 2428 4238 2131 4238 
Q 1616 4238 1336 4038 
Q 1056 3838 1056 3469 
Q 1056 3159 1242 3001 
Q 1428 2844 1947 2747 
L 2328 2669 
Q 3034 2534 3370 2195 
Q 3706 1856 3706 1288 
Q 3706 609 3251 259 
Q 2797 -91 1919 -91 
Q 1588 -91 1214 -16 
Q 841 59 441 206 
L 441 856 
Q 825 641 1194 531 
Q 1563 422 1919 422 
Q 2459 422 2753 634 
Q 3047 847 3047 1241 
Q 3047 1584 2836 1778 
Q 2625 1972 2144 2069 
L 1759 2144 
Q 1053 2284 737 2584 
Q 422 2884 422 3419 
Q 422 4038 858 4394 
Q 1294 4750 2059 4750 
Q 2388 4750 2728 4690 
Q 3069 4631 3425 4513 
z
" transform="scale(0.015625)"/>
      </defs>
      <use xlink:href="#DejaVuSans-45"/>
      <use xlink:href="#DejaVuSans-53" transform="translate(63.183594 0)"/>
     </g>
    </g>
    <g id="line2d_30">
     <path d="M 763.137187 57.929531 
L 775.137187 57.929531 
L 787.137187 57.929531 
" style="fill: none; stroke: #ff7f0e; stroke-width: 2.5; stroke-linecap: square"/>
    </g>
    <g id="text_17">
     <!-- GA -->
     <g transform="translate(796.737188 62.129531) scale(0.12 -0.12)">
      <defs>
       <path id="DejaVuSans-47" d="M 3809 666 
L 3809 1919 
L 2778 1919 
L 2778 2438 
L 4434 2438 
L 4434 434 
Q 4069 175 3628 42 
Q 3188 -91 2688 -91 
Q 1594 -91 976 548 
Q 359 1188 359 2328 
Q 359 3472 976 4111 
Q 1594 4750 2688 4750 
Q 3144 4750 3555 4637 
Q 3966 4525 4313 4306 
L 4313 3634 
Q 3963 3931 3569 4081 
Q 3175 4231 2741 4231 
Q 1884 4231 1454 3753 
Q 1025 3275 1025 2328 
Q 1025 1384 1454 906 
Q 1884 428 2741 428 
Q 3075 428 3337 486 
Q 3600 544 3809 666 
z
" transform="scale(0.015625)"/>
       <path id="DejaVuSans-41" d="M 2188 4044 
L 1331 1722 
L 3047 1722 
L 2188 4044 
z
M 1831 4666 
L 2547 4666 
L 4325 0 
L 3669 0 
L 3244 1197 
L 1141 1197 
L 716 0 
L 50 0 
L 1831 4666 
z
" transform="scale(0.015625)"/>
      </defs>
      <use xlink:href="#DejaVuSans-47"/>
      <use xlink:href="#DejaVuSans-41" transform="translate(77.490234 0)"/>
     </g>
    </g>
    <g id="line2d_31">
     <path d="M 763.137187 75.543281 
L 775.137187 75.543281 
L 787.137187 75.543281 
" style="fill: none; stroke: #2ca02c; stroke-width: 2.5; stroke-linecap: square"/>
    </g>
    <g id="text_18">
     <!-- PABBO -->
     <g transform="translate(796.737188 79.743281) scale(0.12 -0.12)">
      <defs>
       <path id="DejaVuSans-4f" d="M 2522 4238 
Q 1834 4238 1429 3725 
Q 1025 3213 1025 2328 
Q 1025 1447 1429 934 
Q 1834 422 2522 422 
Q 3209 422 3611 934 
Q 4013 1447 4013 2328 
Q 4013 3213 3611 3725 
Q 3209 4238 2522 4238 
z
M 2522 4750 
Q 3503 4750 4090 4092 
Q 4678 3434 4678 2328 
Q 4678 1225 4090 567 
Q 3503 -91 2522 -91 
Q 1538 -91 948 565 
Q 359 1222 359 2328 
Q 359 3434 948 4092 
Q 1538 4750 2522 4750 
z
" transform="scale(0.015625)"/>
      </defs>
      <use xlink:href="#DejaVuSans-50"/>
      <use xlink:href="#DejaVuSans-41" transform="translate(53.927734 0)"/>
      <use xlink:href="#DejaVuSans-42" transform="translate(122.335938 0)"/>
      <use xlink:href="#DejaVuSans-42" transform="translate(190.939453 0)"/>
      <use xlink:href="#DejaVuSans-4f" transform="translate(257.792969 0)"/>
     </g>
    </g>
    <g id="line2d_32">
     <path d="M 763.137187 93.157031 
L 775.137187 93.157031 
L 787.137187 93.157031 
" style="fill: none; stroke: #d62728; stroke-width: 2.5; stroke-linecap: square"/>
    </g>
    <g id="text_19">
     <!-- SABBO -->
     <g transform="translate(796.737188 97.357031) scale(0.12 -0.12)">
      <use xlink:href="#DejaVuSans-53"/>
      <use xlink:href="#DejaVuSans-41" transform="translate(65.351562 0)"/>
      <use xlink:href="#DejaVuSans-42" transform="translate(133.759766 0)"/>
      <use xlink:href="#DejaVuSans-42" transform="translate(202.363281 0)"/>
      <use xlink:href="#DejaVuSans-4f" transform="translate(269.216797 0)"/>
     </g>
    </g>
   </g>
  </g>
 </g>
 <defs>
  <clipPath id="p0ce34fb479">
   <rect x="56.231563" y="24.597656" width="793.06" height="502.84"/>
  </clipPath>
 </defs>
</svg>
