<?xml version="1.0" encoding="utf-8" standalone="no"?>
<!DOCTYPE svg PUBLIC "-//W3C//DTD SVG 1.1//EN"
  "http://www.w3.org/Graphics/SVG/1.1/DTD/svg11.dtd">
<svg xmlns:xlink="http://www.w3.org/1999/xlink" width="856.644062pt" height="567.897344pt" viewBox="0 0 856.644062 567.897344" xmlns="http://www.w3.org/2000/svg" version="1.1">
 <metadata>
  <rdf:RDF xmlns:dc="http://purl.org/dc/elements/1.1/" xmlns:cc="http://creativecommons.org/ns#" xmlns:rdf="http://www.w3.org/1999/02/22-rdf-syntax-ns#">
   <cc:Work>
    <dc:type rdf:resource="http://purl.org/dc/dcmitype/StillImage"/>
    <dc:date>2025-11-18T12:26:04.725719</dc:date>
    <dc:format>image/svg+xml</dc:format>
    <dc:creator>
     <cc:Agent>
      <dc:title>Matplotlib v3.10.7, https://matplotlib.org/</dc:title>
     </cc:Agent>
    </dc:creator>
   </cc:Work>
  </rdf:RDF>
 </metadata>
 <defs>
  <style type="text/css">*{stroke-linejoin: round; stroke-linecap: butt}</style>
 </defs>
 <g id="figure_1">
  <g id="patch_1">
   <path d="M -0 567.897344 
L 856.644062 567.897344 
L 856.644062 0 
L -0 0 
z
" style="fill: #ffffff"/>
  </g>
  <g id="axes_1">
   <g id="patch_2">
    <path d="M 62.594063 527.437656 
L 849.444063 527.437656 
L 849.444063 24.597656 
L 62.594063 24.597656 
z
" style="fill: #ffffff"/>
   </g>
   <g id="FillBetweenPolyCollection_1">
    <defs>
     <path id="mbdbbb27602" d="M 98.359972 -500.714724 
L 98.359972 -457.955522 
L 108.158851 -455.88078 
L 117.95773 -453.377206 
L 127.756609 -450.448565 
L 137.555488 -447.122573 
L 147.354368 -443.443748 
L 157.153247 -439.463996 
L 166.952126 -435.209603 
L 176.751005 -431.043047 
L 186.549884 -427.676378 
L 196.348764 -423.785505 
L 206.147643 -420.868393 
L 215.946522 -418.281199 
L 225.745401 -401.665245 
L 235.54428 -397.287215 
L 245.34316 -392.030083 
L 255.142039 -383.616603 
L 264.940918 -375.699122 
L 274.739797 -352.985455 
L 284.538676 -335.186711 
L 294.337556 -312.38349 
L 304.136435 -306.655729 
L 313.935314 -295.981861 
L 323.734193 -291.001928 
L 333.533072 -283.250002 
L 343.331952 -275.584952 
L 353.130831 -260.210438 
L 362.92971 -249.246492 
L 372.728589 -246.363418 
L 382.527468 -249.53509 
L 392.326348 -240.802642 
L 402.125227 -234.720317 
L 411.924106 -232.492536 
L 421.722985 -227.427319 
L 431.521864 -222.516055 
L 441.320744 -220.197594 
L 451.119623 -217.612346 
L 460.918502 -214.450071 
L 470.717381 -211.382239 
L 480.516261 -203.840786 
L 490.31514 -198.566275 
L 500.114019 -195.166052 
L 509.912898 -191.402305 
L 519.711777 -186.391173 
L 529.510657 -182.781097 
L 539.309536 -180.788827 
L 549.108415 -179.49824 
L 558.907294 -179.354351 
L 568.706173 -179.226672 
L 578.505053 -178.393364 
L 588.303932 -178.039198 
L 588.303932 -210.152499 
L 588.303932 -210.152499 
L 578.505053 -210.31562 
L 568.706173 -211.088006 
L 558.907294 -211.309358 
L 549.108415 -211.565612 
L 539.309536 -213.064105 
L 529.510657 -215.901688 
L 519.711777 -218.369874 
L 509.912898 -219.784332 
L 500.114019 -221.802847 
L 490.31514 -226.079806 
L 480.516261 -231.390919 
L 470.717381 -236.064822 
L 460.918502 -243.980949 
L 451.119623 -251.242267 
L 441.320744 -260.082709 
L 431.521864 -267.124372 
L 421.722985 -271.574418 
L 411.924106 -274.301335 
L 402.125227 -285.840995 
L 392.326348 -290.352758 
L 382.527468 -299.610688 
L 372.728589 -322.344592 
L 362.92971 -329.405741 
L 353.130831 -348.306289 
L 343.331952 -363.389575 
L 333.533072 -373.429787 
L 323.734193 -383.675978 
L 313.935314 -389.993804 
L 304.136435 -405.209153 
L 294.337556 -421.582406 
L 284.538676 -430.76374 
L 274.739797 -438.543414 
L 264.940918 -439.870062 
L 255.142039 -446.996371 
L 245.34316 -456.103801 
L 235.54428 -462.333867 
L 225.745401 -469.385489 
L 215.946522 -474.88679 
L 206.147643 -477.869654 
L 196.348764 -480.649938 
L 186.549884 -483.881915 
L 176.751005 -487.805963 
L 166.952126 -489.250964 
L 157.153247 -489.921124 
L 147.354368 -490.822227 
L 137.555488 -492.024256 
L 127.756609 -493.579118 
L 117.95773 -495.531332 
L 108.158851 -497.908612 
L 98.359972 -500.714724 
z
" style="stroke: #1f77b4; stroke-opacity: 0.2"/>
    </defs>
    <g clip-path="url(#p9338a7e052)">
     <use xlink:href="#mbdbbb27602" x="0" y="567.897344" style="fill: #1f77b4; fill-opacity: 0.2; stroke: #1f77b4; stroke-opacity: 0.2"/>
    </g>
   </g>
   <g id="FillBetweenPolyCollection_2">
    <defs>
     <path id="m680a8f6632" d="M 98.359972 -500.714724 
L 98.359972 -457.955522 
L 108.158851 -454.885556 
L 117.95773 -451.663351 
L 127.756609 -448.314836 
L 137.555488 -444.861941 
L 147.354368 -441.322807 
L 157.153247 -437.712246 
L 166.952126 -434.042283 
L 176.751005 -430.322658 
L 186.549884 -426.561277 
L 196.348764 -422.76457 
L 206.147643 -418.937797 
L 215.946522 -415.085281 
L 225.745401 -411.210592 
L 235.54428 -407.316699 
L 245.34316 -403.414585 
L 255.142039 -398.239301 
L 264.940918 -391.481833 
L 274.739797 -383.533719 
L 284.538676 -374.532582 
L 294.337556 -364.647365 
L 304.136435 -356.336268 
L 313.935314 -348.422543 
L 323.734193 -340.808608 
L 333.533072 -333.992084 
L 343.331952 -330.395575 
L 353.130831 -330.557036 
L 362.92971 -327.60145 
L 372.728589 -320.815674 
L 382.527468 -309.503751 
L 392.326348 -290.491603 
L 402.125227 -271.846668 
L 411.924106 -244.840082 
L 421.722985 -225.047561 
L 431.521864 -218.057875 
L 441.320744 -212.611197 
L 451.119623 -206.811796 
L 460.918502 -201.156992 
L 470.717381 -187.66607 
L 480.516261 -165.059199 
L 490.31514 -150.82455 
L 500.114019 -142.661726 
L 509.912898 -136.006244 
L 519.711777 -128.272675 
L 529.510657 -119.403071 
L 539.309536 -112.00242 
L 549.108415 -101.558137 
L 558.907294 -101.024681 
L 568.706173 -101.16168 
L 578.505053 -101.567509 
L 588.303932 -103.198789 
L 598.102811 -100.331166 
L 607.90169 -98.728656 
L 617.700569 -98.444099 
L 627.499449 -97.239044 
L 637.298328 -96.058138 
L 647.097207 -98.677029 
L 656.896086 -98.001159 
L 666.694965 -98.935378 
L 676.493845 -101.369221 
L 686.292724 -102.167999 
L 696.091603 -100.685128 
L 705.890482 -100.828738 
L 715.689361 -102.485458 
L 725.488241 -106.122238 
L 735.28712 -110.283739 
L 745.085999 -113.035932 
L 754.884878 -114.405195 
L 764.683757 -117.216137 
L 774.482637 -119.582793 
L 784.281516 -119.604437 
L 794.080395 -119.597191 
L 803.879274 -119.594767 
L 813.678153 -119.594767 
L 813.678153 -121.72154 
L 813.678153 -121.72154 
L 803.879274 -121.72154 
L 794.080395 -121.731395 
L 784.281516 -121.788358 
L 774.482637 -121.984014 
L 764.683757 -130.251103 
L 754.884878 -138.286666 
L 745.085999 -141.908743 
L 735.28712 -148.377514 
L 725.488241 -160.791245 
L 715.689361 -171.700957 
L 705.890482 -176.337279 
L 696.091603 -177.454353 
L 686.292724 -178.256345 
L 676.493845 -185.299516 
L 666.694965 -192.746353 
L 656.896086 -201.15354 
L 647.097207 -211.123359 
L 637.298328 -217.929316 
L 627.499449 -221.596921 
L 617.700569 -230.393093 
L 607.90169 -242.53589 
L 598.102811 -265.697013 
L 588.303932 -281.022672 
L 578.505053 -294.347322 
L 568.706173 -306.868163 
L 558.907294 -320.117936 
L 549.108415 -327.917744 
L 539.309536 -332.943511 
L 529.510657 -339.771132 
L 519.711777 -348.660339 
L 509.912898 -358.466896 
L 500.114019 -369.05512 
L 490.31514 -378.561955 
L 480.516261 -390.150547 
L 470.717381 -405.724313 
L 460.918502 -414.864839 
L 451.119623 -422.724184 
L 441.320744 -431.628018 
L 431.521864 -436.476408 
L 421.722985 -438.878704 
L 411.924106 -439.140437 
L 402.125227 -439.61428 
L 392.326348 -439.615102 
L 382.527468 -441.973706 
L 372.728589 -448.0582 
L 362.92971 -457.227034 
L 353.130831 -468.766637 
L 343.331952 -480.833317 
L 333.533072 -481.250266 
L 323.734193 -481.589291 
L 313.935314 -482.113582 
L 304.136435 -482.992788 
L 294.337556 -484.216452 
L 284.538676 -485.930111 
L 274.739797 -488.527849 
L 264.940918 -492.17861 
L 255.142039 -497.020017 
L 245.34316 -502.318413 
L 235.54428 -502.068265 
L 225.745401 -501.69475 
L 215.946522 -501.340438 
L 206.147643 -501.008299 
L 196.348764 -500.701903 
L 186.549884 -500.425574 
L 176.751005 -500.184569 
L 166.952126 -499.985322 
L 157.153247 -499.835736 
L 147.354368 -499.745553 
L 137.555488 -499.726796 
L 127.756609 -499.794278 
L 117.95773 -499.96614 
L 108.158851 -500.264313 
L 98.359972 -500.714724 
z
" style="stroke: #ff7f0e; stroke-opacity: 0.2"/>
    </defs>
    <g clip-path="url(#p9338a7e052)">
     <use xlink:href="#m680a8f6632" x="0" y="567.897344" style="fill: #ff7f0e; fill-opacity: 0.2; stroke: #ff7f0e; stroke-opacity: 0.2"/>
    </g>
   </g>
   <g id="FillBetweenPolyCollection_3">
    <defs>
     <path id="m69acf8e742" d="M 98.36024 -500.714724 
L 98.36024 -457.955522 
L 108.159119 -153.266602 
L 117.957998 -153.266602 
L 127.756877 -143.430736 
L 137.555757 -106.590998 
L 147.354636 -87.41853 
L 157.153515 -86.761596 
L 166.952394 -66.223657 
L 176.751273 -66.223657 
L 186.550153 -63.316051 
L 196.349032 -81.155267 
L 206.147911 -81.155267 
L 215.94679 -81.155267 
L 225.745669 -81.155267 
L 235.544549 -81.155267 
L 245.343428 -81.155267 
L 255.142307 -80.969557 
L 264.941186 -80.969557 
L 274.740065 -80.969557 
L 284.538945 -80.969557 
L 294.337824 -80.969557 
L 304.136703 -80.969557 
L 313.935582 -80.969557 
L 323.734461 -80.969557 
L 333.533341 -80.969557 
L 343.33222 -80.969557 
L 353.131099 -80.969557 
L 362.929978 -80.969557 
L 372.728857 -80.969557 
L 382.527737 -104.061772 
L 392.326616 -104.061772 
L 402.125495 -104.061772 
L 411.924374 -104.061772 
L 421.723253 -104.061772 
L 431.522133 -104.061772 
L 441.321012 -120.184471 
L 451.119891 -120.184471 
L 460.91877 -120.184471 
L 470.717649 -120.184471 
L 480.516529 -120.184471 
L 490.315408 -120.184471 
L 500.114287 -120.184471 
L 509.913166 -120.184471 
L 519.712046 -120.184471 
L 529.510925 -120.184471 
L 539.309804 -120.184471 
L 549.108683 -120.184471 
L 558.907562 -120.184471 
L 568.706442 -120.184471 
L 578.505321 -120.184471 
L 578.505321 -123.771172 
L 578.505321 -123.771172 
L 568.706442 -123.771172 
L 558.907562 -123.771172 
L 549.108683 -123.771172 
L 539.309804 -123.771172 
L 529.510925 -123.771172 
L 519.712046 -123.771172 
L 509.913166 -123.771172 
L 500.114287 -123.771172 
L 490.315408 -123.771172 
L 480.516529 -123.771172 
L 470.717649 -123.771172 
L 460.91877 -123.771172 
L 451.119891 -123.771172 
L 441.321012 -123.771172 
L 431.522133 -156.287983 
L 421.723253 -156.287983 
L 411.924374 -156.287983 
L 402.125495 -156.287983 
L 392.326616 -156.287983 
L 382.527737 -156.287983 
L 372.728857 -200.771376 
L 362.929978 -200.771376 
L 353.131099 -200.771376 
L 343.33222 -200.771376 
L 333.533341 -200.771376 
L 323.734461 -200.771376 
L 313.935582 -200.771376 
L 304.136703 -200.771376 
L 294.337824 -200.771376 
L 284.538945 -200.771376 
L 274.740065 -200.771376 
L 264.941186 -200.771376 
L 255.142307 -200.771376 
L 245.343428 -200.868877 
L 235.544549 -200.868877 
L 225.745669 -200.868877 
L 215.94679 -200.868877 
L 206.147911 -200.868877 
L 196.349032 -200.868877 
L 186.550153 -298.655304 
L 176.751273 -372.122514 
L 166.952394 -372.122514 
L 157.153515 -423.838521 
L 147.354636 -423.891732 
L 137.555757 -445.543997 
L 127.756877 -498.776561 
L 117.957998 -520.443324 
L 108.159119 -520.443324 
L 98.36024 -500.714724 
z
" style="stroke: #2ca02c; stroke-opacity: 0.2"/>
    </defs>
    <g clip-path="url(#p9338a7e052)">
     <use xlink:href="#m69acf8e742" x="0" y="567.897344" style="fill: #2ca02c; fill-opacity: 0.2; stroke: #2ca02c; stroke-opacity: 0.2"/>
    </g>
   </g>
   <g id="FillBetweenPolyCollection_4">
    <defs>
     <path id="m451cc66924" d="M 98.359972 -500.714724 
L 98.359972 -457.955522 
L 108.158851 -444.057888 
L 117.95773 -429.095648 
L 127.756609 -412.862232 
L 137.555488 -395.378699 
L 147.354368 -376.877065 
L 157.153247 -357.646679 
L 166.952126 -337.924458 
L 176.751005 -317.873495 
L 186.549884 -297.599396 
L 196.348764 -277.169986 
L 206.147643 -256.629489 
L 215.946522 -236.007427 
L 225.745401 -215.32403 
L 235.54428 -196.941925 
L 245.34316 -185.763587 
L 255.142039 -174.179575 
L 264.940918 -162.234071 
L 274.739797 -149.758297 
L 284.538676 -136.724768 
L 294.337556 -126.74351 
L 304.136435 -119.115361 
L 313.935314 -112.519306 
L 323.734193 -110.199401 
L 333.533072 -110.769829 
L 343.331952 -110.86327 
L 353.130831 -110.330794 
L 362.92971 -110.252816 
L 372.728589 -111.009226 
L 382.527468 -112.122684 
L 392.326348 -114.293044 
L 402.125227 -116.516009 
L 411.924106 -118.672454 
L 421.722985 -119.82018 
L 431.521864 -119.81668 
L 441.320744 -119.812277 
L 451.119623 -119.806958 
L 460.918502 -119.801174 
L 470.717381 -119.801164 
L 480.516261 -119.801153 
L 490.31514 -119.795516 
L 500.114019 -119.787487 
L 509.912898 -119.778485 
L 519.711777 -119.7722 
L 529.510657 -119.764553 
L 539.309536 -119.742128 
L 549.108415 -119.580033 
L 558.907294 -119.481461 
L 568.706173 -119.476323 
L 578.505053 -119.476323 
L 588.303932 -119.476323 
L 598.102811 -119.476323 
L 607.90169 -119.476323 
L 617.700569 -119.476323 
L 627.499449 -119.476323 
L 637.298328 -119.476323 
L 647.097207 -119.476323 
L 656.896086 -119.476323 
L 666.694965 -119.476323 
L 676.493845 -119.476323 
L 686.292724 -119.476323 
L 696.091603 -119.476323 
L 705.890482 -119.476323 
L 715.689361 -119.476323 
L 725.488241 -119.476323 
L 735.28712 -119.476323 
L 745.085999 -119.476323 
L 754.884878 -119.476323 
L 764.683757 -119.476323 
L 774.482637 -119.476323 
L 784.281516 -119.476323 
L 794.080395 -119.476323 
L 803.879274 -119.476323 
L 803.879274 -121.444805 
L 803.879274 -121.444805 
L 794.080395 -121.444805 
L 784.281516 -121.444805 
L 774.482637 -121.444805 
L 764.683757 -121.444805 
L 754.884878 -121.444805 
L 745.085999 -121.444805 
L 735.28712 -121.444805 
L 725.488241 -121.444805 
L 715.689361 -121.444805 
L 705.890482 -121.444805 
L 696.091603 -121.444805 
L 686.292724 -121.444805 
L 676.493845 -121.444805 
L 666.694965 -121.444805 
L 656.896086 -121.444805 
L 647.097207 -121.444805 
L 637.298328 -121.444805 
L 627.499449 -121.444805 
L 617.700569 -121.444805 
L 607.90169 -121.444805 
L 598.102811 -121.444805 
L 588.303932 -121.444805 
L 578.505053 -121.444805 
L 568.706173 -121.444805 
L 558.907294 -121.447666 
L 549.108415 -121.48867 
L 539.309536 -121.815019 
L 529.510657 -121.869053 
L 519.711777 -121.914425 
L 509.912898 -121.921318 
L 500.114019 -121.932887 
L 490.31514 -121.945439 
L 480.516261 -121.956009 
L 470.717381 -121.956009 
L 460.918502 -121.956008 
L 451.119623 -121.969051 
L 441.320744 -121.983965 
L 431.521864 -121.999796 
L 421.722985 -122.016529 
L 411.924106 -124.851978 
L 402.125227 -129.196936 
L 392.326348 -133.608414 
L 382.527468 -138.063126 
L 372.728589 -143.627268 
L 362.92971 -150.345993 
L 353.130831 -158.576507 
L 343.331952 -168.034055 
L 333.533072 -177.993252 
L 323.734193 -188.24374 
L 313.935314 -199.241513 
L 304.136435 -211.457654 
L 294.337556 -224.510449 
L 284.538676 -238.055329 
L 274.739797 -251.72342 
L 264.940918 -265.949264 
L 255.142039 -280.705379 
L 245.34316 -295.898055 
L 235.54428 -311.509691 
L 225.745401 -324.071985 
L 215.946522 -335.640453 
L 206.147643 -347.270255 
L 196.348764 -358.981621 
L 186.549884 -370.804075 
L 176.751005 -382.78184 
L 166.952126 -394.982741 
L 157.153247 -407.512384 
L 147.354368 -420.533861 
L 137.555488 -434.284092 
L 127.756609 -449.052423 
L 117.95773 -465.07087 
L 108.158851 -482.360495 
L 98.359972 -500.714724 
z
" style="stroke: #d62728; stroke-opacity: 0.2"/>
    </defs>
    <g clip-path="url(#p9338a7e052)">
     <use xlink:href="#m451cc66924" x="0" y="567.897344" style="fill: #d62728; fill-opacity: 0.2; stroke: #d62728; stroke-opacity: 0.2"/>
    </g>
   </g>
   <g id="matplotlib.axis_1">
    <g id="xtick_1">
     <g id="line2d_1">
      <path d="M 98.359972 527.437656 
L 98.359972 24.597656 
" clip-path="url(#p9338a7e052)" style="fill: none; stroke-dasharray: 2.96,1.28; stroke-dashoffset: 0; stroke: #b0b0b0; stroke-opacity: 0.3; stroke-width: 0.8"/>
     </g>
     <g id="line2d_2">
      <defs>
       <path id="md1b0d98aea" d="M 0 0 
L 0 3.5 
" style="stroke: #000000; stroke-width: 0.8"/>
      </defs>
      <g>
       <use xlink:href="#md1b0d98aea" x="98.359972" y="527.437656" style="stroke: #000000; stroke-width: 0.8"/>
      </g>
     </g>
     <g id="text_1">
      <!-- 0 -->
      <g transform="translate(95.178722 542.036094) scale(0.1 -0.1)">
       <defs>
        <path id="DejaVuSans-30" d="M 2034 4250 
Q 1547 4250 1301 3770 
Q 1056 3291 1056 2328 
Q 1056 1369 1301 889 
Q 1547 409 2034 409 
Q 2525 409 2770 889 
Q 3016 1369 3016 2328 
Q 3016 3291 2770 3770 
Q 2525 4250 2034 4250 
z
M 2034 4750 
Q 2819 4750 3233 4129 
Q 3647 3509 3647 2328 
Q 3647 1150 3233 529 
Q 2819 -91 2034 -91 
Q 1250 -91 836 529 
Q 422 1150 422 2328 
Q 422 3509 836 4129 
Q 1250 4750 2034 4750 
z
" transform="scale(0.015625)"/>
       </defs>
       <use xlink:href="#DejaVuSans-30"/>
      </g>
     </g>
    </g>
    <g id="xtick_2">
     <g id="line2d_3">
      <path d="M 196.348764 527.437656 
L 196.348764 24.597656 
" clip-path="url(#p9338a7e052)" style="fill: none; stroke-dasharray: 2.96,1.28; stroke-dashoffset: 0; stroke: #b0b0b0; stroke-opacity: 0.3; stroke-width: 0.8"/>
     </g>
     <g id="line2d_4">
      <g>
       <use xlink:href="#md1b0d98aea" x="196.348764" y="527.437656" style="stroke: #000000; stroke-width: 0.8"/>
      </g>
     </g>
     <g id="text_2">
      <!-- 100 -->
      <g transform="translate(186.805014 542.036094) scale(0.1 -0.1)">
       <defs>
        <path id="DejaVuSans-31" d="M 794 531 
L 1825 531 
L 1825 4091 
L 703 3866 
L 703 4441 
L 1819 4666 
L 2450 4666 
L 2450 531 
L 3481 531 
L 3481 0 
L 794 0 
L 794 531 
z
" transform="scale(0.015625)"/>
       </defs>
       <use xlink:href="#DejaVuSans-31"/>
       <use xlink:href="#DejaVuSans-30" transform="translate(63.623047 0)"/>
       <use xlink:href="#DejaVuSans-30" transform="translate(127.246094 0)"/>
      </g>
     </g>
    </g>
    <g id="xtick_3">
     <g id="line2d_5">
      <path d="M 294.337556 527.437656 
L 294.337556 24.597656 
" clip-path="url(#p9338a7e052)" style="fill: none; stroke-dasharray: 2.96,1.28; stroke-dashoffset: 0; stroke: #b0b0b0; stroke-opacity: 0.3; stroke-width: 0.8"/>
     </g>
     <g id="line2d_6">
      <g>
       <use xlink:href="#md1b0d98aea" x="294.337556" y="527.437656" style="stroke: #000000; stroke-width: 0.8"/>
      </g>
     </g>
     <g id="text_3">
      <!-- 200 -->
      <g transform="translate(284.793806 542.036094) scale(0.1 -0.1)">
       <defs>
        <path id="DejaVuSans-32" d="M 1228 531 
L 3431 531 
L 3431 0 
L 469 0 
L 469 531 
Q 828 903 1448 1529 
Q 2069 2156 2228 2338 
Q 2531 2678 2651 2914 
Q 2772 3150 2772 3378 
Q 2772 3750 2511 3984 
Q 2250 4219 1831 4219 
Q 1534 4219 1204 4116 
Q 875 4013 500 3803 
L 500 4441 
Q 881 4594 1212 4672 
Q 1544 4750 1819 4750 
Q 2544 4750 2975 4387 
Q 3406 4025 3406 3419 
Q 3406 3131 3298 2873 
Q 3191 2616 2906 2266 
Q 2828 2175 2409 1742 
Q 1991 1309 1228 531 
z
" transform="scale(0.015625)"/>
       </defs>
       <use xlink:href="#DejaVuSans-32"/>
       <use xlink:href="#DejaVuSans-30" transform="translate(63.623047 0)"/>
       <use xlink:href="#DejaVuSans-30" transform="translate(127.246094 0)"/>
      </g>
     </g>
    </g>
    <g id="xtick_4">
     <g id="line2d_7">
      <path d="M 392.326348 527.437656 
L 392.326348 24.597656 
" clip-path="url(#p9338a7e052)" style="fill: none; stroke-dasharray: 2.96,1.28; stroke-dashoffset: 0; stroke: #b0b0b0; stroke-opacity: 0.3; stroke-width: 0.8"/>
     </g>
     <g id="line2d_8">
      <g>
       <use xlink:href="#md1b0d98aea" x="392.326348" y="527.437656" style="stroke: #000000; stroke-width: 0.8"/>
      </g>
     </g>
     <g id="text_4">
      <!-- 300 -->
      <g transform="translate(382.782598 542.036094) scale(0.1 -0.1)">
       <defs>
        <path id="DejaVuSans-33" d="M 2597 2516 
Q 3050 2419 3304 2112 
Q 3559 1806 3559 1356 
Q 3559 666 3084 287 
Q 2609 -91 1734 -91 
Q 1441 -91 1130 -33 
Q 819 25 488 141 
L 488 750 
Q 750 597 1062 519 
Q 1375 441 1716 441 
Q 2309 441 2620 675 
Q 2931 909 2931 1356 
Q 2931 1769 2642 2001 
Q 2353 2234 1838 2234 
L 1294 2234 
L 1294 2753 
L 1863 2753 
Q 2328 2753 2575 2939 
Q 2822 3125 2822 3475 
Q 2822 3834 2567 4026 
Q 2313 4219 1838 4219 
Q 1578 4219 1281 4162 
Q 984 4106 628 3988 
L 628 4550 
Q 988 4650 1302 4700 
Q 1616 4750 1894 4750 
Q 2613 4750 3031 4423 
Q 3450 4097 3450 3541 
Q 3450 3153 3228 2886 
Q 3006 2619 2597 2516 
z
" transform="scale(0.015625)"/>
       </defs>
       <use xlink:href="#DejaVuSans-33"/>
       <use xlink:href="#DejaVuSans-30" transform="translate(63.623047 0)"/>
       <use xlink:href="#DejaVuSans-30" transform="translate(127.246094 0)"/>
      </g>
     </g>
    </g>
    <g id="xtick_5">
     <g id="line2d_9">
      <path d="M 490.31514 527.437656 
L 490.31514 24.597656 
" clip-path="url(#p9338a7e052)" style="fill: none; stroke-dasharray: 2.96,1.28; stroke-dashoffset: 0; stroke: #b0b0b0; stroke-opacity: 0.3; stroke-width: 0.8"/>
     </g>
     <g id="line2d_10">
      <g>
       <use xlink:href="#md1b0d98aea" x="490.31514" y="527.437656" style="stroke: #000000; stroke-width: 0.8"/>
      </g>
     </g>
     <g id="text_5">
      <!-- 400 -->
      <g transform="translate(480.77139 542.036094) scale(0.1 -0.1)">
       <defs>
        <path id="DejaVuSans-34" d="M 2419 4116 
L 825 1625 
L 2419 1625 
L 2419 4116 
z
M 2253 4666 
L 3047 4666 
L 3047 1625 
L 3713 1625 
L 3713 1100 
L 3047 1100 
L 3047 0 
L 2419 0 
L 2419 1100 
L 313 1100 
L 313 1709 
L 2253 4666 
z
" transform="scale(0.015625)"/>
       </defs>
       <use xlink:href="#DejaVuSans-34"/>
       <use xlink:href="#DejaVuSans-30" transform="translate(63.623047 0)"/>
       <use xlink:href="#DejaVuSans-30" transform="translate(127.246094 0)"/>
      </g>
     </g>
    </g>
    <g id="xtick_6">
     <g id="line2d_11">
      <path d="M 588.303932 527.437656 
L 588.303932 24.597656 
" clip-path="url(#p9338a7e052)" style="fill: none; stroke-dasharray: 2.96,1.28; stroke-dashoffset: 0; stroke: #b0b0b0; stroke-opacity: 0.3; stroke-width: 0.8"/>
     </g>
     <g id="line2d_12">
      <g>
       <use xlink:href="#md1b0d98aea" x="588.303932" y="527.437656" style="stroke: #000000; stroke-width: 0.8"/>
      </g>
     </g>
     <g id="text_6">
      <!-- 500 -->
      <g transform="translate(578.760182 542.036094) scale(0.1 -0.1)">
       <defs>
        <path id="DejaVuSans-35" d="M 691 4666 
L 3169 4666 
L 3169 4134 
L 1269 4134 
L 1269 2991 
Q 1406 3038 1543 3061 
Q 1681 3084 1819 3084 
Q 2600 3084 3056 2656 
Q 3513 2228 3513 1497 
Q 3513 744 3044 326 
Q 2575 -91 1722 -91 
Q 1428 -91 1123 -41 
Q 819 9 494 109 
L 494 744 
Q 775 591 1075 516 
Q 1375 441 1709 441 
Q 2250 441 2565 725 
Q 2881 1009 2881 1497 
Q 2881 1984 2565 2268 
Q 2250 2553 1709 2553 
Q 1456 2553 1204 2497 
Q 953 2441 691 2322 
L 691 4666 
z
" transform="scale(0.015625)"/>
       </defs>
       <use xlink:href="#DejaVuSans-35"/>
       <use xlink:href="#DejaVuSans-30" transform="translate(63.623047 0)"/>
       <use xlink:href="#DejaVuSans-30" transform="translate(127.246094 0)"/>
      </g>
     </g>
    </g>
    <g id="xtick_7">
     <g id="line2d_13">
      <path d="M 686.292724 527.437656 
L 686.292724 24.597656 
" clip-path="url(#p9338a7e052)" style="fill: none; stroke-dasharray: 2.96,1.28; stroke-dashoffset: 0; stroke: #b0b0b0; stroke-opacity: 0.3; stroke-width: 0.8"/>
     </g>
     <g id="line2d_14">
      <g>
       <use xlink:href="#md1b0d98aea" x="686.292724" y="527.437656" style="stroke: #000000; stroke-width: 0.8"/>
      </g>
     </g>
     <g id="text_7">
      <!-- 600 -->
      <g transform="translate(676.748974 542.036094) scale(0.1 -0.1)">
       <defs>
        <path id="DejaVuSans-36" d="M 2113 2584 
Q 1688 2584 1439 2293 
Q 1191 2003 1191 1497 
Q 1191 994 1439 701 
Q 1688 409 2113 409 
Q 2538 409 2786 701 
Q 3034 994 3034 1497 
Q 3034 2003 2786 2293 
Q 2538 2584 2113 2584 
z
M 3366 4563 
L 3366 3988 
Q 3128 4100 2886 4159 
Q 2644 4219 2406 4219 
Q 1781 4219 1451 3797 
Q 1122 3375 1075 2522 
Q 1259 2794 1537 2939 
Q 1816 3084 2150 3084 
Q 2853 3084 3261 2657 
Q 3669 2231 3669 1497 
Q 3669 778 3244 343 
Q 2819 -91 2113 -91 
Q 1303 -91 875 529 
Q 447 1150 447 2328 
Q 447 3434 972 4092 
Q 1497 4750 2381 4750 
Q 2619 4750 2861 4703 
Q 3103 4656 3366 4563 
z
" transform="scale(0.015625)"/>
       </defs>
       <use xlink:href="#DejaVuSans-36"/>
       <use xlink:href="#DejaVuSans-30" transform="translate(63.623047 0)"/>
       <use xlink:href="#DejaVuSans-30" transform="translate(127.246094 0)"/>
      </g>
     </g>
    </g>
    <g id="xtick_8">
     <g id="line2d_15">
      <path d="M 784.281516 527.437656 
L 784.281516 24.597656 
" clip-path="url(#p9338a7e052)" style="fill: none; stroke-dasharray: 2.96,1.28; stroke-dashoffset: 0; stroke: #b0b0b0; stroke-opacity: 0.3; stroke-width: 0.8"/>
     </g>
     <g id="line2d_16">
      <g>
       <use xlink:href="#md1b0d98aea" x="784.281516" y="527.437656" style="stroke: #000000; stroke-width: 0.8"/>
      </g>
     </g>
     <g id="text_8">
      <!-- 700 -->
      <g transform="translate(774.737766 542.036094) scale(0.1 -0.1)">
       <defs>
        <path id="DejaVuSans-37" d="M 525 4666 
L 3525 4666 
L 3525 4397 
L 1831 0 
L 1172 0 
L 2766 4134 
L 525 4134 
L 525 4666 
z
" transform="scale(0.015625)"/>
       </defs>
       <use xlink:href="#DejaVuSans-37"/>
       <use xlink:href="#DejaVuSans-30" transform="translate(63.623047 0)"/>
       <use xlink:href="#DejaVuSans-30" transform="translate(127.246094 0)"/>
      </g>
     </g>
    </g>
    <g id="text_9">
     <!-- Time (seconds) -->
     <g transform="translate(406.408828 557.99375) scale(0.13 -0.13)">
      <defs>
       <path id="DejaVuSans-54" d="M -19 4666 
L 3928 4666 
L 3928 4134 
L 2272 4134 
L 2272 0 
L 1638 0 
L 1638 4134 
L -19 4134 
L -19 4666 
z
" transform="scale(0.015625)"/>
       <path id="DejaVuSans-69" d="M 603 3500 
L 1178 3500 
L 1178 0 
L 603 0 
L 603 3500 
z
M 603 4863 
L 1178 4863 
L 1178 4134 
L 603 4134 
L 603 4863 
z
" transform="scale(0.015625)"/>
       <path id="DejaVuSans-6d" d="M 3328 2828 
Q 3544 3216 3844 3400 
Q 4144 3584 4550 3584 
Q 5097 3584 5394 3201 
Q 5691 2819 5691 2113 
L 5691 0 
L 5113 0 
L 5113 2094 
Q 5113 2597 4934 2840 
Q 4756 3084 4391 3084 
Q 3944 3084 3684 2787 
Q 3425 2491 3425 1978 
L 3425 0 
L 2847 0 
L 2847 2094 
Q 2847 2600 2669 2842 
Q 2491 3084 2119 3084 
Q 1678 3084 1418 2786 
Q 1159 2488 1159 1978 
L 1159 0 
L 581 0 
L 581 3500 
L 1159 3500 
L 1159 2956 
Q 1356 3278 1631 3431 
Q 1906 3584 2284 3584 
Q 2666 3584 2933 3390 
Q 3200 3197 3328 2828 
z
" transform="scale(0.015625)"/>
       <path id="DejaVuSans-65" d="M 3597 1894 
L 3597 1613 
L 953 1613 
Q 991 1019 1311 708 
Q 1631 397 2203 397 
Q 2534 397 2845 478 
Q 3156 559 3463 722 
L 3463 178 
Q 3153 47 2828 -22 
Q 2503 -91 2169 -91 
Q 1331 -91 842 396 
Q 353 884 353 1716 
Q 353 2575 817 3079 
Q 1281 3584 2069 3584 
Q 2775 3584 3186 3129 
Q 3597 2675 3597 1894 
z
M 3022 2063 
Q 3016 2534 2758 2815 
Q 2500 3097 2075 3097 
Q 1594 3097 1305 2825 
Q 1016 2553 972 2059 
L 3022 2063 
z
" transform="scale(0.015625)"/>
       <path id="DejaVuSans-20" transform="scale(0.015625)"/>
       <path id="DejaVuSans-28" d="M 1984 4856 
Q 1566 4138 1362 3434 
Q 1159 2731 1159 2009 
Q 1159 1288 1364 580 
Q 1569 -128 1984 -844 
L 1484 -844 
Q 1016 -109 783 600 
Q 550 1309 550 2009 
Q 550 2706 781 3412 
Q 1013 4119 1484 4856 
L 1984 4856 
z
" transform="scale(0.015625)"/>
       <path id="DejaVuSans-73" d="M 2834 3397 
L 2834 2853 
Q 2591 2978 2328 3040 
Q 2066 3103 1784 3103 
Q 1356 3103 1142 2972 
Q 928 2841 928 2578 
Q 928 2378 1081 2264 
Q 1234 2150 1697 2047 
L 1894 2003 
Q 2506 1872 2764 1633 
Q 3022 1394 3022 966 
Q 3022 478 2636 193 
Q 2250 -91 1575 -91 
Q 1294 -91 989 -36 
Q 684 19 347 128 
L 347 722 
Q 666 556 975 473 
Q 1284 391 1588 391 
Q 1994 391 2212 530 
Q 2431 669 2431 922 
Q 2431 1156 2273 1281 
Q 2116 1406 1581 1522 
L 1381 1569 
Q 847 1681 609 1914 
Q 372 2147 372 2553 
Q 372 3047 722 3315 
Q 1072 3584 1716 3584 
Q 2034 3584 2315 3537 
Q 2597 3491 2834 3397 
z
" transform="scale(0.015625)"/>
       <path id="DejaVuSans-63" d="M 3122 3366 
L 3122 2828 
Q 2878 2963 2633 3030 
Q 2388 3097 2138 3097 
Q 1578 3097 1268 2742 
Q 959 2388 959 1747 
Q 959 1106 1268 751 
Q 1578 397 2138 397 
Q 2388 397 2633 464 
Q 2878 531 3122 666 
L 3122 134 
Q 2881 22 2623 -34 
Q 2366 -91 2075 -91 
Q 1284 -91 818 406 
Q 353 903 353 1747 
Q 353 2603 823 3093 
Q 1294 3584 2113 3584 
Q 2378 3584 2631 3529 
Q 2884 3475 3122 3366 
z
" transform="scale(0.015625)"/>
       <path id="DejaVuSans-6f" d="M 1959 3097 
Q 1497 3097 1228 2736 
Q 959 2375 959 1747 
Q 959 1119 1226 758 
Q 1494 397 1959 397 
Q 2419 397 2687 759 
Q 2956 1122 2956 1747 
Q 2956 2369 2687 2733 
Q 2419 3097 1959 3097 
z
M 1959 3584 
Q 2709 3584 3137 3096 
Q 3566 2609 3566 1747 
Q 3566 888 3137 398 
Q 2709 -91 1959 -91 
Q 1206 -91 779 398 
Q 353 888 353 1747 
Q 353 2609 779 3096 
Q 1206 3584 1959 3584 
z
" transform="scale(0.015625)"/>
       <path id="DejaVuSans-6e" d="M 3513 2113 
L 3513 0 
L 2938 0 
L 2938 2094 
Q 2938 2591 2744 2837 
Q 2550 3084 2163 3084 
Q 1697 3084 1428 2787 
Q 1159 2491 1159 1978 
L 1159 0 
L 581 0 
L 581 3500 
L 1159 3500 
L 1159 2956 
Q 1366 3272 1645 3428 
Q 1925 3584 2291 3584 
Q 2894 3584 3203 3211 
Q 3513 2838 3513 2113 
z
" transform="scale(0.015625)"/>
       <path id="DejaVuSans-64" d="M 2906 2969 
L 2906 4863 
L 3481 4863 
L 3481 0 
L 2906 0 
L 2906 525 
Q 2725 213 2448 61 
Q 2172 -91 1784 -91 
Q 1150 -91 751 415 
Q 353 922 353 1747 
Q 353 2572 751 3078 
Q 1150 3584 1784 3584 
Q 2172 3584 2448 3432 
Q 2725 3281 2906 2969 
z
M 947 1747 
Q 947 1113 1208 752 
Q 1469 391 1925 391 
Q 2381 391 2643 752 
Q 2906 1113 2906 1747 
Q 2906 2381 2643 2742 
Q 2381 3103 1925 3103 
Q 1469 3103 1208 2742 
Q 947 2381 947 1747 
z
" transform="scale(0.015625)"/>
       <path id="DejaVuSans-29" d="M 513 4856 
L 1013 4856 
Q 1481 4119 1714 3412 
Q 1947 2706 1947 2009 
Q 1947 1309 1714 600 
Q 1481 -109 1013 -844 
L 513 -844 
Q 928 -128 1133 580 
Q 1338 1288 1338 2009 
Q 1338 2731 1133 3434 
Q 928 4138 513 4856 
z
" transform="scale(0.015625)"/>
      </defs>
      <use xlink:href="#DejaVuSans-54"/>
      <use xlink:href="#DejaVuSans-69" transform="translate(57.958984 0)"/>
      <use xlink:href="#DejaVuSans-6d" transform="translate(85.742188 0)"/>
      <use xlink:href="#DejaVuSans-65" transform="translate(183.154297 0)"/>
      <use xlink:href="#DejaVuSans-20" transform="translate(244.677734 0)"/>
      <use xlink:href="#DejaVuSans-28" transform="translate(276.464844 0)"/>
      <use xlink:href="#DejaVuSans-73" transform="translate(315.478516 0)"/>
      <use xlink:href="#DejaVuSans-65" transform="translate(367.578125 0)"/>
      <use xlink:href="#DejaVuSans-63" transform="translate(429.101562 0)"/>
      <use xlink:href="#DejaVuSans-6f" transform="translate(484.082031 0)"/>
      <use xlink:href="#DejaVuSans-6e" transform="translate(545.263672 0)"/>
      <use xlink:href="#DejaVuSans-64" transform="translate(608.642578 0)"/>
      <use xlink:href="#DejaVuSans-73" transform="translate(672.119141 0)"/>
      <use xlink:href="#DejaVuSans-29" transform="translate(724.21875 0)"/>
     </g>
    </g>
   </g>
   <g id="matplotlib.axis_2">
    <g id="ytick_1">
     <g id="line2d_17">
      <path d="M 62.594063 454.157774 
L 849.444063 454.157774 
" clip-path="url(#p9338a7e052)" style="fill: none; stroke-dasharray: 2.96,1.28; stroke-dashoffset: 0; stroke: #b0b0b0; stroke-opacity: 0.3; stroke-width: 0.8"/>
     </g>
     <g id="line2d_18">
      <defs>
       <path id="ma8a35e01cb" d="M 0 0 
L -3.5 0 
" style="stroke: #000000; stroke-width: 0.8"/>
      </defs>
      <g>
       <use xlink:href="#ma8a35e01cb" x="62.594063" y="454.157774" style="stroke: #000000; stroke-width: 0.8"/>
      </g>
     </g>
     <g id="text_10">
      <!-- 2000 -->
      <g transform="translate(30.144063 457.956993) scale(0.1 -0.1)">
       <use xlink:href="#DejaVuSans-32"/>
       <use xlink:href="#DejaVuSans-30" transform="translate(63.623047 0)"/>
       <use xlink:href="#DejaVuSans-30" transform="translate(127.246094 0)"/>
       <use xlink:href="#DejaVuSans-30" transform="translate(190.869141 0)"/>
      </g>
     </g>
    </g>
    <g id="ytick_2">
     <g id="line2d_19">
      <path d="M 62.594063 364.87646 
L 849.444063 364.87646 
" clip-path="url(#p9338a7e052)" style="fill: none; stroke-dasharray: 2.96,1.28; stroke-dashoffset: 0; stroke: #b0b0b0; stroke-opacity: 0.3; stroke-width: 0.8"/>
     </g>
     <g id="line2d_20">
      <g>
       <use xlink:href="#ma8a35e01cb" x="62.594063" y="364.87646" style="stroke: #000000; stroke-width: 0.8"/>
      </g>
     </g>
     <g id="text_11">
      <!-- 4000 -->
      <g transform="translate(30.144063 368.675679) scale(0.1 -0.1)">
       <use xlink:href="#DejaVuSans-34"/>
       <use xlink:href="#DejaVuSans-30" transform="translate(63.623047 0)"/>
       <use xlink:href="#DejaVuSans-30" transform="translate(127.246094 0)"/>
       <use xlink:href="#DejaVuSans-30" transform="translate(190.869141 0)"/>
      </g>
     </g>
    </g>
    <g id="ytick_3">
     <g id="line2d_21">
      <path d="M 62.594063 275.595147 
L 849.444063 275.595147 
" clip-path="url(#p9338a7e052)" style="fill: none; stroke-dasharray: 2.96,1.28; stroke-dashoffset: 0; stroke: #b0b0b0; stroke-opacity: 0.3; stroke-width: 0.8"/>
     </g>
     <g id="line2d_22">
      <g>
       <use xlink:href="#ma8a35e01cb" x="62.594063" y="275.595147" style="stroke: #000000; stroke-width: 0.8"/>
      </g>
     </g>
     <g id="text_12">
      <!-- 6000 -->
      <g transform="translate(30.144063 279.394366) scale(0.1 -0.1)">
       <use xlink:href="#DejaVuSans-36"/>
       <use xlink:href="#DejaVuSans-30" transform="translate(63.623047 0)"/>
       <use xlink:href="#DejaVuSans-30" transform="translate(127.246094 0)"/>
       <use xlink:href="#DejaVuSans-30" transform="translate(190.869141 0)"/>
      </g>
     </g>
    </g>
    <g id="ytick_4">
     <g id="line2d_23">
      <path d="M 62.594063 186.313834 
L 849.444063 186.313834 
" clip-path="url(#p9338a7e052)" style="fill: none; stroke-dasharray: 2.96,1.28; stroke-dashoffset: 0; stroke: #b0b0b0; stroke-opacity: 0.3; stroke-width: 0.8"/>
     </g>
     <g id="line2d_24">
      <g>
       <use xlink:href="#ma8a35e01cb" x="62.594063" y="186.313834" style="stroke: #000000; stroke-width: 0.8"/>
      </g>
     </g>
     <g id="text_13">
      <!-- 8000 -->
      <g transform="translate(30.144063 190.113052) scale(0.1 -0.1)">
       <defs>
        <path id="DejaVuSans-38" d="M 2034 2216 
Q 1584 2216 1326 1975 
Q 1069 1734 1069 1313 
Q 1069 891 1326 650 
Q 1584 409 2034 409 
Q 2484 409 2743 651 
Q 3003 894 3003 1313 
Q 3003 1734 2745 1975 
Q 2488 2216 2034 2216 
z
M 1403 2484 
Q 997 2584 770 2862 
Q 544 3141 544 3541 
Q 544 4100 942 4425 
Q 1341 4750 2034 4750 
Q 2731 4750 3128 4425 
Q 3525 4100 3525 3541 
Q 3525 3141 3298 2862 
Q 3072 2584 2669 2484 
Q 3125 2378 3379 2068 
Q 3634 1759 3634 1313 
Q 3634 634 3220 271 
Q 2806 -91 2034 -91 
Q 1263 -91 848 271 
Q 434 634 434 1313 
Q 434 1759 690 2068 
Q 947 2378 1403 2484 
z
M 1172 3481 
Q 1172 3119 1398 2916 
Q 1625 2713 2034 2713 
Q 2441 2713 2670 2916 
Q 2900 3119 2900 3481 
Q 2900 3844 2670 4047 
Q 2441 4250 2034 4250 
Q 1625 4250 1398 4047 
Q 1172 3844 1172 3481 
z
" transform="scale(0.015625)"/>
       </defs>
       <use xlink:href="#DejaVuSans-38"/>
       <use xlink:href="#DejaVuSans-30" transform="translate(63.623047 0)"/>
       <use xlink:href="#DejaVuSans-30" transform="translate(127.246094 0)"/>
       <use xlink:href="#DejaVuSans-30" transform="translate(190.869141 0)"/>
      </g>
     </g>
    </g>
    <g id="ytick_5">
     <g id="line2d_25">
      <path d="M 62.594063 97.03252 
L 849.444063 97.03252 
" clip-path="url(#p9338a7e052)" style="fill: none; stroke-dasharray: 2.96,1.28; stroke-dashoffset: 0; stroke: #b0b0b0; stroke-opacity: 0.3; stroke-width: 0.8"/>
     </g>
     <g id="line2d_26">
      <g>
       <use xlink:href="#ma8a35e01cb" x="62.594063" y="97.03252" style="stroke: #000000; stroke-width: 0.8"/>
      </g>
     </g>
     <g id="text_14">
      <!-- 10000 -->
      <g transform="translate(23.781563 100.831739) scale(0.1 -0.1)">
       <use xlink:href="#DejaVuSans-31"/>
       <use xlink:href="#DejaVuSans-30" transform="translate(63.623047 0)"/>
       <use xlink:href="#DejaVuSans-30" transform="translate(127.246094 0)"/>
       <use xlink:href="#DejaVuSans-30" transform="translate(190.869141 0)"/>
       <use xlink:href="#DejaVuSans-30" transform="translate(254.492188 0)"/>
      </g>
     </g>
    </g>
    <g id="text_15">
     <!-- Best Perplexity -->
     <g transform="translate(17.077969 324.698594) rotate(-90) scale(0.13 -0.13)">
      <defs>
       <path id="DejaVuSans-42" d="M 1259 2228 
L 1259 519 
L 2272 519 
Q 2781 519 3026 730 
Q 3272 941 3272 1375 
Q 3272 1813 3026 2020 
Q 2781 2228 2272 2228 
L 1259 2228 
z
M 1259 4147 
L 1259 2741 
L 2194 2741 
Q 2656 2741 2882 2914 
Q 3109 3088 3109 3444 
Q 3109 3797 2882 3972 
Q 2656 4147 2194 4147 
L 1259 4147 
z
M 628 4666 
L 2241 4666 
Q 2963 4666 3353 4366 
Q 3744 4066 3744 3513 
Q 3744 3084 3544 2831 
Q 3344 2578 2956 2516 
Q 3422 2416 3680 2098 
Q 3938 1781 3938 1306 
Q 3938 681 3513 340 
Q 3088 0 2303 0 
L 628 0 
L 628 4666 
z
" transform="scale(0.015625)"/>
       <path id="DejaVuSans-74" d="M 1172 4494 
L 1172 3500 
L 2356 3500 
L 2356 3053 
L 1172 3053 
L 1172 1153 
Q 1172 725 1289 603 
Q 1406 481 1766 481 
L 2356 481 
L 2356 0 
L 1766 0 
Q 1100 0 847 248 
Q 594 497 594 1153 
L 594 3053 
L 172 3053 
L 172 3500 
L 594 3500 
L 594 4494 
L 1172 4494 
z
" transform="scale(0.015625)"/>
       <path id="DejaVuSans-50" d="M 1259 4147 
L 1259 2394 
L 2053 2394 
Q 2494 2394 2734 2622 
Q 2975 2850 2975 3272 
Q 2975 3691 2734 3919 
Q 2494 4147 2053 4147 
L 1259 4147 
z
M 628 4666 
L 2053 4666 
Q 2838 4666 3239 4311 
Q 3641 3956 3641 3272 
Q 3641 2581 3239 2228 
Q 2838 1875 2053 1875 
L 1259 1875 
L 1259 0 
L 628 0 
L 628 4666 
z
" transform="scale(0.015625)"/>
       <path id="DejaVuSans-72" d="M 2631 2963 
Q 2534 3019 2420 3045 
Q 2306 3072 2169 3072 
Q 1681 3072 1420 2755 
Q 1159 2438 1159 1844 
L 1159 0 
L 581 0 
L 581 3500 
L 1159 3500 
L 1159 2956 
Q 1341 3275 1631 3429 
Q 1922 3584 2338 3584 
Q 2397 3584 2469 3576 
Q 2541 3569 2628 3553 
L 2631 2963 
z
" transform="scale(0.015625)"/>
       <path id="DejaVuSans-70" d="M 1159 525 
L 1159 -1331 
L 581 -1331 
L 581 3500 
L 1159 3500 
L 1159 2969 
Q 1341 3281 1617 3432 
Q 1894 3584 2278 3584 
Q 2916 3584 3314 3078 
Q 3713 2572 3713 1747 
Q 3713 922 3314 415 
Q 2916 -91 2278 -91 
Q 1894 -91 1617 61 
Q 1341 213 1159 525 
z
M 3116 1747 
Q 3116 2381 2855 2742 
Q 2594 3103 2138 3103 
Q 1681 3103 1420 2742 
Q 1159 2381 1159 1747 
Q 1159 1113 1420 752 
Q 1681 391 2138 391 
Q 2594 391 2855 752 
Q 3116 1113 3116 1747 
z
" transform="scale(0.015625)"/>
       <path id="DejaVuSans-6c" d="M 603 4863 
L 1178 4863 
L 1178 0 
L 603 0 
L 603 4863 
z
" transform="scale(0.015625)"/>
       <path id="DejaVuSans-78" d="M 3513 3500 
L 2247 1797 
L 3578 0 
L 2900 0 
L 1881 1375 
L 863 0 
L 184 0 
L 1544 1831 
L 300 3500 
L 978 3500 
L 1906 2253 
L 2834 3500 
L 3513 3500 
z
" transform="scale(0.015625)"/>
       <path id="DejaVuSans-79" d="M 2059 -325 
Q 1816 -950 1584 -1140 
Q 1353 -1331 966 -1331 
L 506 -1331 
L 506 -850 
L 844 -850 
Q 1081 -850 1212 -737 
Q 1344 -625 1503 -206 
L 1606 56 
L 191 3500 
L 800 3500 
L 1894 763 
L 2988 3500 
L 3597 3500 
L 2059 -325 
z
" transform="scale(0.015625)"/>
      </defs>
      <use xlink:href="#DejaVuSans-42"/>
      <use xlink:href="#DejaVuSans-65" transform="translate(68.603516 0)"/>
      <use xlink:href="#DejaVuSans-73" transform="translate(130.126953 0)"/>
      <use xlink:href="#DejaVuSans-74" transform="translate(182.226562 0)"/>
      <use xlink:href="#DejaVuSans-20" transform="translate(221.435547 0)"/>
      <use xlink:href="#DejaVuSans-50" transform="translate(253.222656 0)"/>
      <use xlink:href="#DejaVuSans-65" transform="translate(309.900391 0)"/>
      <use xlink:href="#DejaVuSans-72" transform="translate(371.423828 0)"/>
      <use xlink:href="#DejaVuSans-70" transform="translate(412.537109 0)"/>
      <use xlink:href="#DejaVuSans-6c" transform="translate(476.013672 0)"/>
      <use xlink:href="#DejaVuSans-65" transform="translate(503.796875 0)"/>
      <use xlink:href="#DejaVuSans-78" transform="translate(563.570312 0)"/>
      <use xlink:href="#DejaVuSans-69" transform="translate(622.75 0)"/>
      <use xlink:href="#DejaVuSans-74" transform="translate(650.533203 0)"/>
      <use xlink:href="#DejaVuSans-79" transform="translate(689.742188 0)"/>
     </g>
    </g>
   </g>
   <g id="line2d_27">
    <path d="M 98.359972 88.562221 
L 108.158851 91.002648 
L 117.95773 93.443075 
L 127.756609 95.883502 
L 137.555488 98.323929 
L 147.354368 100.764357 
L 157.153247 103.204784 
L 166.952126 105.66706 
L 176.751005 108.472839 
L 186.549884 112.118197 
L 196.348764 115.679622 
L 206.147643 118.52832 
L 215.946522 121.313349 
L 225.745401 132.371977 
L 235.54428 138.086803 
L 245.34316 143.830402 
L 255.142039 152.590856 
L 264.940918 160.112752 
L 274.739797 172.132909 
L 284.538676 184.922118 
L 294.337556 200.914396 
L 304.136435 211.964903 
L 313.935314 224.909511 
L 323.734193 230.55839 
L 333.533072 239.557449 
L 343.331952 248.410081 
L 353.130831 263.63898 
L 362.92971 278.571227 
L 372.728589 283.543338 
L 382.527468 293.324455 
L 392.326348 302.319644 
L 402.125227 307.616688 
L 411.924106 314.500408 
L 421.722985 318.396475 
L 431.521864 323.07713 
L 441.320744 327.757192 
L 451.119623 333.470038 
L 460.918502 338.681834 
L 470.717381 344.173813 
L 480.516261 350.281491 
L 490.31514 355.574304 
L 500.114019 359.412895 
L 509.912898 362.304025 
L 519.711777 365.51682 
L 529.510657 368.555951 
L 539.309536 370.970878 
L 549.108415 372.365418 
L 558.907294 372.565489 
L 568.706173 372.740005 
L 578.505053 373.542852 
L 588.303932 373.801495 
" clip-path="url(#p9338a7e052)" style="fill: none; stroke: #1f77b4; stroke-width: 2.5; stroke-linecap: square"/>
   </g>
   <g id="line2d_28">
    <path d="M 98.359972 88.562221 
L 108.158851 90.322409 
L 117.95773 92.082598 
L 127.756609 93.842787 
L 137.555488 95.602975 
L 147.354368 97.363164 
L 157.153247 99.123353 
L 166.952126 100.883541 
L 176.751005 102.64373 
L 186.549884 104.403919 
L 196.348764 106.164107 
L 206.147643 107.924296 
L 215.946522 109.684485 
L 225.745401 111.444673 
L 235.54428 113.204862 
L 245.34316 115.030845 
L 255.142039 120.267684 
L 264.940918 126.067122 
L 274.739797 131.86656 
L 284.538676 137.665997 
L 294.337556 143.465435 
L 304.136435 148.232816 
L 313.935314 152.629281 
L 323.734193 156.698394 
L 333.533072 160.276169 
L 343.331952 162.282898 
L 353.130831 168.235507 
L 362.92971 175.483102 
L 372.728589 183.460407 
L 382.527468 192.158615 
L 392.326348 202.843991 
L 402.125227 212.16687 
L 411.924106 225.907084 
L 421.722985 235.934212 
L 431.521864 240.630202 
L 441.320744 245.777736 
L 451.119623 253.129354 
L 460.918502 259.886428 
L 470.717381 271.202152 
L 480.516261 290.292471 
L 490.31514 303.204091 
L 500.114019 312.038921 
L 509.912898 320.660774 
L 519.711777 329.430837 
L 529.510657 338.310242 
L 539.309536 345.424378 
L 549.108415 353.159403 
L 558.907294 357.326035 
L 568.706173 363.882422 
L 578.505053 369.939928 
L 588.303932 375.786613 
L 598.102811 384.883254 
L 607.90169 397.265071 
L 617.700569 403.478748 
L 627.499449 408.479362 
L 637.298328 410.903617 
L 647.097207 412.997149 
L 656.896086 418.319994 
L 666.694965 422.056478 
L 676.493845 424.562975 
L 686.292724 427.685172 
L 696.091603 428.827603 
L 705.890482 429.314335 
L 715.689361 430.804136 
L 725.488241 434.440602 
L 735.28712 438.566717 
L 745.085999 440.425006 
L 754.884878 441.551413 
L 764.683757 444.163724 
L 774.482637 447.11394 
L 784.281516 447.200947 
L 794.080395 447.233051 
L 803.879274 447.23919 
L 813.678153 447.23919 
" clip-path="url(#p9338a7e052)" style="fill: none; stroke: #ff7f0e; stroke-width: 2.5; stroke-linecap: square"/>
   </g>
   <g id="line2d_29">
    <path d="M 98.36024 88.562221 
L 108.159119 231.042381 
L 117.957998 231.042381 
L 127.756877 246.793695 
L 137.555757 291.829846 
L 147.354636 312.242213 
L 157.153515 312.597285 
L 166.952394 348.724258 
L 176.751273 348.724258 
L 186.550153 386.911666 
L 196.349032 426.885272 
L 206.147911 426.885272 
L 215.94679 426.885272 
L 225.745669 426.885272 
L 235.544549 426.885272 
L 245.343428 426.885272 
L 255.142307 427.026878 
L 264.941186 427.026878 
L 274.740065 427.026878 
L 284.538945 427.026878 
L 294.337824 427.026878 
L 304.136703 427.026878 
L 313.935582 427.026878 
L 323.734461 427.026878 
L 333.533341 427.026878 
L 343.33222 427.026878 
L 353.131099 427.026878 
L 362.929978 427.026878 
L 372.728857 427.026878 
L 382.527737 437.722466 
L 392.326616 437.722466 
L 402.125495 437.722466 
L 411.924374 437.722466 
L 421.723253 437.722466 
L 431.522133 437.722466 
L 441.321012 445.919522 
L 451.119891 445.919522 
L 460.91877 445.919522 
L 470.717649 445.919522 
L 480.516529 445.919522 
L 490.315408 445.919522 
L 500.114287 445.919522 
L 509.913166 445.919522 
L 519.712046 445.919522 
L 529.510925 445.919522 
L 539.309804 445.919522 
L 549.108683 445.919522 
L 558.907562 445.919522 
L 568.706442 445.919522 
L 578.505321 445.919522 
" clip-path="url(#p9338a7e052)" style="fill: none; stroke: #2ca02c; stroke-width: 2.5; stroke-linecap: square"/>
   </g>
   <g id="line2d_30">
    <path d="M 98.359972 88.562221 
L 108.158851 104.688153 
L 117.95773 120.814084 
L 127.756609 136.940016 
L 137.555488 153.065948 
L 147.354368 169.19188 
L 157.153247 185.317812 
L 166.952126 201.443744 
L 176.751005 217.569676 
L 186.549884 233.695608 
L 196.348764 249.82154 
L 206.147643 265.947472 
L 215.946522 282.073404 
L 225.745401 298.199336 
L 235.54428 313.671536 
L 245.34316 327.066523 
L 255.142039 340.454867 
L 264.940918 353.805676 
L 274.739797 367.156486 
L 284.538676 380.507295 
L 294.337556 392.270364 
L 304.136435 402.610836 
L 313.935314 412.016934 
L 323.734193 418.675774 
L 333.533072 423.515803 
L 343.331952 428.448681 
L 353.130831 433.443693 
L 362.92971 437.597939 
L 372.728589 440.579097 
L 382.527468 442.804439 
L 392.326348 443.946615 
L 402.125227 445.040871 
L 411.924106 446.135128 
L 421.722985 446.978989 
L 431.521864 446.989106 
L 441.320744 446.999223 
L 451.119623 447.00934 
L 460.918502 447.018753 
L 470.717381 447.018757 
L 480.516261 447.018763 
L 490.31514 447.026866 
L 500.114019 447.037157 
L 509.912898 447.047442 
L 519.711777 447.054031 
L 529.510657 447.08054 
L 539.309536 447.11877 
L 549.108415 447.362992 
L 558.907294 447.432781 
L 568.706173 447.43678 
L 578.505053 447.43678 
L 588.303932 447.43678 
L 598.102811 447.43678 
L 607.90169 447.43678 
L 617.700569 447.43678 
L 627.499449 447.43678 
L 637.298328 447.43678 
L 647.097207 447.43678 
L 656.896086 447.43678 
L 666.694965 447.43678 
L 676.493845 447.43678 
L 686.292724 447.43678 
L 696.091603 447.43678 
L 705.890482 447.43678 
L 715.689361 447.43678 
L 725.488241 447.43678 
L 735.28712 447.43678 
L 745.085999 447.43678 
L 754.884878 447.43678 
L 764.683757 447.43678 
L 774.482637 447.43678 
L 784.281516 447.43678 
L 794.080395 447.43678 
L 803.879274 447.43678 
" clip-path="url(#p9338a7e052)" style="fill: none; stroke: #d62728; stroke-width: 2.5; stroke-linecap: square"/>
   </g>
   <g id="patch_3">
    <path d="M 62.594063 527.437656 
L 62.594063 24.597656 
" style="fill: none; stroke: #000000; stroke-width: 0.8; stroke-linejoin: miter; stroke-linecap: square"/>
   </g>
   <g id="patch_4">
    <path d="M 849.444063 527.437656 
L 849.444063 24.597656 
" style="fill: none; stroke: #000000; stroke-width: 0.8; stroke-linejoin: miter; stroke-linecap: square"/>
   </g>
   <g id="patch_5">
    <path d="M 62.594063 527.437656 
L 849.444063 527.437656 
" style="fill: none; stroke: #000000; stroke-width: 0.8; stroke-linejoin: miter; stroke-linecap: square"/>
   </g>
   <g id="patch_6">
    <path d="M 62.594063 24.597656 
L 849.444063 24.597656 
" style="fill: none; stroke: #000000; stroke-width: 0.8; stroke-linejoin: miter; stroke-linecap: square"/>
   </g>
   <g id="text_16">
    <!-- agnews - Best Perplexity vs Time -->
    <g transform="translate(315.616719 18.597656) scale(0.15 -0.15)">
     <defs>
      <path id="DejaVuSans-Bold-61" d="M 2106 1575 
Q 1756 1575 1579 1456 
Q 1403 1338 1403 1106 
Q 1403 894 1545 773 
Q 1688 653 1941 653 
Q 2256 653 2472 879 
Q 2688 1106 2688 1447 
L 2688 1575 
L 2106 1575 
z
M 3816 1997 
L 3816 0 
L 2688 0 
L 2688 519 
Q 2463 200 2181 54 
Q 1900 -91 1497 -91 
Q 953 -91 614 226 
Q 275 544 275 1050 
Q 275 1666 698 1953 
Q 1122 2241 2028 2241 
L 2688 2241 
L 2688 2328 
Q 2688 2594 2478 2717 
Q 2269 2841 1825 2841 
Q 1466 2841 1156 2769 
Q 847 2697 581 2553 
L 581 3406 
Q 941 3494 1303 3539 
Q 1666 3584 2028 3584 
Q 2975 3584 3395 3211 
Q 3816 2838 3816 1997 
z
" transform="scale(0.015625)"/>
      <path id="DejaVuSans-Bold-67" d="M 2919 594 
Q 2688 288 2409 144 
Q 2131 0 1766 0 
Q 1125 0 706 504 
Q 288 1009 288 1791 
Q 288 2575 706 3076 
Q 1125 3578 1766 3578 
Q 2131 3578 2409 3434 
Q 2688 3291 2919 2981 
L 2919 3500 
L 4044 3500 
L 4044 353 
Q 4044 -491 3511 -936 
Q 2978 -1381 1966 -1381 
Q 1638 -1381 1331 -1331 
Q 1025 -1281 716 -1178 
L 716 -306 
Q 1009 -475 1290 -558 
Q 1572 -641 1856 -641 
Q 2406 -641 2662 -400 
Q 2919 -159 2919 353 
L 2919 594 
z
M 2181 2772 
Q 1834 2772 1640 2515 
Q 1447 2259 1447 1791 
Q 1447 1309 1634 1061 
Q 1822 813 2181 813 
Q 2531 813 2725 1069 
Q 2919 1325 2919 1791 
Q 2919 2259 2725 2515 
Q 2531 2772 2181 2772 
z
" transform="scale(0.015625)"/>
      <path id="DejaVuSans-Bold-6e" d="M 4056 2131 
L 4056 0 
L 2931 0 
L 2931 347 
L 2931 1631 
Q 2931 2084 2911 2256 
Q 2891 2428 2841 2509 
Q 2775 2619 2662 2680 
Q 2550 2741 2406 2741 
Q 2056 2741 1856 2470 
Q 1656 2200 1656 1722 
L 1656 0 
L 538 0 
L 538 3500 
L 1656 3500 
L 1656 2988 
Q 1909 3294 2193 3439 
Q 2478 3584 2822 3584 
Q 3428 3584 3742 3212 
Q 4056 2841 4056 2131 
z
" transform="scale(0.015625)"/>
      <path id="DejaVuSans-Bold-65" d="M 4031 1759 
L 4031 1441 
L 1416 1441 
Q 1456 1047 1700 850 
Q 1944 653 2381 653 
Q 2734 653 3104 758 
Q 3475 863 3866 1075 
L 3866 213 
Q 3469 63 3072 -14 
Q 2675 -91 2278 -91 
Q 1328 -91 801 392 
Q 275 875 275 1747 
Q 275 2603 792 3093 
Q 1309 3584 2216 3584 
Q 3041 3584 3536 3087 
Q 4031 2591 4031 1759 
z
M 2881 2131 
Q 2881 2450 2695 2645 
Q 2509 2841 2209 2841 
Q 1884 2841 1681 2658 
Q 1478 2475 1428 2131 
L 2881 2131 
z
" transform="scale(0.015625)"/>
      <path id="DejaVuSans-Bold-77" d="M 225 3500 
L 1313 3500 
L 1900 1088 
L 2491 3500 
L 3425 3500 
L 4013 1113 
L 4603 3500 
L 5691 3500 
L 4769 0 
L 3547 0 
L 2956 2406 
L 2369 0 
L 1147 0 
L 225 3500 
z
" transform="scale(0.015625)"/>
      <path id="DejaVuSans-Bold-73" d="M 3272 3391 
L 3272 2541 
Q 2913 2691 2578 2766 
Q 2244 2841 1947 2841 
Q 1628 2841 1473 2761 
Q 1319 2681 1319 2516 
Q 1319 2381 1436 2309 
Q 1553 2238 1856 2203 
L 2053 2175 
Q 2913 2066 3209 1816 
Q 3506 1566 3506 1031 
Q 3506 472 3093 190 
Q 2681 -91 1863 -91 
Q 1516 -91 1145 -36 
Q 775 19 384 128 
L 384 978 
Q 719 816 1070 734 
Q 1422 653 1784 653 
Q 2113 653 2278 743 
Q 2444 834 2444 1013 
Q 2444 1163 2330 1236 
Q 2216 1309 1875 1350 
L 1678 1375 
Q 931 1469 631 1722 
Q 331 1975 331 2491 
Q 331 3047 712 3315 
Q 1094 3584 1881 3584 
Q 2191 3584 2531 3537 
Q 2872 3491 3272 3391 
z
" transform="scale(0.015625)"/>
      <path id="DejaVuSans-Bold-20" transform="scale(0.015625)"/>
      <path id="DejaVuSans-Bold-2d" d="M 347 2297 
L 2309 2297 
L 2309 1388 
L 347 1388 
L 347 2297 
z
" transform="scale(0.015625)"/>
      <path id="DejaVuSans-Bold-42" d="M 2456 2859 
Q 2741 2859 2887 2984 
Q 3034 3109 3034 3353 
Q 3034 3594 2887 3720 
Q 2741 3847 2456 3847 
L 1791 3847 
L 1791 2859 
L 2456 2859 
z
M 2497 819 
Q 2859 819 3042 972 
Q 3225 1125 3225 1434 
Q 3225 1738 3044 1889 
Q 2863 2041 2497 2041 
L 1791 2041 
L 1791 819 
L 2497 819 
z
M 3616 2497 
Q 4003 2384 4215 2081 
Q 4428 1778 4428 1338 
Q 4428 663 3972 331 
Q 3516 0 2584 0 
L 588 0 
L 588 4666 
L 2394 4666 
Q 3366 4666 3802 4372 
Q 4238 4078 4238 3431 
Q 4238 3091 4078 2852 
Q 3919 2613 3616 2497 
z
" transform="scale(0.015625)"/>
      <path id="DejaVuSans-Bold-74" d="M 1759 4494 
L 1759 3500 
L 2913 3500 
L 2913 2700 
L 1759 2700 
L 1759 1216 
Q 1759 972 1856 886 
Q 1953 800 2241 800 
L 2816 800 
L 2816 0 
L 1856 0 
Q 1194 0 917 276 
Q 641 553 641 1216 
L 641 2700 
L 84 2700 
L 84 3500 
L 641 3500 
L 641 4494 
L 1759 4494 
z
" transform="scale(0.015625)"/>
      <path id="DejaVuSans-Bold-50" d="M 588 4666 
L 2584 4666 
Q 3475 4666 3951 4270 
Q 4428 3875 4428 3144 
Q 4428 2409 3951 2014 
Q 3475 1619 2584 1619 
L 1791 1619 
L 1791 0 
L 588 0 
L 588 4666 
z
M 1791 3794 
L 1791 2491 
L 2456 2491 
Q 2806 2491 2997 2661 
Q 3188 2831 3188 3144 
Q 3188 3456 2997 3625 
Q 2806 3794 2456 3794 
L 1791 3794 
z
" transform="scale(0.015625)"/>
      <path id="DejaVuSans-Bold-72" d="M 3138 2547 
Q 2991 2616 2845 2648 
Q 2700 2681 2553 2681 
Q 2122 2681 1889 2404 
Q 1656 2128 1656 1613 
L 1656 0 
L 538 0 
L 538 3500 
L 1656 3500 
L 1656 2925 
Q 1872 3269 2151 3426 
Q 2431 3584 2822 3584 
Q 2878 3584 2943 3579 
Q 3009 3575 3134 3559 
L 3138 2547 
z
" transform="scale(0.015625)"/>
      <path id="DejaVuSans-Bold-70" d="M 1656 506 
L 1656 -1331 
L 538 -1331 
L 538 3500 
L 1656 3500 
L 1656 2988 
Q 1888 3294 2169 3439 
Q 2450 3584 2816 3584 
Q 3463 3584 3878 3070 
Q 4294 2556 4294 1747 
Q 4294 938 3878 423 
Q 3463 -91 2816 -91 
Q 2450 -91 2169 54 
Q 1888 200 1656 506 
z
M 2400 2772 
Q 2041 2772 1848 2508 
Q 1656 2244 1656 1747 
Q 1656 1250 1848 986 
Q 2041 722 2400 722 
Q 2759 722 2948 984 
Q 3138 1247 3138 1747 
Q 3138 2247 2948 2509 
Q 2759 2772 2400 2772 
z
" transform="scale(0.015625)"/>
      <path id="DejaVuSans-Bold-6c" d="M 538 4863 
L 1656 4863 
L 1656 0 
L 538 0 
L 538 4863 
z
" transform="scale(0.015625)"/>
      <path id="DejaVuSans-Bold-78" d="M 1422 1791 
L 159 3500 
L 1344 3500 
L 2059 2463 
L 2784 3500 
L 3969 3500 
L 2706 1797 
L 4031 0 
L 2847 0 
L 2059 1106 
L 1281 0 
L 97 0 
L 1422 1791 
z
" transform="scale(0.015625)"/>
      <path id="DejaVuSans-Bold-69" d="M 538 3500 
L 1656 3500 
L 1656 0 
L 538 0 
L 538 3500 
z
M 538 4863 
L 1656 4863 
L 1656 3950 
L 538 3950 
L 538 4863 
z
" transform="scale(0.015625)"/>
      <path id="DejaVuSans-Bold-79" d="M 78 3500 
L 1197 3500 
L 2138 1125 
L 2938 3500 
L 4056 3500 
L 2584 -331 
Q 2363 -916 2067 -1148 
Q 1772 -1381 1288 -1381 
L 641 -1381 
L 641 -647 
L 991 -647 
Q 1275 -647 1404 -556 
Q 1534 -466 1606 -231 
L 1638 -134 
L 78 3500 
z
" transform="scale(0.015625)"/>
      <path id="DejaVuSans-Bold-76" d="M 97 3500 
L 1216 3500 
L 2088 1081 
L 2956 3500 
L 4078 3500 
L 2700 0 
L 1472 0 
L 97 3500 
z
" transform="scale(0.015625)"/>
      <path id="DejaVuSans-Bold-54" d="M 31 4666 
L 4331 4666 
L 4331 3756 
L 2784 3756 
L 2784 0 
L 1581 0 
L 1581 3756 
L 31 3756 
L 31 4666 
z
" transform="scale(0.015625)"/>
      <path id="DejaVuSans-Bold-6d" d="M 3781 2919 
Q 3994 3244 4286 3414 
Q 4578 3584 4928 3584 
Q 5531 3584 5847 3212 
Q 6163 2841 6163 2131 
L 6163 0 
L 5038 0 
L 5038 1825 
Q 5041 1866 5042 1909 
Q 5044 1953 5044 2034 
Q 5044 2406 4934 2573 
Q 4825 2741 4581 2741 
Q 4263 2741 4089 2478 
Q 3916 2216 3909 1719 
L 3909 0 
L 2784 0 
L 2784 1825 
Q 2784 2406 2684 2573 
Q 2584 2741 2328 2741 
Q 2006 2741 1831 2477 
Q 1656 2213 1656 1722 
L 1656 0 
L 531 0 
L 531 3500 
L 1656 3500 
L 1656 2988 
Q 1863 3284 2130 3434 
Q 2397 3584 2719 3584 
Q 3081 3584 3359 3409 
Q 3638 3234 3781 2919 
z
" transform="scale(0.015625)"/>
     </defs>
     <use xlink:href="#DejaVuSans-Bold-61"/>
     <use xlink:href="#DejaVuSans-Bold-67" transform="translate(67.480469 0)"/>
     <use xlink:href="#DejaVuSans-Bold-6e" transform="translate(139.0625 0)"/>
     <use xlink:href="#DejaVuSans-Bold-65" transform="translate(210.253906 0)"/>
     <use xlink:href="#DejaVuSans-Bold-77" transform="translate(278.076172 0)"/>
     <use xlink:href="#DejaVuSans-Bold-73" transform="translate(370.458984 0)"/>
     <use xlink:href="#DejaVuSans-Bold-20" transform="translate(429.980469 0)"/>
     <use xlink:href="#DejaVuSans-Bold-2d" transform="translate(464.794922 0)"/>
     <use xlink:href="#DejaVuSans-Bold-20" transform="translate(506.298828 0)"/>
     <use xlink:href="#DejaVuSans-Bold-42" transform="translate(541.113281 0)"/>
     <use xlink:href="#DejaVuSans-Bold-65" transform="translate(617.333984 0)"/>
     <use xlink:href="#DejaVuSans-Bold-73" transform="translate(685.15625 0)"/>
     <use xlink:href="#DejaVuSans-Bold-74" transform="translate(744.677734 0)"/>
     <use xlink:href="#DejaVuSans-Bold-20" transform="translate(792.480469 0)"/>
     <use xlink:href="#DejaVuSans-Bold-50" transform="translate(827.294922 0)"/>
     <use xlink:href="#DejaVuSans-Bold-65" transform="translate(900.585938 0)"/>
     <use xlink:href="#DejaVuSans-Bold-72" transform="translate(968.408203 0)"/>
     <use xlink:href="#DejaVuSans-Bold-70" transform="translate(1017.724609 0)"/>
     <use xlink:href="#DejaVuSans-Bold-6c" transform="translate(1089.306641 0)"/>
     <use xlink:href="#DejaVuSans-Bold-65" transform="translate(1123.583984 0)"/>
     <use xlink:href="#DejaVuSans-Bold-78" transform="translate(1191.40625 0)"/>
     <use xlink:href="#DejaVuSans-Bold-69" transform="translate(1255.908203 0)"/>
     <use xlink:href="#DejaVuSans-Bold-74" transform="translate(1290.185547 0)"/>
     <use xlink:href="#DejaVuSans-Bold-79" transform="translate(1337.988281 0)"/>
     <use xlink:href="#DejaVuSans-Bold-20" transform="translate(1403.173828 0)"/>
     <use xlink:href="#DejaVuSans-Bold-76" transform="translate(1437.988281 0)"/>
     <use xlink:href="#DejaVuSans-Bold-73" transform="translate(1503.173828 0)"/>
     <use xlink:href="#DejaVuSans-Bold-20" transform="translate(1562.695312 0)"/>
     <use xlink:href="#DejaVuSans-Bold-54" transform="translate(1597.509766 0)"/>
     <use xlink:href="#DejaVuSans-Bold-69" transform="translate(1665.722656 0)"/>
     <use xlink:href="#DejaVuSans-Bold-6d" transform="translate(1700 0)"/>
     <use xlink:href="#DejaVuSans-Bold-65" transform="translate(1804.199219 0)"/>
    </g>
   </g>
   <g id="legend_1">
    <g id="patch_7">
     <path d="M 760.889688 104.652656 
L 841.044063 104.652656 
Q 843.444063 104.652656 843.444063 102.252656 
L 843.444063 32.997656 
Q 843.444063 30.597656 841.044063 30.597656 
L 760.889688 30.597656 
Q 758.489688 30.597656 758.489688 32.997656 
L 758.489688 102.252656 
Q 758.489688 104.652656 760.889688 104.652656 
z
" style="fill: #ffffff; opacity: 0.8; stroke: #cccccc; stroke-linejoin: miter"/>
    </g>
    <g id="line2d_31">
     <path d="M 763.289688 40.315781 
L 775.289688 40.315781 
L 787.289688 40.315781 
" style="fill: none; stroke: #1f77b4; stroke-width: 2.5; stroke-linecap: square"/>
    </g>
    <g id="text_17">
     <!-- ES -->
     <g transform="translate(796.889688 44.515781) scale(0.12 -0.12)">
      <defs>
       <path id="DejaVuSans-45" d="M 628 4666 
L 3578 4666 
L 3578 4134 
L 1259 4134 
L 1259 2753 
L 3481 2753 
L 3481 2222 
L 1259 2222 
L 1259 531 
L 3634 531 
L 3634 0 
L 628 0 
L 628 4666 
z
" transform="scale(0.015625)"/>
       <path id="DejaVuSans-53" d="M 3425 4513 
L 3425 3897 
Q 3066 4069 2747 4153 
Q 2428 4238 2131 4238 
Q 1616 4238 1336 4038 
Q 1056 3838 1056 3469 
Q 1056 3159 1242 3001 
Q 1428 2844 1947 2747 
L 2328 2669 
Q 3034 2534 3370 2195 
Q 3706 1856 3706 1288 
Q 3706 609 3251 259 
Q 2797 -91 1919 -91 
Q 1588 -91 1214 -16 
Q 841 59 441 206 
L 441 856 
Q 825 641 1194 531 
Q 1563 422 1919 422 
Q 2459 422 2753 634 
Q 3047 847 3047 1241 
Q 3047 1584 2836 1778 
Q 2625 1972 2144 2069 
L 1759 2144 
Q 1053 2284 737 2584 
Q 422 2884 422 3419 
Q 422 4038 858 4394 
Q 1294 4750 2059 4750 
Q 2388 4750 2728 4690 
Q 3069 4631 3425 4513 
z
" transform="scale(0.015625)"/>
      </defs>
      <use xlink:href="#DejaVuSans-45"/>
      <use xlink:href="#DejaVuSans-53" transform="translate(63.183594 0)"/>
     </g>
    </g>
    <g id="line2d_32">
     <path d="M 763.289688 57.929531 
L 775.289688 57.929531 
L 787.289688 57.929531 
" style="fill: none; stroke: #ff7f0e; stroke-width: 2.5; stroke-linecap: square"/>
    </g>
    <g id="text_18">
     <!-- GA -->
     <g transform="translate(796.889688 62.129531) scale(0.12 -0.12)">
      <defs>
       <path id="DejaVuSans-47" d="M 3809 666 
L 3809 1919 
L 2778 1919 
L 2778 2438 
L 4434 2438 
L 4434 434 
Q 4069 175 3628 42 
Q 3188 -91 2688 -91 
Q 1594 -91 976 548 
Q 359 1188 359 2328 
Q 359 3472 976 4111 
Q 1594 4750 2688 4750 
Q 3144 4750 3555 4637 
Q 3966 4525 4313 4306 
L 4313 3634 
Q 3963 3931 3569 4081 
Q 3175 4231 2741 4231 
Q 1884 4231 1454 3753 
Q 1025 3275 1025 2328 
Q 1025 1384 1454 906 
Q 1884 428 2741 428 
Q 3075 428 3337 486 
Q 3600 544 3809 666 
z
" transform="scale(0.015625)"/>
       <path id="DejaVuSans-41" d="M 2188 4044 
L 1331 1722 
L 3047 1722 
L 2188 4044 
z
M 1831 4666 
L 2547 4666 
L 4325 0 
L 3669 0 
L 3244 1197 
L 1141 1197 
L 716 0 
L 50 0 
L 1831 4666 
z
" transform="scale(0.015625)"/>
      </defs>
      <use xlink:href="#DejaVuSans-47"/>
      <use xlink:href="#DejaVuSans-41" transform="translate(77.490234 0)"/>
     </g>
    </g>
    <g id="line2d_33">
     <path d="M 763.289688 75.543281 
L 775.289688 75.543281 
L 787.289688 75.543281 
" style="fill: none; stroke: #2ca02c; stroke-width: 2.5; stroke-linecap: square"/>
    </g>
    <g id="text_19">
     <!-- PABBO -->
     <g transform="translate(796.889688 79.743281) scale(0.12 -0.12)">
      <defs>
       <path id="DejaVuSans-4f" d="M 2522 4238 
Q 1834 4238 1429 3725 
Q 1025 3213 1025 2328 
Q 1025 1447 1429 934 
Q 1834 422 2522 422 
Q 3209 422 3611 934 
Q 4013 1447 4013 2328 
Q 4013 3213 3611 3725 
Q 3209 4238 2522 4238 
z
M 2522 4750 
Q 3503 4750 4090 4092 
Q 4678 3434 4678 2328 
Q 4678 1225 4090 567 
Q 3503 -91 2522 -91 
Q 1538 -91 948 565 
Q 359 1222 359 2328 
Q 359 3434 948 4092 
Q 1538 4750 2522 4750 
z
" transform="scale(0.015625)"/>
      </defs>
      <use xlink:href="#DejaVuSans-50"/>
      <use xlink:href="#DejaVuSans-41" transform="translate(53.927734 0)"/>
      <use xlink:href="#DejaVuSans-42" transform="translate(122.335938 0)"/>
      <use xlink:href="#DejaVuSans-42" transform="translate(190.939453 0)"/>
      <use xlink:href="#DejaVuSans-4f" transform="translate(257.792969 0)"/>
     </g>
    </g>
    <g id="line2d_34">
     <path d="M 763.289688 93.157031 
L 775.289688 93.157031 
L 787.289688 93.157031 
" style="fill: none; stroke: #d62728; stroke-width: 2.5; stroke-linecap: square"/>
    </g>
    <g id="text_20">
     <!-- SABBO -->
     <g transform="translate(796.889688 97.357031) scale(0.12 -0.12)">
      <use xlink:href="#DejaVuSans-53"/>
      <use xlink:href="#DejaVuSans-41" transform="translate(65.351562 0)"/>
      <use xlink:href="#DejaVuSans-42" transform="translate(133.759766 0)"/>
      <use xlink:href="#DejaVuSans-42" transform="translate(202.363281 0)"/>
      <use xlink:href="#DejaVuSans-4f" transform="translate(269.216797 0)"/>
     </g>
    </g>
   </g>
  </g>
 </g>
 <defs>
  <clipPath id="p9338a7e052">
   <rect x="62.594063" y="24.597656" width="786.85" height="502.84"/>
  </clipPath>
 </defs>
</svg>
