<?xml version="1.0" encoding="utf-8" standalone="no"?>
<!DOCTYPE svg PUBLIC "-//W3C//DTD SVG 1.1//EN"
  "http://www.w3.org/Graphics/SVG/1.1/DTD/svg11.dtd">
<svg xmlns:xlink="http://www.w3.org/1999/xlink" width="856.581562pt" height="567.897344pt" viewBox="0 0 856.581562 567.897344" xmlns="http://www.w3.org/2000/svg" version="1.1">
 <metadata>
  <rdf:RDF xmlns:dc="http://purl.org/dc/elements/1.1/" xmlns:cc="http://creativecommons.org/ns#" xmlns:rdf="http://www.w3.org/1999/02/22-rdf-syntax-ns#">
   <cc:Work>
    <dc:type rdf:resource="http://purl.org/dc/dcmitype/StillImage"/>
    <dc:date>2025-11-18T12:26:07.080733</dc:date>
    <dc:format>image/svg+xml</dc:format>
    <dc:creator>
     <cc:Agent>
      <dc:title>Matplotlib v3.10.7, https://matplotlib.org/</dc:title>
     </cc:Agent>
    </dc:creator>
   </cc:Work>
  </rdf:RDF>
 </metadata>
 <defs>
  <style type="text/css">*{stroke-linejoin: round; stroke-linecap: butt}</style>
 </defs>
 <g id="figure_1">
  <g id="patch_1">
   <path d="M 0 567.897344 
L 856.581562 567.897344 
L 856.581562 0 
L 0 0 
z
" style="fill: #ffffff"/>
  </g>
  <g id="axes_1">
   <g id="patch_2">
    <path d="M 56.231563 527.437656 
L 849.381563 527.437656 
L 849.381563 24.597656 
L 56.231563 24.597656 
z
" style="fill: #ffffff"/>
   </g>
   <g id="FillBetweenPolyCollection_1">
    <defs>
     <path id="mbc9ec8c2bf" d="M 92.283835 -496.583849 
L 92.283835 -469.846922 
L 100.766723 -468.646681 
L 109.249611 -467.145393 
L 117.732498 -465.298748 
L 126.215386 -463.086827 
L 134.698274 -460.521891 
L 143.181161 -457.643488 
L 151.664049 -454.504819 
L 160.146937 -451.163954 
L 168.629825 -448.132709 
L 177.112712 -444.963624 
L 185.5956 -435.366724 
L 194.078488 -430.433355 
L 202.561375 -428.102725 
L 211.044263 -425.036984 
L 219.527151 -421.443517 
L 228.010038 -417.897449 
L 236.492926 -412.831174 
L 244.975814 -406.015979 
L 253.458702 -396.134739 
L 261.941589 -385.593269 
L 270.424477 -368.952238 
L 278.907365 -362.987465 
L 287.390252 -358.871338 
L 295.87314 -352.990357 
L 304.356028 -347.381375 
L 312.838915 -335.840403 
L 321.321803 -322.944082 
L 329.804691 -313.509335 
L 338.287579 -310.397394 
L 346.770466 -307.381372 
L 355.253354 -303.76609 
L 363.736242 -300.621423 
L 372.219129 -294.442572 
L 380.702017 -287.078355 
L 389.184905 -277.646629 
L 397.667792 -274.928828 
L 406.15068 -273.511789 
L 414.633568 -271.242722 
L 423.116456 -266.531558 
L 431.599343 -257.660946 
L 440.082231 -252.675998 
L 448.565119 -251.535191 
L 457.048006 -251.387192 
L 465.530894 -250.740843 
L 474.013782 -247.261463 
L 482.496669 -244.337631 
L 490.979557 -239.36635 
L 499.462445 -234.423877 
L 507.945333 -231.956301 
L 516.42822 -229.494204 
L 524.911108 -225.323773 
L 533.393996 -222.913224 
L 541.876883 -221.184248 
L 550.359771 -220.687966 
L 558.842659 -220.488455 
L 567.325546 -218.723455 
L 575.808434 -218.70981 
L 584.291322 -218.321824 
L 592.77421 -218.639592 
L 601.257097 -218.940377 
L 609.739985 -220.367014 
L 618.222873 -220.592912 
L 626.70576 -220.634633 
L 635.188648 -219.731785 
L 643.671536 -219.732788 
L 652.154423 -219.732788 
L 660.637311 -219.73192 
L 669.120199 -219.542049 
L 677.603087 -219.489668 
L 686.085974 -219.430696 
L 694.568862 -219.419421 
L 694.568862 -247.533109 
L 694.568862 -247.533109 
L 686.085974 -247.556729 
L 677.603087 -247.692381 
L 669.120199 -247.834624 
L 660.637311 -249.075679 
L 652.154423 -249.225886 
L 643.671536 -249.225886 
L 635.188648 -249.309803 
L 626.70576 -252.149294 
L 618.222873 -253.764299 
L 609.739985 -255.513829 
L 601.257097 -260.452721 
L 592.77421 -261.289536 
L 584.291322 -262.147457 
L 575.808434 -265.465644 
L 567.325546 -268.594798 
L 558.842659 -273.690061 
L 550.359771 -276.590918 
L 541.876883 -278.983743 
L 533.393996 -281.001304 
L 524.911108 -282.635062 
L 516.42822 -286.014498 
L 507.945333 -288.442583 
L 499.462445 -295.237464 
L 490.979557 -300.791078 
L 482.496669 -304.648101 
L 474.013782 -309.270702 
L 465.530894 -315.674596 
L 457.048006 -322.082678 
L 448.565119 -330.652443 
L 440.082231 -344.025674 
L 431.599343 -349.546935 
L 423.116456 -355.692712 
L 414.633568 -361.583489 
L 406.15068 -366.869066 
L 397.667792 -372.566538 
L 389.184905 -378.354267 
L 380.702017 -384.335925 
L 372.219129 -390.818937 
L 363.736242 -399.82248 
L 355.253354 -404.246799 
L 346.770466 -406.438397 
L 338.287579 -409.437961 
L 329.804691 -414.361089 
L 321.321803 -423.692951 
L 312.838915 -436.176527 
L 304.356028 -448.751961 
L 295.87314 -452.930944 
L 287.390252 -460.341403 
L 278.907365 -462.610423 
L 270.424477 -464.990409 
L 261.941589 -466.974051 
L 253.458702 -467.959507 
L 244.975814 -468.807089 
L 236.492926 -471.143785 
L 228.010038 -474.128001 
L 219.527151 -475.9633 
L 211.044263 -477.825017 
L 202.561375 -480.445889 
L 194.078488 -482.393605 
L 185.5956 -481.860353 
L 177.112712 -480.958624 
L 168.629825 -481.454361 
L 160.146937 -482.087939 
L 151.664049 -482.890563 
L 143.181161 -483.899808 
L 134.698274 -485.169317 
L 126.215386 -486.752294 
L 117.732498 -488.688285 
L 109.249611 -490.989553 
L 100.766723 -493.636177 
L 92.283835 -496.583849 
z
" style="stroke: #1f77b4; stroke-opacity: 0.2"/>
    </defs>
    <g clip-path="url(#p85a298a65b)">
     <use xlink:href="#mbc9ec8c2bf" x="0" y="567.897344" style="fill: #1f77b4; fill-opacity: 0.2; stroke: #1f77b4; stroke-opacity: 0.2"/>
    </g>
   </g>
   <g id="FillBetweenPolyCollection_2">
    <defs>
     <path id="ma3c1ddb1b5" d="M 92.283835 -496.583849 
L 92.283835 -469.846922 
L 100.766723 -468.344601 
L 109.249611 -466.694249 
L 117.732498 -464.911191 
L 126.215386 -463.011868 
L 134.698274 -461.012384 
L 143.181161 -458.927583 
L 151.664049 -456.770592 
L 160.146937 -454.552703 
L 168.629825 -452.283458 
L 177.112712 -449.970834 
L 185.5956 -447.621459 
L 194.078488 -445.240828 
L 202.561375 -442.833497 
L 211.044263 -440.40325 
L 219.527151 -437.95324 
L 228.010038 -435.486102 
L 236.492926 -433.00405 
L 244.975814 -430.508951 
L 253.458702 -427.976459 
L 261.941589 -425.177157 
L 270.424477 -422.239479 
L 278.907365 -419.175475 
L 287.390252 -416.091672 
L 295.87314 -412.364889 
L 304.356028 -408.000536 
L 312.838915 -403.043731 
L 321.321803 -397.562845 
L 329.804691 -391.884963 
L 338.287579 -384.926276 
L 346.770466 -378.061115 
L 355.253354 -372.307852 
L 363.736242 -369.466345 
L 372.219129 -366.581813 
L 380.702017 -363.91961 
L 389.184905 -362.343954 
L 397.667792 -360.300822 
L 406.15068 -357.810304 
L 414.633568 -355.000649 
L 423.116456 -345.200754 
L 431.599343 -327.824598 
L 440.082231 -315.624809 
L 448.565119 -301.093633 
L 457.048006 -284.573133 
L 465.530894 -271.562921 
L 474.013782 -264.337382 
L 482.496669 -259.452323 
L 490.979557 -246.293383 
L 499.462445 -231.746426 
L 507.945333 -222.152536 
L 516.42822 -215.004231 
L 524.911108 -207.853134 
L 533.393996 -195.466368 
L 541.876883 -183.082304 
L 550.359771 -175.157903 
L 558.842659 -166.315259 
L 567.325546 -153.360763 
L 575.808434 -142.222257 
L 584.291322 -135.989949 
L 592.77421 -130.339414 
L 601.257097 -125.091262 
L 609.739985 -116.186926 
L 618.222873 -104.370041 
L 626.70576 -96.477233 
L 635.188648 -94.933151 
L 643.671536 -94.554598 
L 652.154423 -96.978111 
L 660.637311 -99.005837 
L 669.120199 -100.41671 
L 677.603087 -97.629258 
L 686.085974 -92.322983 
L 694.568862 -93.355458 
L 703.05175 -94.020846 
L 711.534637 -94.873232 
L 720.017525 -95.333893 
L 728.500413 -95.939485 
L 736.9833 -92.098178 
L 745.466188 -91.986381 
L 753.949076 -91.987957 
L 762.431964 -91.987957 
L 770.914851 -93.039371 
L 779.397739 -92.063326 
L 787.880627 -92.063326 
L 796.363514 -92.063326 
L 804.846402 -92.063326 
L 813.32929 -92.063326 
L 813.32929 -146.116234 
L 813.32929 -146.116234 
L 804.846402 -146.116234 
L 796.363514 -146.116234 
L 787.880627 -146.116234 
L 779.397739 -146.116234 
L 770.914851 -147.294133 
L 762.431964 -159.637211 
L 753.949076 -159.637211 
L 745.466188 -159.641274 
L 736.9833 -160.199077 
L 728.500413 -164.606248 
L 720.017525 -175.743554 
L 711.534637 -182.424057 
L 703.05175 -201.374658 
L 694.568862 -213.290867 
L 686.085974 -218.512169 
L 677.603087 -227.281681 
L 669.120199 -244.845867 
L 660.637311 -257.156145 
L 652.154423 -269.182639 
L 643.671536 -280.180523 
L 635.188648 -295.31241 
L 626.70576 -305.547716 
L 618.222873 -311.923489 
L 609.739985 -320.039465 
L 601.257097 -324.392376 
L 592.77421 -327.803836 
L 584.291322 -333.949589 
L 575.808434 -344.641263 
L 567.325546 -354.572936 
L 558.842659 -365.694544 
L 550.359771 -377.594098 
L 541.876883 -386.289604 
L 533.393996 -394.238562 
L 524.911108 -402.777148 
L 516.42822 -410.497613 
L 507.945333 -414.679687 
L 499.462445 -420.314996 
L 490.979557 -428.386419 
L 482.496669 -439.569744 
L 474.013782 -446.558068 
L 465.530894 -450.732139 
L 457.048006 -450.8978 
L 448.565119 -451.570668 
L 440.082231 -456.428804 
L 431.599343 -457.538806 
L 423.116456 -457.831138 
L 414.633568 -460.708358 
L 406.15068 -464.589455 
L 397.667792 -469.005021 
L 389.184905 -473.878048 
L 380.702017 -477.149481 
L 372.219129 -477.327221 
L 363.736242 -477.522751 
L 355.253354 -477.761305 
L 346.770466 -477.806733 
L 338.287579 -478.203264 
L 329.804691 -479.047001 
L 321.321803 -479.973649 
L 312.838915 -481.369762 
L 304.356028 -483.292995 
L 295.87314 -485.808679 
L 287.390252 -488.961935 
L 278.907365 -492.676412 
L 270.424477 -493.353543 
L 261.941589 -494.156999 
L 253.458702 -495.098831 
L 244.975814 -495.02385 
L 236.492926 -494.80086 
L 228.010038 -494.590918 
L 219.527151 -494.39589 
L 211.044263 -494.217989 
L 202.561375 -494.059851 
L 194.078488 -493.924629 
L 185.5956 -493.816108 
L 177.112712 -493.738842 
L 168.629825 -493.698328 
L 160.146937 -493.701192 
L 151.664049 -493.755413 
L 143.181161 -493.870531 
L 134.698274 -494.057839 
L 126.215386 -494.330465 
L 117.732498 -494.703251 
L 109.249611 -495.192303 
L 100.766723 -495.81406 
L 92.283835 -496.583849 
z
" style="stroke: #ff7f0e; stroke-opacity: 0.2"/>
    </defs>
    <g clip-path="url(#p85a298a65b)">
     <use xlink:href="#ma3c1ddb1b5" x="0" y="567.897344" style="fill: #ff7f0e; fill-opacity: 0.2; stroke: #ff7f0e; stroke-opacity: 0.2"/>
    </g>
   </g>
   <g id="FillBetweenPolyCollection_3">
    <defs>
     <path id="m4a3a960130" d="M 92.284135 -496.583849 
L 92.284135 -469.846922 
L 100.767023 -156.802907 
L 109.24991 -156.802907 
L 117.732798 -148.856107 
L 126.215686 -148.856107 
L 134.698574 -111.4813 
L 143.181461 -112.298816 
L 151.664349 -96.45696 
L 160.147237 -70.62424 
L 168.630124 -70.62424 
L 177.113012 -70.62424 
L 185.5959 -70.62424 
L 194.078788 -63.316051 
L 202.561675 -79.836754 
L 211.044563 -72.738033 
L 219.527451 -72.738033 
L 228.010338 -72.738033 
L 236.493226 -72.738033 
L 244.976114 -72.738033 
L 253.459001 -72.738033 
L 261.941889 -72.738033 
L 270.424777 -67.075511 
L 278.907665 -67.075511 
L 287.390552 -67.075511 
L 295.87344 -67.075511 
L 304.356328 -67.075511 
L 312.839215 -67.075511 
L 321.322103 -67.075511 
L 329.804991 -67.075511 
L 338.287878 -67.075511 
L 346.770766 -67.075511 
L 355.253654 -67.075511 
L 363.736542 -67.075511 
L 372.219429 -67.075511 
L 380.702317 -67.075511 
L 389.185205 -67.075511 
L 397.668092 -67.075511 
L 406.15098 -67.075511 
L 414.633868 -67.075511 
L 423.116755 -84.419874 
L 431.599643 -84.419874 
L 440.082531 -84.419874 
L 448.565419 -84.419874 
L 457.048306 -84.419874 
L 465.531194 -84.419874 
L 474.014082 -84.419874 
L 482.496969 -84.419874 
L 490.979857 -84.419874 
L 499.462745 -105.096008 
L 507.945632 -105.096008 
L 516.42852 -105.096008 
L 524.911408 -105.096008 
L 533.394296 -105.096008 
L 541.877183 -105.096008 
L 550.360071 -105.096008 
L 558.842959 -105.096008 
L 567.325846 -105.096008 
L 575.808734 -105.096008 
L 584.291622 -105.096008 
L 592.774509 -105.096008 
L 601.257397 -105.096008 
L 609.740285 -105.096008 
L 618.223173 -105.096008 
L 626.70606 -105.096008 
L 635.188948 -105.096008 
L 643.671836 -105.096008 
L 652.154723 -105.096008 
L 652.154723 -121.835812 
L 652.154723 -121.835812 
L 643.671836 -121.835812 
L 635.188948 -121.835812 
L 626.70606 -121.835812 
L 618.223173 -121.835812 
L 609.740285 -121.835812 
L 601.257397 -121.835812 
L 592.774509 -121.835812 
L 584.291622 -121.835812 
L 575.808734 -121.835812 
L 567.325846 -121.835812 
L 558.842959 -121.835812 
L 550.360071 -121.835812 
L 541.877183 -121.835812 
L 533.394296 -121.835812 
L 524.911408 -121.835812 
L 516.42852 -121.835812 
L 507.945632 -121.835812 
L 499.462745 -121.835812 
L 490.979857 -171.323569 
L 482.496969 -171.323569 
L 474.014082 -171.323569 
L 465.531194 -171.323569 
L 457.048306 -171.323569 
L 448.565419 -171.323569 
L 440.082531 -171.323569 
L 431.599643 -171.323569 
L 423.116755 -171.323569 
L 414.633868 -204.95907 
L 406.15098 -204.95907 
L 397.668092 -204.95907 
L 389.185205 -204.95907 
L 380.702317 -204.95907 
L 372.219429 -204.95907 
L 363.736542 -204.95907 
L 355.253654 -204.95907 
L 346.770766 -204.95907 
L 338.287878 -204.95907 
L 329.804991 -204.95907 
L 321.322103 -204.95907 
L 312.839215 -204.95907 
L 304.356328 -204.95907 
L 295.87344 -204.95907 
L 287.390552 -204.95907 
L 278.907665 -204.95907 
L 270.424777 -204.95907 
L 261.941889 -209.416684 
L 253.459001 -209.416684 
L 244.976114 -209.416684 
L 236.493226 -209.416684 
L 228.010338 -209.416684 
L 219.527451 -209.416684 
L 211.044563 -209.416684 
L 202.561675 -220.688596 
L 194.078788 -312.594826 
L 185.5959 -376.798818 
L 177.113012 -376.798818 
L 168.630124 -376.798818 
L 160.147237 -376.798818 
L 151.664349 -425.582382 
L 143.181461 -455.811422 
L 134.698574 -468.906026 
L 126.215686 -500.919972 
L 117.732798 -500.919972 
L 109.24991 -520.443324 
L 100.767023 -520.443324 
L 92.284135 -496.583849 
z
" style="stroke: #2ca02c; stroke-opacity: 0.2"/>
    </defs>
    <g clip-path="url(#p85a298a65b)">
     <use xlink:href="#m4a3a960130" x="0" y="567.897344" style="fill: #2ca02c; fill-opacity: 0.2; stroke: #2ca02c; stroke-opacity: 0.2"/>
    </g>
   </g>
   <g id="FillBetweenPolyCollection_4">
    <defs>
     <path id="m8008508168" d="M 92.283835 -496.583849 
L 92.283835 -469.846922 
L 100.766723 -452.802783 
L 109.249611 -433.67689 
L 117.732498 -413.277685 
L 126.215386 -392.200299 
L 134.698274 -370.755848 
L 143.181161 -349.099612 
L 151.664049 -327.312788 
L 160.146937 -305.440678 
L 168.629825 -283.51015 
L 177.112712 -261.538007 
L 185.5956 -239.535244 
L 194.078488 -217.50933 
L 202.561375 -200.667764 
L 211.044263 -189.196544 
L 219.527151 -177.303966 
L 228.010038 -164.961952 
L 236.492926 -152.149475 
L 244.975814 -138.854567 
L 253.458702 -127.300678 
L 261.941589 -117.737489 
L 270.424477 -107.527 
L 278.907365 -100.604513 
L 287.390252 -98.435176 
L 295.87314 -99.368324 
L 304.356028 -100.186317 
L 312.838915 -100.840908 
L 321.321803 -101.255808 
L 329.804691 -101.307035 
L 338.287579 -102.34285 
L 346.770466 -103.171103 
L 355.253354 -103.265905 
L 363.736242 -103.818676 
L 372.219129 -104.472642 
L 380.702017 -104.769805 
L 389.184905 -105.221434 
L 397.667792 -105.344089 
L 406.15068 -105.364284 
L 414.633568 -105.317494 
L 423.116456 -105.317494 
L 431.599343 -105.378612 
L 440.082231 -105.439863 
L 448.565119 -105.498609 
L 457.048006 -105.554722 
L 465.530894 -105.605576 
L 474.013782 -105.605576 
L 482.496669 -105.605576 
L 490.979557 -105.605576 
L 499.462445 -105.605576 
L 507.945333 -105.605576 
L 516.42822 -105.605576 
L 524.911108 -105.605576 
L 533.393996 -105.652036 
L 541.876883 -105.710458 
L 550.359771 -105.710458 
L 558.842659 -105.710458 
L 567.325546 -105.710458 
L 575.808434 -105.710458 
L 584.291322 -105.710458 
L 592.77421 -105.710458 
L 601.257097 -105.710458 
L 609.739985 -105.710458 
L 618.222873 -105.710458 
L 626.70576 -105.710458 
L 635.188648 -105.710458 
L 643.671536 -105.710458 
L 652.154423 -105.710458 
L 660.637311 -105.710458 
L 669.120199 -105.710458 
L 677.603087 -105.710458 
L 686.085974 -105.710458 
L 694.568862 -105.710458 
L 703.05175 -105.710458 
L 711.534637 -105.710458 
L 711.534637 -118.246038 
L 711.534637 -118.246038 
L 703.05175 -118.246038 
L 694.568862 -118.246038 
L 686.085974 -118.246038 
L 677.603087 -118.246038 
L 669.120199 -118.246038 
L 660.637311 -118.246038 
L 652.154423 -118.246038 
L 643.671536 -118.246038 
L 635.188648 -118.246038 
L 626.70576 -118.246038 
L 618.222873 -118.246038 
L 609.739985 -118.246038 
L 601.257097 -118.246038 
L 592.77421 -118.246038 
L 584.291322 -118.246038 
L 575.808434 -118.246038 
L 567.325546 -118.246038 
L 558.842659 -118.246038 
L 550.359771 -118.246038 
L 541.876883 -118.246038 
L 533.393996 -118.578063 
L 524.911108 -118.790476 
L 516.42822 -118.790476 
L 507.945333 -118.790476 
L 499.462445 -118.790476 
L 490.979557 -118.790476 
L 482.496669 -118.790476 
L 474.013782 -118.790476 
L 465.530894 -118.790476 
L 457.048006 -118.946747 
L 448.565119 -119.113581 
L 440.082231 -119.283048 
L 431.599343 -119.45502 
L 423.116456 -119.622558 
L 414.633568 -119.622558 
L 406.15068 -119.961332 
L 397.667792 -120.589695 
L 389.184905 -121.320519 
L 380.702017 -122.909101 
L 372.219129 -126.540078 
L 363.736242 -131.436595 
L 355.253354 -137.171176 
L 346.770466 -144.018654 
L 338.287579 -151.599584 
L 329.804691 -159.713272 
L 321.321803 -168.98373 
L 312.838915 -178.617862 
L 304.356028 -188.491684 
L 295.87314 -198.528909 
L 287.390252 -208.681289 
L 278.907365 -219.556187 
L 270.424477 -231.549117 
L 261.941589 -244.167159 
L 253.458702 -257.432502 
L 244.975814 -270.802702 
L 236.492926 -284.25157 
L 228.010038 -298.18287 
L 219.527151 -312.584632 
L 211.044263 -327.435831 
L 202.561375 -342.708387 
L 194.078488 -355.74938 
L 185.5956 -366.487804 
L 177.112712 -377.249379 
L 168.629825 -388.041575 
L 160.146937 -398.875385 
L 151.664049 -409.767613 
L 143.181161 -420.745128 
L 134.698274 -431.85323 
L 126.215386 -443.173118 
L 117.732498 -454.86007 
L 109.249611 -467.225204 
L 100.766723 -480.86365 
L 92.283835 -496.583849 
z
" style="stroke: #d62728; stroke-opacity: 0.2"/>
    </defs>
    <g clip-path="url(#p85a298a65b)">
     <use xlink:href="#m8008508168" x="0" y="567.897344" style="fill: #d62728; fill-opacity: 0.2; stroke: #d62728; stroke-opacity: 0.2"/>
    </g>
   </g>
   <g id="matplotlib.axis_1">
    <g id="xtick_1">
     <g id="line2d_1">
      <path d="M 92.283835 527.437656 
L 92.283835 24.597656 
" clip-path="url(#p85a298a65b)" style="fill: none; stroke-dasharray: 2.96,1.28; stroke-dashoffset: 0; stroke: #b0b0b0; stroke-opacity: 0.3; stroke-width: 0.8"/>
     </g>
     <g id="line2d_2">
      <defs>
       <path id="m704c6164ea" d="M 0 0 
L 0 3.5 
" style="stroke: #000000; stroke-width: 0.8"/>
      </defs>
      <g>
       <use xlink:href="#m704c6164ea" x="92.283835" y="527.437656" style="stroke: #000000; stroke-width: 0.8"/>
      </g>
     </g>
     <g id="text_1">
      <!-- 0 -->
      <g transform="translate(89.102585 542.036094) scale(0.1 -0.1)">
       <defs>
        <path id="DejaVuSans-30" d="M 2034 4250 
Q 1547 4250 1301 3770 
Q 1056 3291 1056 2328 
Q 1056 1369 1301 889 
Q 1547 409 2034 409 
Q 2525 409 2770 889 
Q 3016 1369 3016 2328 
Q 3016 3291 2770 3770 
Q 2525 4250 2034 4250 
z
M 2034 4750 
Q 2819 4750 3233 4129 
Q 3647 3509 3647 2328 
Q 3647 1150 3233 529 
Q 2819 -91 2034 -91 
Q 1250 -91 836 529 
Q 422 1150 422 2328 
Q 422 3509 836 4129 
Q 1250 4750 2034 4750 
z
" transform="scale(0.015625)"/>
       </defs>
       <use xlink:href="#DejaVuSans-30"/>
      </g>
     </g>
    </g>
    <g id="xtick_2">
     <g id="line2d_3">
      <path d="M 261.941589 527.437656 
L 261.941589 24.597656 
" clip-path="url(#p85a298a65b)" style="fill: none; stroke-dasharray: 2.96,1.28; stroke-dashoffset: 0; stroke: #b0b0b0; stroke-opacity: 0.3; stroke-width: 0.8"/>
     </g>
     <g id="line2d_4">
      <g>
       <use xlink:href="#m704c6164ea" x="261.941589" y="527.437656" style="stroke: #000000; stroke-width: 0.8"/>
      </g>
     </g>
     <g id="text_2">
      <!-- 200 -->
      <g transform="translate(252.397839 542.036094) scale(0.1 -0.1)">
       <defs>
        <path id="DejaVuSans-32" d="M 1228 531 
L 3431 531 
L 3431 0 
L 469 0 
L 469 531 
Q 828 903 1448 1529 
Q 2069 2156 2228 2338 
Q 2531 2678 2651 2914 
Q 2772 3150 2772 3378 
Q 2772 3750 2511 3984 
Q 2250 4219 1831 4219 
Q 1534 4219 1204 4116 
Q 875 4013 500 3803 
L 500 4441 
Q 881 4594 1212 4672 
Q 1544 4750 1819 4750 
Q 2544 4750 2975 4387 
Q 3406 4025 3406 3419 
Q 3406 3131 3298 2873 
Q 3191 2616 2906 2266 
Q 2828 2175 2409 1742 
Q 1991 1309 1228 531 
z
" transform="scale(0.015625)"/>
       </defs>
       <use xlink:href="#DejaVuSans-32"/>
       <use xlink:href="#DejaVuSans-30" transform="translate(63.623047 0)"/>
       <use xlink:href="#DejaVuSans-30" transform="translate(127.246094 0)"/>
      </g>
     </g>
    </g>
    <g id="xtick_3">
     <g id="line2d_5">
      <path d="M 431.599343 527.437656 
L 431.599343 24.597656 
" clip-path="url(#p85a298a65b)" style="fill: none; stroke-dasharray: 2.96,1.28; stroke-dashoffset: 0; stroke: #b0b0b0; stroke-opacity: 0.3; stroke-width: 0.8"/>
     </g>
     <g id="line2d_6">
      <g>
       <use xlink:href="#m704c6164ea" x="431.599343" y="527.437656" style="stroke: #000000; stroke-width: 0.8"/>
      </g>
     </g>
     <g id="text_3">
      <!-- 400 -->
      <g transform="translate(422.055593 542.036094) scale(0.1 -0.1)">
       <defs>
        <path id="DejaVuSans-34" d="M 2419 4116 
L 825 1625 
L 2419 1625 
L 2419 4116 
z
M 2253 4666 
L 3047 4666 
L 3047 1625 
L 3713 1625 
L 3713 1100 
L 3047 1100 
L 3047 0 
L 2419 0 
L 2419 1100 
L 313 1100 
L 313 1709 
L 2253 4666 
z
" transform="scale(0.015625)"/>
       </defs>
       <use xlink:href="#DejaVuSans-34"/>
       <use xlink:href="#DejaVuSans-30" transform="translate(63.623047 0)"/>
       <use xlink:href="#DejaVuSans-30" transform="translate(127.246094 0)"/>
      </g>
     </g>
    </g>
    <g id="xtick_4">
     <g id="line2d_7">
      <path d="M 601.257097 527.437656 
L 601.257097 24.597656 
" clip-path="url(#p85a298a65b)" style="fill: none; stroke-dasharray: 2.96,1.28; stroke-dashoffset: 0; stroke: #b0b0b0; stroke-opacity: 0.3; stroke-width: 0.8"/>
     </g>
     <g id="line2d_8">
      <g>
       <use xlink:href="#m704c6164ea" x="601.257097" y="527.437656" style="stroke: #000000; stroke-width: 0.8"/>
      </g>
     </g>
     <g id="text_4">
      <!-- 600 -->
      <g transform="translate(591.713347 542.036094) scale(0.1 -0.1)">
       <defs>
        <path id="DejaVuSans-36" d="M 2113 2584 
Q 1688 2584 1439 2293 
Q 1191 2003 1191 1497 
Q 1191 994 1439 701 
Q 1688 409 2113 409 
Q 2538 409 2786 701 
Q 3034 994 3034 1497 
Q 3034 2003 2786 2293 
Q 2538 2584 2113 2584 
z
M 3366 4563 
L 3366 3988 
Q 3128 4100 2886 4159 
Q 2644 4219 2406 4219 
Q 1781 4219 1451 3797 
Q 1122 3375 1075 2522 
Q 1259 2794 1537 2939 
Q 1816 3084 2150 3084 
Q 2853 3084 3261 2657 
Q 3669 2231 3669 1497 
Q 3669 778 3244 343 
Q 2819 -91 2113 -91 
Q 1303 -91 875 529 
Q 447 1150 447 2328 
Q 447 3434 972 4092 
Q 1497 4750 2381 4750 
Q 2619 4750 2861 4703 
Q 3103 4656 3366 4563 
z
" transform="scale(0.015625)"/>
       </defs>
       <use xlink:href="#DejaVuSans-36"/>
       <use xlink:href="#DejaVuSans-30" transform="translate(63.623047 0)"/>
       <use xlink:href="#DejaVuSans-30" transform="translate(127.246094 0)"/>
      </g>
     </g>
    </g>
    <g id="xtick_5">
     <g id="line2d_9">
      <path d="M 770.914851 527.437656 
L 770.914851 24.597656 
" clip-path="url(#p85a298a65b)" style="fill: none; stroke-dasharray: 2.96,1.28; stroke-dashoffset: 0; stroke: #b0b0b0; stroke-opacity: 0.3; stroke-width: 0.8"/>
     </g>
     <g id="line2d_10">
      <g>
       <use xlink:href="#m704c6164ea" x="770.914851" y="527.437656" style="stroke: #000000; stroke-width: 0.8"/>
      </g>
     </g>
     <g id="text_5">
      <!-- 800 -->
      <g transform="translate(761.371101 542.036094) scale(0.1 -0.1)">
       <defs>
        <path id="DejaVuSans-38" d="M 2034 2216 
Q 1584 2216 1326 1975 
Q 1069 1734 1069 1313 
Q 1069 891 1326 650 
Q 1584 409 2034 409 
Q 2484 409 2743 651 
Q 3003 894 3003 1313 
Q 3003 1734 2745 1975 
Q 2488 2216 2034 2216 
z
M 1403 2484 
Q 997 2584 770 2862 
Q 544 3141 544 3541 
Q 544 4100 942 4425 
Q 1341 4750 2034 4750 
Q 2731 4750 3128 4425 
Q 3525 4100 3525 3541 
Q 3525 3141 3298 2862 
Q 3072 2584 2669 2484 
Q 3125 2378 3379 2068 
Q 3634 1759 3634 1313 
Q 3634 634 3220 271 
Q 2806 -91 2034 -91 
Q 1263 -91 848 271 
Q 434 634 434 1313 
Q 434 1759 690 2068 
Q 947 2378 1403 2484 
z
M 1172 3481 
Q 1172 3119 1398 2916 
Q 1625 2713 2034 2713 
Q 2441 2713 2670 2916 
Q 2900 3119 2900 3481 
Q 2900 3844 2670 4047 
Q 2441 4250 2034 4250 
Q 1625 4250 1398 4047 
Q 1172 3844 1172 3481 
z
" transform="scale(0.015625)"/>
       </defs>
       <use xlink:href="#DejaVuSans-38"/>
       <use xlink:href="#DejaVuSans-30" transform="translate(63.623047 0)"/>
       <use xlink:href="#DejaVuSans-30" transform="translate(127.246094 0)"/>
      </g>
     </g>
    </g>
    <g id="text_6">
     <!-- Time (seconds) -->
     <g transform="translate(403.196328 557.99375) scale(0.13 -0.13)">
      <defs>
       <path id="DejaVuSans-54" d="M -19 4666 
L 3928 4666 
L 3928 4134 
L 2272 4134 
L 2272 0 
L 1638 0 
L 1638 4134 
L -19 4134 
L -19 4666 
z
" transform="scale(0.015625)"/>
       <path id="DejaVuSans-69" d="M 603 3500 
L 1178 3500 
L 1178 0 
L 603 0 
L 603 3500 
z
M 603 4863 
L 1178 4863 
L 1178 4134 
L 603 4134 
L 603 4863 
z
" transform="scale(0.015625)"/>
       <path id="DejaVuSans-6d" d="M 3328 2828 
Q 3544 3216 3844 3400 
Q 4144 3584 4550 3584 
Q 5097 3584 5394 3201 
Q 5691 2819 5691 2113 
L 5691 0 
L 5113 0 
L 5113 2094 
Q 5113 2597 4934 2840 
Q 4756 3084 4391 3084 
Q 3944 3084 3684 2787 
Q 3425 2491 3425 1978 
L 3425 0 
L 2847 0 
L 2847 2094 
Q 2847 2600 2669 2842 
Q 2491 3084 2119 3084 
Q 1678 3084 1418 2786 
Q 1159 2488 1159 1978 
L 1159 0 
L 581 0 
L 581 3500 
L 1159 3500 
L 1159 2956 
Q 1356 3278 1631 3431 
Q 1906 3584 2284 3584 
Q 2666 3584 2933 3390 
Q 3200 3197 3328 2828 
z
" transform="scale(0.015625)"/>
       <path id="DejaVuSans-65" d="M 3597 1894 
L 3597 1613 
L 953 1613 
Q 991 1019 1311 708 
Q 1631 397 2203 397 
Q 2534 397 2845 478 
Q 3156 559 3463 722 
L 3463 178 
Q 3153 47 2828 -22 
Q 2503 -91 2169 -91 
Q 1331 -91 842 396 
Q 353 884 353 1716 
Q 353 2575 817 3079 
Q 1281 3584 2069 3584 
Q 2775 3584 3186 3129 
Q 3597 2675 3597 1894 
z
M 3022 2063 
Q 3016 2534 2758 2815 
Q 2500 3097 2075 3097 
Q 1594 3097 1305 2825 
Q 1016 2553 972 2059 
L 3022 2063 
z
" transform="scale(0.015625)"/>
       <path id="DejaVuSans-20" transform="scale(0.015625)"/>
       <path id="DejaVuSans-28" d="M 1984 4856 
Q 1566 4138 1362 3434 
Q 1159 2731 1159 2009 
Q 1159 1288 1364 580 
Q 1569 -128 1984 -844 
L 1484 -844 
Q 1016 -109 783 600 
Q 550 1309 550 2009 
Q 550 2706 781 3412 
Q 1013 4119 1484 4856 
L 1984 4856 
z
" transform="scale(0.015625)"/>
       <path id="DejaVuSans-73" d="M 2834 3397 
L 2834 2853 
Q 2591 2978 2328 3040 
Q 2066 3103 1784 3103 
Q 1356 3103 1142 2972 
Q 928 2841 928 2578 
Q 928 2378 1081 2264 
Q 1234 2150 1697 2047 
L 1894 2003 
Q 2506 1872 2764 1633 
Q 3022 1394 3022 966 
Q 3022 478 2636 193 
Q 2250 -91 1575 -91 
Q 1294 -91 989 -36 
Q 684 19 347 128 
L 347 722 
Q 666 556 975 473 
Q 1284 391 1588 391 
Q 1994 391 2212 530 
Q 2431 669 2431 922 
Q 2431 1156 2273 1281 
Q 2116 1406 1581 1522 
L 1381 1569 
Q 847 1681 609 1914 
Q 372 2147 372 2553 
Q 372 3047 722 3315 
Q 1072 3584 1716 3584 
Q 2034 3584 2315 3537 
Q 2597 3491 2834 3397 
z
" transform="scale(0.015625)"/>
       <path id="DejaVuSans-63" d="M 3122 3366 
L 3122 2828 
Q 2878 2963 2633 3030 
Q 2388 3097 2138 3097 
Q 1578 3097 1268 2742 
Q 959 2388 959 1747 
Q 959 1106 1268 751 
Q 1578 397 2138 397 
Q 2388 397 2633 464 
Q 2878 531 3122 666 
L 3122 134 
Q 2881 22 2623 -34 
Q 2366 -91 2075 -91 
Q 1284 -91 818 406 
Q 353 903 353 1747 
Q 353 2603 823 3093 
Q 1294 3584 2113 3584 
Q 2378 3584 2631 3529 
Q 2884 3475 3122 3366 
z
" transform="scale(0.015625)"/>
       <path id="DejaVuSans-6f" d="M 1959 3097 
Q 1497 3097 1228 2736 
Q 959 2375 959 1747 
Q 959 1119 1226 758 
Q 1494 397 1959 397 
Q 2419 397 2687 759 
Q 2956 1122 2956 1747 
Q 2956 2369 2687 2733 
Q 2419 3097 1959 3097 
z
M 1959 3584 
Q 2709 3584 3137 3096 
Q 3566 2609 3566 1747 
Q 3566 888 3137 398 
Q 2709 -91 1959 -91 
Q 1206 -91 779 398 
Q 353 888 353 1747 
Q 353 2609 779 3096 
Q 1206 3584 1959 3584 
z
" transform="scale(0.015625)"/>
       <path id="DejaVuSans-6e" d="M 3513 2113 
L 3513 0 
L 2938 0 
L 2938 2094 
Q 2938 2591 2744 2837 
Q 2550 3084 2163 3084 
Q 1697 3084 1428 2787 
Q 1159 2491 1159 1978 
L 1159 0 
L 581 0 
L 581 3500 
L 1159 3500 
L 1159 2956 
Q 1366 3272 1645 3428 
Q 1925 3584 2291 3584 
Q 2894 3584 3203 3211 
Q 3513 2838 3513 2113 
z
" transform="scale(0.015625)"/>
       <path id="DejaVuSans-64" d="M 2906 2969 
L 2906 4863 
L 3481 4863 
L 3481 0 
L 2906 0 
L 2906 525 
Q 2725 213 2448 61 
Q 2172 -91 1784 -91 
Q 1150 -91 751 415 
Q 353 922 353 1747 
Q 353 2572 751 3078 
Q 1150 3584 1784 3584 
Q 2172 3584 2448 3432 
Q 2725 3281 2906 2969 
z
M 947 1747 
Q 947 1113 1208 752 
Q 1469 391 1925 391 
Q 2381 391 2643 752 
Q 2906 1113 2906 1747 
Q 2906 2381 2643 2742 
Q 2381 3103 1925 3103 
Q 1469 3103 1208 2742 
Q 947 2381 947 1747 
z
" transform="scale(0.015625)"/>
       <path id="DejaVuSans-29" d="M 513 4856 
L 1013 4856 
Q 1481 4119 1714 3412 
Q 1947 2706 1947 2009 
Q 1947 1309 1714 600 
Q 1481 -109 1013 -844 
L 513 -844 
Q 928 -128 1133 580 
Q 1338 1288 1338 2009 
Q 1338 2731 1133 3434 
Q 928 4138 513 4856 
z
" transform="scale(0.015625)"/>
      </defs>
      <use xlink:href="#DejaVuSans-54"/>
      <use xlink:href="#DejaVuSans-69" transform="translate(57.958984 0)"/>
      <use xlink:href="#DejaVuSans-6d" transform="translate(85.742188 0)"/>
      <use xlink:href="#DejaVuSans-65" transform="translate(183.154297 0)"/>
      <use xlink:href="#DejaVuSans-20" transform="translate(244.677734 0)"/>
      <use xlink:href="#DejaVuSans-28" transform="translate(276.464844 0)"/>
      <use xlink:href="#DejaVuSans-73" transform="translate(315.478516 0)"/>
      <use xlink:href="#DejaVuSans-65" transform="translate(367.578125 0)"/>
      <use xlink:href="#DejaVuSans-63" transform="translate(429.101562 0)"/>
      <use xlink:href="#DejaVuSans-6f" transform="translate(484.082031 0)"/>
      <use xlink:href="#DejaVuSans-6e" transform="translate(545.263672 0)"/>
      <use xlink:href="#DejaVuSans-64" transform="translate(608.642578 0)"/>
      <use xlink:href="#DejaVuSans-73" transform="translate(672.119141 0)"/>
      <use xlink:href="#DejaVuSans-29" transform="translate(724.21875 0)"/>
     </g>
    </g>
   </g>
   <g id="matplotlib.axis_2">
    <g id="ytick_1">
     <g id="line2d_11">
      <path d="M 56.231563 481.998923 
L 849.381563 481.998923 
" clip-path="url(#p85a298a65b)" style="fill: none; stroke-dasharray: 2.96,1.28; stroke-dashoffset: 0; stroke: #b0b0b0; stroke-opacity: 0.3; stroke-width: 0.8"/>
     </g>
     <g id="line2d_12">
      <defs>
       <path id="me2a9839dff" d="M 0 0 
L -3.5 0 
" style="stroke: #000000; stroke-width: 0.8"/>
      </defs>
      <g>
       <use xlink:href="#me2a9839dff" x="56.231563" y="481.998923" style="stroke: #000000; stroke-width: 0.8"/>
      </g>
     </g>
     <g id="text_7">
      <!-- 1250 -->
      <g transform="translate(23.781563 485.798142) scale(0.1 -0.1)">
       <defs>
        <path id="DejaVuSans-31" d="M 794 531 
L 1825 531 
L 1825 4091 
L 703 3866 
L 703 4441 
L 1819 4666 
L 2450 4666 
L 2450 531 
L 3481 531 
L 3481 0 
L 794 0 
L 794 531 
z
" transform="scale(0.015625)"/>
        <path id="DejaVuSans-35" d="M 691 4666 
L 3169 4666 
L 3169 4134 
L 1269 4134 
L 1269 2991 
Q 1406 3038 1543 3061 
Q 1681 3084 1819 3084 
Q 2600 3084 3056 2656 
Q 3513 2228 3513 1497 
Q 3513 744 3044 326 
Q 2575 -91 1722 -91 
Q 1428 -91 1123 -41 
Q 819 9 494 109 
L 494 744 
Q 775 591 1075 516 
Q 1375 441 1709 441 
Q 2250 441 2565 725 
Q 2881 1009 2881 1497 
Q 2881 1984 2565 2268 
Q 2250 2553 1709 2553 
Q 1456 2553 1204 2497 
Q 953 2441 691 2322 
L 691 4666 
z
" transform="scale(0.015625)"/>
       </defs>
       <use xlink:href="#DejaVuSans-31"/>
       <use xlink:href="#DejaVuSans-32" transform="translate(63.623047 0)"/>
       <use xlink:href="#DejaVuSans-35" transform="translate(127.246094 0)"/>
       <use xlink:href="#DejaVuSans-30" transform="translate(190.869141 0)"/>
      </g>
     </g>
    </g>
    <g id="ytick_2">
     <g id="line2d_13">
      <path d="M 56.231563 417.579132 
L 849.381563 417.579132 
" clip-path="url(#p85a298a65b)" style="fill: none; stroke-dasharray: 2.96,1.28; stroke-dashoffset: 0; stroke: #b0b0b0; stroke-opacity: 0.3; stroke-width: 0.8"/>
     </g>
     <g id="line2d_14">
      <g>
       <use xlink:href="#me2a9839dff" x="56.231563" y="417.579132" style="stroke: #000000; stroke-width: 0.8"/>
      </g>
     </g>
     <g id="text_8">
      <!-- 1500 -->
      <g transform="translate(23.781563 421.378351) scale(0.1 -0.1)">
       <use xlink:href="#DejaVuSans-31"/>
       <use xlink:href="#DejaVuSans-35" transform="translate(63.623047 0)"/>
       <use xlink:href="#DejaVuSans-30" transform="translate(127.246094 0)"/>
       <use xlink:href="#DejaVuSans-30" transform="translate(190.869141 0)"/>
      </g>
     </g>
    </g>
    <g id="ytick_3">
     <g id="line2d_15">
      <path d="M 56.231563 353.159342 
L 849.381563 353.159342 
" clip-path="url(#p85a298a65b)" style="fill: none; stroke-dasharray: 2.96,1.28; stroke-dashoffset: 0; stroke: #b0b0b0; stroke-opacity: 0.3; stroke-width: 0.8"/>
     </g>
     <g id="line2d_16">
      <g>
       <use xlink:href="#me2a9839dff" x="56.231563" y="353.159342" style="stroke: #000000; stroke-width: 0.8"/>
      </g>
     </g>
     <g id="text_9">
      <!-- 1750 -->
      <g transform="translate(23.781563 356.95856) scale(0.1 -0.1)">
       <defs>
        <path id="DejaVuSans-37" d="M 525 4666 
L 3525 4666 
L 3525 4397 
L 1831 0 
L 1172 0 
L 2766 4134 
L 525 4134 
L 525 4666 
z
" transform="scale(0.015625)"/>
       </defs>
       <use xlink:href="#DejaVuSans-31"/>
       <use xlink:href="#DejaVuSans-37" transform="translate(63.623047 0)"/>
       <use xlink:href="#DejaVuSans-35" transform="translate(127.246094 0)"/>
       <use xlink:href="#DejaVuSans-30" transform="translate(190.869141 0)"/>
      </g>
     </g>
    </g>
    <g id="ytick_4">
     <g id="line2d_17">
      <path d="M 56.231563 288.739551 
L 849.381563 288.739551 
" clip-path="url(#p85a298a65b)" style="fill: none; stroke-dasharray: 2.96,1.28; stroke-dashoffset: 0; stroke: #b0b0b0; stroke-opacity: 0.3; stroke-width: 0.8"/>
     </g>
     <g id="line2d_18">
      <g>
       <use xlink:href="#me2a9839dff" x="56.231563" y="288.739551" style="stroke: #000000; stroke-width: 0.8"/>
      </g>
     </g>
     <g id="text_10">
      <!-- 2000 -->
      <g transform="translate(23.781563 292.53877) scale(0.1 -0.1)">
       <use xlink:href="#DejaVuSans-32"/>
       <use xlink:href="#DejaVuSans-30" transform="translate(63.623047 0)"/>
       <use xlink:href="#DejaVuSans-30" transform="translate(127.246094 0)"/>
       <use xlink:href="#DejaVuSans-30" transform="translate(190.869141 0)"/>
      </g>
     </g>
    </g>
    <g id="ytick_5">
     <g id="line2d_19">
      <path d="M 56.231563 224.31976 
L 849.381563 224.31976 
" clip-path="url(#p85a298a65b)" style="fill: none; stroke-dasharray: 2.96,1.28; stroke-dashoffset: 0; stroke: #b0b0b0; stroke-opacity: 0.3; stroke-width: 0.8"/>
     </g>
     <g id="line2d_20">
      <g>
       <use xlink:href="#me2a9839dff" x="56.231563" y="224.31976" style="stroke: #000000; stroke-width: 0.8"/>
      </g>
     </g>
     <g id="text_11">
      <!-- 2250 -->
      <g transform="translate(23.781563 228.118979) scale(0.1 -0.1)">
       <use xlink:href="#DejaVuSans-32"/>
       <use xlink:href="#DejaVuSans-32" transform="translate(63.623047 0)"/>
       <use xlink:href="#DejaVuSans-35" transform="translate(127.246094 0)"/>
       <use xlink:href="#DejaVuSans-30" transform="translate(190.869141 0)"/>
      </g>
     </g>
    </g>
    <g id="ytick_6">
     <g id="line2d_21">
      <path d="M 56.231563 159.899969 
L 849.381563 159.899969 
" clip-path="url(#p85a298a65b)" style="fill: none; stroke-dasharray: 2.96,1.28; stroke-dashoffset: 0; stroke: #b0b0b0; stroke-opacity: 0.3; stroke-width: 0.8"/>
     </g>
     <g id="line2d_22">
      <g>
       <use xlink:href="#me2a9839dff" x="56.231563" y="159.899969" style="stroke: #000000; stroke-width: 0.8"/>
      </g>
     </g>
     <g id="text_12">
      <!-- 2500 -->
      <g transform="translate(23.781563 163.699188) scale(0.1 -0.1)">
       <use xlink:href="#DejaVuSans-32"/>
       <use xlink:href="#DejaVuSans-35" transform="translate(63.623047 0)"/>
       <use xlink:href="#DejaVuSans-30" transform="translate(127.246094 0)"/>
       <use xlink:href="#DejaVuSans-30" transform="translate(190.869141 0)"/>
      </g>
     </g>
    </g>
    <g id="ytick_7">
     <g id="line2d_23">
      <path d="M 56.231563 95.480179 
L 849.381563 95.480179 
" clip-path="url(#p85a298a65b)" style="fill: none; stroke-dasharray: 2.96,1.28; stroke-dashoffset: 0; stroke: #b0b0b0; stroke-opacity: 0.3; stroke-width: 0.8"/>
     </g>
     <g id="line2d_24">
      <g>
       <use xlink:href="#me2a9839dff" x="56.231563" y="95.480179" style="stroke: #000000; stroke-width: 0.8"/>
      </g>
     </g>
     <g id="text_13">
      <!-- 2750 -->
      <g transform="translate(23.781563 99.279397) scale(0.1 -0.1)">
       <use xlink:href="#DejaVuSans-32"/>
       <use xlink:href="#DejaVuSans-37" transform="translate(63.623047 0)"/>
       <use xlink:href="#DejaVuSans-35" transform="translate(127.246094 0)"/>
       <use xlink:href="#DejaVuSans-30" transform="translate(190.869141 0)"/>
      </g>
     </g>
    </g>
    <g id="ytick_8">
     <g id="line2d_25">
      <path d="M 56.231563 31.060388 
L 849.381563 31.060388 
" clip-path="url(#p85a298a65b)" style="fill: none; stroke-dasharray: 2.96,1.28; stroke-dashoffset: 0; stroke: #b0b0b0; stroke-opacity: 0.3; stroke-width: 0.8"/>
     </g>
     <g id="line2d_26">
      <g>
       <use xlink:href="#me2a9839dff" x="56.231563" y="31.060388" style="stroke: #000000; stroke-width: 0.8"/>
      </g>
     </g>
     <g id="text_14">
      <!-- 3000 -->
      <g transform="translate(23.781563 34.859607) scale(0.1 -0.1)">
       <defs>
        <path id="DejaVuSans-33" d="M 2597 2516 
Q 3050 2419 3304 2112 
Q 3559 1806 3559 1356 
Q 3559 666 3084 287 
Q 2609 -91 1734 -91 
Q 1441 -91 1130 -33 
Q 819 25 488 141 
L 488 750 
Q 750 597 1062 519 
Q 1375 441 1716 441 
Q 2309 441 2620 675 
Q 2931 909 2931 1356 
Q 2931 1769 2642 2001 
Q 2353 2234 1838 2234 
L 1294 2234 
L 1294 2753 
L 1863 2753 
Q 2328 2753 2575 2939 
Q 2822 3125 2822 3475 
Q 2822 3834 2567 4026 
Q 2313 4219 1838 4219 
Q 1578 4219 1281 4162 
Q 984 4106 628 3988 
L 628 4550 
Q 988 4650 1302 4700 
Q 1616 4750 1894 4750 
Q 2613 4750 3031 4423 
Q 3450 4097 3450 3541 
Q 3450 3153 3228 2886 
Q 3006 2619 2597 2516 
z
" transform="scale(0.015625)"/>
       </defs>
       <use xlink:href="#DejaVuSans-33"/>
       <use xlink:href="#DejaVuSans-30" transform="translate(63.623047 0)"/>
       <use xlink:href="#DejaVuSans-30" transform="translate(127.246094 0)"/>
       <use xlink:href="#DejaVuSans-30" transform="translate(190.869141 0)"/>
      </g>
     </g>
    </g>
    <g id="text_15">
     <!-- Best Perplexity -->
     <g transform="translate(17.077969 324.698594) rotate(-90) scale(0.13 -0.13)">
      <defs>
       <path id="DejaVuSans-42" d="M 1259 2228 
L 1259 519 
L 2272 519 
Q 2781 519 3026 730 
Q 3272 941 3272 1375 
Q 3272 1813 3026 2020 
Q 2781 2228 2272 2228 
L 1259 2228 
z
M 1259 4147 
L 1259 2741 
L 2194 2741 
Q 2656 2741 2882 2914 
Q 3109 3088 3109 3444 
Q 3109 3797 2882 3972 
Q 2656 4147 2194 4147 
L 1259 4147 
z
M 628 4666 
L 2241 4666 
Q 2963 4666 3353 4366 
Q 3744 4066 3744 3513 
Q 3744 3084 3544 2831 
Q 3344 2578 2956 2516 
Q 3422 2416 3680 2098 
Q 3938 1781 3938 1306 
Q 3938 681 3513 340 
Q 3088 0 2303 0 
L 628 0 
L 628 4666 
z
" transform="scale(0.015625)"/>
       <path id="DejaVuSans-74" d="M 1172 4494 
L 1172 3500 
L 2356 3500 
L 2356 3053 
L 1172 3053 
L 1172 1153 
Q 1172 725 1289 603 
Q 1406 481 1766 481 
L 2356 481 
L 2356 0 
L 1766 0 
Q 1100 0 847 248 
Q 594 497 594 1153 
L 594 3053 
L 172 3053 
L 172 3500 
L 594 3500 
L 594 4494 
L 1172 4494 
z
" transform="scale(0.015625)"/>
       <path id="DejaVuSans-50" d="M 1259 4147 
L 1259 2394 
L 2053 2394 
Q 2494 2394 2734 2622 
Q 2975 2850 2975 3272 
Q 2975 3691 2734 3919 
Q 2494 4147 2053 4147 
L 1259 4147 
z
M 628 4666 
L 2053 4666 
Q 2838 4666 3239 4311 
Q 3641 3956 3641 3272 
Q 3641 2581 3239 2228 
Q 2838 1875 2053 1875 
L 1259 1875 
L 1259 0 
L 628 0 
L 628 4666 
z
" transform="scale(0.015625)"/>
       <path id="DejaVuSans-72" d="M 2631 2963 
Q 2534 3019 2420 3045 
Q 2306 3072 2169 3072 
Q 1681 3072 1420 2755 
Q 1159 2438 1159 1844 
L 1159 0 
L 581 0 
L 581 3500 
L 1159 3500 
L 1159 2956 
Q 1341 3275 1631 3429 
Q 1922 3584 2338 3584 
Q 2397 3584 2469 3576 
Q 2541 3569 2628 3553 
L 2631 2963 
z
" transform="scale(0.015625)"/>
       <path id="DejaVuSans-70" d="M 1159 525 
L 1159 -1331 
L 581 -1331 
L 581 3500 
L 1159 3500 
L 1159 2969 
Q 1341 3281 1617 3432 
Q 1894 3584 2278 3584 
Q 2916 3584 3314 3078 
Q 3713 2572 3713 1747 
Q 3713 922 3314 415 
Q 2916 -91 2278 -91 
Q 1894 -91 1617 61 
Q 1341 213 1159 525 
z
M 3116 1747 
Q 3116 2381 2855 2742 
Q 2594 3103 2138 3103 
Q 1681 3103 1420 2742 
Q 1159 2381 1159 1747 
Q 1159 1113 1420 752 
Q 1681 391 2138 391 
Q 2594 391 2855 752 
Q 3116 1113 3116 1747 
z
" transform="scale(0.015625)"/>
       <path id="DejaVuSans-6c" d="M 603 4863 
L 1178 4863 
L 1178 0 
L 603 0 
L 603 4863 
z
" transform="scale(0.015625)"/>
       <path id="DejaVuSans-78" d="M 3513 3500 
L 2247 1797 
L 3578 0 
L 2900 0 
L 1881 1375 
L 863 0 
L 184 0 
L 1544 1831 
L 300 3500 
L 978 3500 
L 1906 2253 
L 2834 3500 
L 3513 3500 
z
" transform="scale(0.015625)"/>
       <path id="DejaVuSans-79" d="M 2059 -325 
Q 1816 -950 1584 -1140 
Q 1353 -1331 966 -1331 
L 506 -1331 
L 506 -850 
L 844 -850 
Q 1081 -850 1212 -737 
Q 1344 -625 1503 -206 
L 1606 56 
L 191 3500 
L 800 3500 
L 1894 763 
L 2988 3500 
L 3597 3500 
L 2059 -325 
z
" transform="scale(0.015625)"/>
      </defs>
      <use xlink:href="#DejaVuSans-42"/>
      <use xlink:href="#DejaVuSans-65" transform="translate(68.603516 0)"/>
      <use xlink:href="#DejaVuSans-73" transform="translate(130.126953 0)"/>
      <use xlink:href="#DejaVuSans-74" transform="translate(182.226562 0)"/>
      <use xlink:href="#DejaVuSans-20" transform="translate(221.435547 0)"/>
      <use xlink:href="#DejaVuSans-50" transform="translate(253.222656 0)"/>
      <use xlink:href="#DejaVuSans-65" transform="translate(309.900391 0)"/>
      <use xlink:href="#DejaVuSans-72" transform="translate(371.423828 0)"/>
      <use xlink:href="#DejaVuSans-70" transform="translate(412.537109 0)"/>
      <use xlink:href="#DejaVuSans-6c" transform="translate(476.013672 0)"/>
      <use xlink:href="#DejaVuSans-65" transform="translate(503.796875 0)"/>
      <use xlink:href="#DejaVuSans-78" transform="translate(563.570312 0)"/>
      <use xlink:href="#DejaVuSans-69" transform="translate(622.75 0)"/>
      <use xlink:href="#DejaVuSans-74" transform="translate(650.533203 0)"/>
      <use xlink:href="#DejaVuSans-79" transform="translate(689.742188 0)"/>
     </g>
    </g>
   </g>
   <g id="line2d_27">
    <path d="M 92.283835 84.681958 
L 100.766723 86.755915 
L 109.249611 88.829871 
L 117.732498 90.903827 
L 126.215386 92.977784 
L 134.698274 95.05174 
L 143.181161 97.125696 
L 151.664049 99.199652 
L 160.146937 101.271398 
L 168.629825 103.103809 
L 177.112712 104.93622 
L 185.5956 109.283805 
L 194.078488 111.483864 
L 202.561375 113.623037 
L 211.044263 116.466343 
L 219.527151 119.193935 
L 228.010038 121.884619 
L 236.492926 125.909864 
L 244.975814 130.48581 
L 253.458702 135.850221 
L 261.941589 141.613684 
L 270.424477 150.92602 
L 278.907365 155.0984 
L 287.390252 158.290973 
L 295.87314 164.936693 
L 304.356028 169.830675 
L 312.838915 181.888879 
L 321.321803 194.578828 
L 329.804691 203.962132 
L 338.287579 207.979666 
L 346.770466 210.98746 
L 355.253354 213.890899 
L 363.736242 217.675392 
L 372.219129 225.266589 
L 380.702017 232.190204 
L 389.184905 239.896896 
L 397.667792 244.149661 
L 406.15068 247.706916 
L 414.633568 251.484238 
L 423.116456 256.785209 
L 431.599343 264.293403 
L 440.082231 269.546508 
L 448.565119 276.803527 
L 457.048006 281.162409 
L 465.530894 284.689624 
L 474.013782 289.631261 
L 482.496669 293.404478 
L 490.979557 297.81863 
L 499.462445 303.066673 
L 507.945333 307.697902 
L 516.42822 310.142993 
L 524.911108 313.917926 
L 533.393996 315.94008 
L 541.876883 317.813349 
L 550.359771 319.257902 
L 558.842659 320.808086 
L 567.325546 324.238217 
L 575.808434 325.809617 
L 584.291322 327.662704 
L 592.77421 327.93278 
L 601.257097 328.200795 
L 609.739985 329.956923 
L 618.222873 330.718738 
L 626.70576 331.50538 
L 635.188648 333.37655 
L 643.671536 333.418006 
L 652.154423 333.418006 
L 660.637311 333.493544 
L 669.120199 334.209007 
L 677.603087 334.306319 
L 686.085974 334.403631 
L 694.568862 334.421079 
" clip-path="url(#p85a298a65b)" style="fill: none; stroke: #1f77b4; stroke-width: 2.5; stroke-linecap: square"/>
   </g>
   <g id="line2d_28">
    <path d="M 92.283835 84.681958 
L 100.766723 85.818013 
L 109.249611 86.954068 
L 117.732498 88.090123 
L 126.215386 89.226177 
L 134.698274 90.362232 
L 143.181161 91.498287 
L 151.664049 92.634341 
L 160.146937 93.770396 
L 168.629825 94.906451 
L 177.112712 96.042506 
L 185.5956 97.17856 
L 194.078488 98.314615 
L 202.561375 99.45067 
L 211.044263 100.586724 
L 219.527151 101.722779 
L 228.010038 102.858834 
L 236.492926 103.994888 
L 244.975814 105.130943 
L 253.458702 106.359699 
L 261.941589 108.230266 
L 270.424477 110.100833 
L 278.907365 111.9714 
L 287.390252 115.370541 
L 295.87314 118.81056 
L 304.356028 122.250578 
L 312.838915 125.690597 
L 321.321803 129.129097 
L 329.804691 132.431362 
L 338.287579 136.332574 
L 346.770466 139.96342 
L 355.253354 142.862765 
L 363.736242 144.402796 
L 372.219129 145.942826 
L 380.702017 147.362798 
L 389.184905 149.786342 
L 397.667792 153.244422 
L 406.15068 156.697464 
L 414.633568 160.04284 
L 423.116456 166.381398 
L 431.599343 175.215642 
L 440.082231 181.870537 
L 448.565119 191.565194 
L 457.048006 200.161877 
L 465.530894 206.749814 
L 474.013782 212.449619 
L 482.496669 218.38631 
L 490.979557 230.557443 
L 499.462445 241.866633 
L 507.945333 249.481232 
L 516.42822 255.146422 
L 524.911108 262.582203 
L 533.393996 273.044878 
L 541.876883 283.211389 
L 550.359771 291.521343 
L 558.842659 301.892442 
L 567.325546 313.930494 
L 575.808434 324.465584 
L 584.291322 332.927575 
L 592.77421 338.825719 
L 601.257097 343.155525 
L 609.739985 349.784148 
L 618.222873 359.750578 
L 626.70576 366.88487 
L 635.188648 372.774563 
L 643.671536 380.529784 
L 652.154423 384.816969 
L 660.637311 389.816353 
L 669.120199 395.266056 
L 677.603087 405.441874 
L 686.085974 412.479768 
L 694.568862 414.574181 
L 703.05175 420.199592 
L 711.534637 429.248699 
L 720.017525 432.35862 
L 728.500413 437.624477 
L 736.9833 441.748716 
L 745.466188 442.083516 
L 753.949076 442.08476 
L 762.431964 442.08476 
L 770.914851 447.730592 
L 779.397739 448.807564 
L 787.880627 448.807564 
L 796.363514 448.807564 
L 804.846402 448.807564 
L 813.32929 448.807564 
" clip-path="url(#p85a298a65b)" style="fill: none; stroke: #ff7f0e; stroke-width: 2.5; stroke-linecap: square"/>
   </g>
   <g id="line2d_29">
    <path d="M 92.284135 84.681958 
L 100.767023 229.274228 
L 109.24991 229.274228 
L 117.732798 243.009304 
L 126.215686 243.009304 
L 134.698574 277.703681 
L 143.181461 283.842225 
L 151.664349 306.877673 
L 160.147237 344.185815 
L 168.630124 344.185815 
L 177.113012 344.185815 
L 185.5959 344.185815 
L 194.078788 379.941905 
L 202.561675 417.634668 
L 211.044563 426.819985 
L 219.527451 426.819985 
L 228.010338 426.819985 
L 236.493226 426.819985 
L 244.976114 426.819985 
L 253.459001 426.819985 
L 261.941889 426.819985 
L 270.424777 431.880053 
L 278.907665 431.880053 
L 287.390552 431.880053 
L 295.87344 431.880053 
L 304.356328 431.880053 
L 312.839215 431.880053 
L 321.322103 431.880053 
L 329.804991 431.880053 
L 338.287878 431.880053 
L 346.770766 431.880053 
L 355.253654 431.880053 
L 363.736542 431.880053 
L 372.219429 431.880053 
L 380.702317 431.880053 
L 389.185205 431.880053 
L 397.668092 431.880053 
L 406.15098 431.880053 
L 414.633868 431.880053 
L 423.116755 440.025622 
L 431.599643 440.025622 
L 440.082531 440.025622 
L 448.565419 440.025622 
L 457.048306 440.025622 
L 465.531194 440.025622 
L 474.014082 440.025622 
L 482.496969 440.025622 
L 490.979857 440.025622 
L 499.462745 454.431434 
L 507.945632 454.431434 
L 516.42852 454.431434 
L 524.911408 454.431434 
L 533.394296 454.431434 
L 541.877183 454.431434 
L 550.360071 454.431434 
L 558.842959 454.431434 
L 567.325846 454.431434 
L 575.808734 454.431434 
L 584.291622 454.431434 
L 592.774509 454.431434 
L 601.257397 454.431434 
L 609.740285 454.431434 
L 618.223173 454.431434 
L 626.70606 454.431434 
L 635.188948 454.431434 
L 643.671836 454.431434 
L 652.154723 454.431434 
" clip-path="url(#p85a298a65b)" style="fill: none; stroke: #2ca02c; stroke-width: 2.5; stroke-linecap: square"/>
   </g>
   <g id="line2d_30">
    <path d="M 92.283835 84.681958 
L 100.766723 101.064128 
L 109.249611 117.446297 
L 117.732498 133.828466 
L 126.215386 150.210635 
L 134.698274 166.592805 
L 143.181161 182.974974 
L 151.664049 199.357143 
L 160.146937 215.739312 
L 168.629825 232.121481 
L 177.112712 248.503651 
L 185.5956 264.88582 
L 194.078488 281.267989 
L 202.561375 296.209268 
L 211.044263 309.581156 
L 219.527151 322.953045 
L 228.010038 336.324933 
L 236.492926 349.696821 
L 244.975814 363.068709 
L 253.458702 375.530754 
L 261.941589 386.94502 
L 270.424477 398.359286 
L 278.907365 407.816994 
L 287.390252 414.339111 
L 295.87314 418.948727 
L 304.356028 423.558343 
L 312.838915 428.167959 
L 321.321803 432.777575 
L 329.804691 437.387191 
L 338.287579 440.926127 
L 346.770466 444.302465 
L 355.253354 447.678803 
L 363.736242 450.269708 
L 372.219129 452.390984 
L 380.702017 454.057891 
L 389.184905 454.626368 
L 397.667792 454.930452 
L 406.15068 455.234535 
L 414.633568 455.427318 
L 423.116456 455.427318 
L 431.599343 455.480528 
L 440.082231 455.535888 
L 448.565119 455.591249 
L 457.048006 455.646609 
L 465.530894 455.699317 
L 474.013782 455.699317 
L 482.496669 455.699317 
L 490.979557 455.699317 
L 499.462445 455.699317 
L 507.945333 455.699317 
L 516.42822 455.699317 
L 524.911108 455.699317 
L 533.393996 455.782294 
L 541.876883 455.919096 
L 550.359771 455.919096 
L 558.842659 455.919096 
L 567.325546 455.919096 
L 575.808434 455.919096 
L 584.291322 455.919096 
L 592.77421 455.919096 
L 601.257097 455.919096 
L 609.739985 455.919096 
L 618.222873 455.919096 
L 626.70576 455.919096 
L 635.188648 455.919096 
L 643.671536 455.919096 
L 652.154423 455.919096 
L 660.637311 455.919096 
L 669.120199 455.919096 
L 677.603087 455.919096 
L 686.085974 455.919096 
L 694.568862 455.919096 
L 703.05175 455.919096 
L 711.534637 455.919096 
" clip-path="url(#p85a298a65b)" style="fill: none; stroke: #d62728; stroke-width: 2.5; stroke-linecap: square"/>
   </g>
   <g id="patch_3">
    <path d="M 56.231563 527.437656 
L 56.231563 24.597656 
" style="fill: none; stroke: #000000; stroke-width: 0.8; stroke-linejoin: miter; stroke-linecap: square"/>
   </g>
   <g id="patch_4">
    <path d="M 849.381563 527.437656 
L 849.381563 24.597656 
" style="fill: none; stroke: #000000; stroke-width: 0.8; stroke-linejoin: miter; stroke-linecap: square"/>
   </g>
   <g id="patch_5">
    <path d="M 56.231563 527.437656 
L 849.381562 527.437656 
" style="fill: none; stroke: #000000; stroke-width: 0.8; stroke-linejoin: miter; stroke-linecap: square"/>
   </g>
   <g id="patch_6">
    <path d="M 56.231563 24.597656 
L 849.381562 24.597656 
" style="fill: none; stroke: #000000; stroke-width: 0.8; stroke-linejoin: miter; stroke-linecap: square"/>
   </g>
   <g id="text_16">
    <!-- yelp - Best Perplexity vs Time -->
    <g transform="translate(326.737422 18.597656) scale(0.15 -0.15)">
     <defs>
      <path id="DejaVuSans-Bold-79" d="M 78 3500 
L 1197 3500 
L 2138 1125 
L 2938 3500 
L 4056 3500 
L 2584 -331 
Q 2363 -916 2067 -1148 
Q 1772 -1381 1288 -1381 
L 641 -1381 
L 641 -647 
L 991 -647 
Q 1275 -647 1404 -556 
Q 1534 -466 1606 -231 
L 1638 -134 
L 78 3500 
z
" transform="scale(0.015625)"/>
      <path id="DejaVuSans-Bold-65" d="M 4031 1759 
L 4031 1441 
L 1416 1441 
Q 1456 1047 1700 850 
Q 1944 653 2381 653 
Q 2734 653 3104 758 
Q 3475 863 3866 1075 
L 3866 213 
Q 3469 63 3072 -14 
Q 2675 -91 2278 -91 
Q 1328 -91 801 392 
Q 275 875 275 1747 
Q 275 2603 792 3093 
Q 1309 3584 2216 3584 
Q 3041 3584 3536 3087 
Q 4031 2591 4031 1759 
z
M 2881 2131 
Q 2881 2450 2695 2645 
Q 2509 2841 2209 2841 
Q 1884 2841 1681 2658 
Q 1478 2475 1428 2131 
L 2881 2131 
z
" transform="scale(0.015625)"/>
      <path id="DejaVuSans-Bold-6c" d="M 538 4863 
L 1656 4863 
L 1656 0 
L 538 0 
L 538 4863 
z
" transform="scale(0.015625)"/>
      <path id="DejaVuSans-Bold-70" d="M 1656 506 
L 1656 -1331 
L 538 -1331 
L 538 3500 
L 1656 3500 
L 1656 2988 
Q 1888 3294 2169 3439 
Q 2450 3584 2816 3584 
Q 3463 3584 3878 3070 
Q 4294 2556 4294 1747 
Q 4294 938 3878 423 
Q 3463 -91 2816 -91 
Q 2450 -91 2169 54 
Q 1888 200 1656 506 
z
M 2400 2772 
Q 2041 2772 1848 2508 
Q 1656 2244 1656 1747 
Q 1656 1250 1848 986 
Q 2041 722 2400 722 
Q 2759 722 2948 984 
Q 3138 1247 3138 1747 
Q 3138 2247 2948 2509 
Q 2759 2772 2400 2772 
z
" transform="scale(0.015625)"/>
      <path id="DejaVuSans-Bold-20" transform="scale(0.015625)"/>
      <path id="DejaVuSans-Bold-2d" d="M 347 2297 
L 2309 2297 
L 2309 1388 
L 347 1388 
L 347 2297 
z
" transform="scale(0.015625)"/>
      <path id="DejaVuSans-Bold-42" d="M 2456 2859 
Q 2741 2859 2887 2984 
Q 3034 3109 3034 3353 
Q 3034 3594 2887 3720 
Q 2741 3847 2456 3847 
L 1791 3847 
L 1791 2859 
L 2456 2859 
z
M 2497 819 
Q 2859 819 3042 972 
Q 3225 1125 3225 1434 
Q 3225 1738 3044 1889 
Q 2863 2041 2497 2041 
L 1791 2041 
L 1791 819 
L 2497 819 
z
M 3616 2497 
Q 4003 2384 4215 2081 
Q 4428 1778 4428 1338 
Q 4428 663 3972 331 
Q 3516 0 2584 0 
L 588 0 
L 588 4666 
L 2394 4666 
Q 3366 4666 3802 4372 
Q 4238 4078 4238 3431 
Q 4238 3091 4078 2852 
Q 3919 2613 3616 2497 
z
" transform="scale(0.015625)"/>
      <path id="DejaVuSans-Bold-73" d="M 3272 3391 
L 3272 2541 
Q 2913 2691 2578 2766 
Q 2244 2841 1947 2841 
Q 1628 2841 1473 2761 
Q 1319 2681 1319 2516 
Q 1319 2381 1436 2309 
Q 1553 2238 1856 2203 
L 2053 2175 
Q 2913 2066 3209 1816 
Q 3506 1566 3506 1031 
Q 3506 472 3093 190 
Q 2681 -91 1863 -91 
Q 1516 -91 1145 -36 
Q 775 19 384 128 
L 384 978 
Q 719 816 1070 734 
Q 1422 653 1784 653 
Q 2113 653 2278 743 
Q 2444 834 2444 1013 
Q 2444 1163 2330 1236 
Q 2216 1309 1875 1350 
L 1678 1375 
Q 931 1469 631 1722 
Q 331 1975 331 2491 
Q 331 3047 712 3315 
Q 1094 3584 1881 3584 
Q 2191 3584 2531 3537 
Q 2872 3491 3272 3391 
z
" transform="scale(0.015625)"/>
      <path id="DejaVuSans-Bold-74" d="M 1759 4494 
L 1759 3500 
L 2913 3500 
L 2913 2700 
L 1759 2700 
L 1759 1216 
Q 1759 972 1856 886 
Q 1953 800 2241 800 
L 2816 800 
L 2816 0 
L 1856 0 
Q 1194 0 917 276 
Q 641 553 641 1216 
L 641 2700 
L 84 2700 
L 84 3500 
L 641 3500 
L 641 4494 
L 1759 4494 
z
" transform="scale(0.015625)"/>
      <path id="DejaVuSans-Bold-50" d="M 588 4666 
L 2584 4666 
Q 3475 4666 3951 4270 
Q 4428 3875 4428 3144 
Q 4428 2409 3951 2014 
Q 3475 1619 2584 1619 
L 1791 1619 
L 1791 0 
L 588 0 
L 588 4666 
z
M 1791 3794 
L 1791 2491 
L 2456 2491 
Q 2806 2491 2997 2661 
Q 3188 2831 3188 3144 
Q 3188 3456 2997 3625 
Q 2806 3794 2456 3794 
L 1791 3794 
z
" transform="scale(0.015625)"/>
      <path id="DejaVuSans-Bold-72" d="M 3138 2547 
Q 2991 2616 2845 2648 
Q 2700 2681 2553 2681 
Q 2122 2681 1889 2404 
Q 1656 2128 1656 1613 
L 1656 0 
L 538 0 
L 538 3500 
L 1656 3500 
L 1656 2925 
Q 1872 3269 2151 3426 
Q 2431 3584 2822 3584 
Q 2878 3584 2943 3579 
Q 3009 3575 3134 3559 
L 3138 2547 
z
" transform="scale(0.015625)"/>
      <path id="DejaVuSans-Bold-78" d="M 1422 1791 
L 159 3500 
L 1344 3500 
L 2059 2463 
L 2784 3500 
L 3969 3500 
L 2706 1797 
L 4031 0 
L 2847 0 
L 2059 1106 
L 1281 0 
L 97 0 
L 1422 1791 
z
" transform="scale(0.015625)"/>
      <path id="DejaVuSans-Bold-69" d="M 538 3500 
L 1656 3500 
L 1656 0 
L 538 0 
L 538 3500 
z
M 538 4863 
L 1656 4863 
L 1656 3950 
L 538 3950 
L 538 4863 
z
" transform="scale(0.015625)"/>
      <path id="DejaVuSans-Bold-76" d="M 97 3500 
L 1216 3500 
L 2088 1081 
L 2956 3500 
L 4078 3500 
L 2700 0 
L 1472 0 
L 97 3500 
z
" transform="scale(0.015625)"/>
      <path id="DejaVuSans-Bold-54" d="M 31 4666 
L 4331 4666 
L 4331 3756 
L 2784 3756 
L 2784 0 
L 1581 0 
L 1581 3756 
L 31 3756 
L 31 4666 
z
" transform="scale(0.015625)"/>
      <path id="DejaVuSans-Bold-6d" d="M 3781 2919 
Q 3994 3244 4286 3414 
Q 4578 3584 4928 3584 
Q 5531 3584 5847 3212 
Q 6163 2841 6163 2131 
L 6163 0 
L 5038 0 
L 5038 1825 
Q 5041 1866 5042 1909 
Q 5044 1953 5044 2034 
Q 5044 2406 4934 2573 
Q 4825 2741 4581 2741 
Q 4263 2741 4089 2478 
Q 3916 2216 3909 1719 
L 3909 0 
L 2784 0 
L 2784 1825 
Q 2784 2406 2684 2573 
Q 2584 2741 2328 2741 
Q 2006 2741 1831 2477 
Q 1656 2213 1656 1722 
L 1656 0 
L 531 0 
L 531 3500 
L 1656 3500 
L 1656 2988 
Q 1863 3284 2130 3434 
Q 2397 3584 2719 3584 
Q 3081 3584 3359 3409 
Q 3638 3234 3781 2919 
z
" transform="scale(0.015625)"/>
     </defs>
     <use xlink:href="#DejaVuSans-Bold-79"/>
     <use xlink:href="#DejaVuSans-Bold-65" transform="translate(65.185547 0)"/>
     <use xlink:href="#DejaVuSans-Bold-6c" transform="translate(133.007812 0)"/>
     <use xlink:href="#DejaVuSans-Bold-70" transform="translate(167.285156 0)"/>
     <use xlink:href="#DejaVuSans-Bold-20" transform="translate(238.867188 0)"/>
     <use xlink:href="#DejaVuSans-Bold-2d" transform="translate(273.681641 0)"/>
     <use xlink:href="#DejaVuSans-Bold-20" transform="translate(315.185547 0)"/>
     <use xlink:href="#DejaVuSans-Bold-42" transform="translate(350 0)"/>
     <use xlink:href="#DejaVuSans-Bold-65" transform="translate(426.220703 0)"/>
     <use xlink:href="#DejaVuSans-Bold-73" transform="translate(494.042969 0)"/>
     <use xlink:href="#DejaVuSans-Bold-74" transform="translate(553.564453 0)"/>
     <use xlink:href="#DejaVuSans-Bold-20" transform="translate(601.367188 0)"/>
     <use xlink:href="#DejaVuSans-Bold-50" transform="translate(636.181641 0)"/>
     <use xlink:href="#DejaVuSans-Bold-65" transform="translate(709.472656 0)"/>
     <use xlink:href="#DejaVuSans-Bold-72" transform="translate(777.294922 0)"/>
     <use xlink:href="#DejaVuSans-Bold-70" transform="translate(826.611328 0)"/>
     <use xlink:href="#DejaVuSans-Bold-6c" transform="translate(898.193359 0)"/>
     <use xlink:href="#DejaVuSans-Bold-65" transform="translate(932.470703 0)"/>
     <use xlink:href="#DejaVuSans-Bold-78" transform="translate(1000.292969 0)"/>
     <use xlink:href="#DejaVuSans-Bold-69" transform="translate(1064.794922 0)"/>
     <use xlink:href="#DejaVuSans-Bold-74" transform="translate(1099.072266 0)"/>
     <use xlink:href="#DejaVuSans-Bold-79" transform="translate(1146.875 0)"/>
     <use xlink:href="#DejaVuSans-Bold-20" transform="translate(1212.060547 0)"/>
     <use xlink:href="#DejaVuSans-Bold-76" transform="translate(1246.875 0)"/>
     <use xlink:href="#DejaVuSans-Bold-73" transform="translate(1312.060547 0)"/>
     <use xlink:href="#DejaVuSans-Bold-20" transform="translate(1371.582031 0)"/>
     <use xlink:href="#DejaVuSans-Bold-54" transform="translate(1406.396484 0)"/>
     <use xlink:href="#DejaVuSans-Bold-69" transform="translate(1474.609375 0)"/>
     <use xlink:href="#DejaVuSans-Bold-6d" transform="translate(1508.886719 0)"/>
     <use xlink:href="#DejaVuSans-Bold-65" transform="translate(1613.085938 0)"/>
    </g>
   </g>
   <g id="legend_1">
    <g id="patch_7">
     <path d="M 760.827188 104.652656 
L 840.981562 104.652656 
Q 843.381562 104.652656 843.381562 102.252656 
L 843.381562 32.997656 
Q 843.381562 30.597656 840.981562 30.597656 
L 760.827188 30.597656 
Q 758.427188 30.597656 758.427188 32.997656 
L 758.427188 102.252656 
Q 758.427188 104.652656 760.827188 104.652656 
z
" style="fill: #ffffff; opacity: 0.8; stroke: #cccccc; stroke-linejoin: miter"/>
    </g>
    <g id="line2d_31">
     <path d="M 763.227188 40.315781 
L 775.227188 40.315781 
L 787.227188 40.315781 
" style="fill: none; stroke: #1f77b4; stroke-width: 2.5; stroke-linecap: square"/>
    </g>
    <g id="text_17">
     <!-- ES -->
     <g transform="translate(796.827188 44.515781) scale(0.12 -0.12)">
      <defs>
       <path id="DejaVuSans-45" d="M 628 4666 
L 3578 4666 
L 3578 4134 
L 1259 4134 
L 1259 2753 
L 3481 2753 
L 3481 2222 
L 1259 2222 
L 1259 531 
L 3634 531 
L 3634 0 
L 628 0 
L 628 4666 
z
" transform="scale(0.015625)"/>
       <path id="DejaVuSans-53" d="M 3425 4513 
L 3425 3897 
Q 3066 4069 2747 4153 
Q 2428 4238 2131 4238 
Q 1616 4238 1336 4038 
Q 1056 3838 1056 3469 
Q 1056 3159 1242 3001 
Q 1428 2844 1947 2747 
L 2328 2669 
Q 3034 2534 3370 2195 
Q 3706 1856 3706 1288 
Q 3706 609 3251 259 
Q 2797 -91 1919 -91 
Q 1588 -91 1214 -16 
Q 841 59 441 206 
L 441 856 
Q 825 641 1194 531 
Q 1563 422 1919 422 
Q 2459 422 2753 634 
Q 3047 847 3047 1241 
Q 3047 1584 2836 1778 
Q 2625 1972 2144 2069 
L 1759 2144 
Q 1053 2284 737 2584 
Q 422 2884 422 3419 
Q 422 4038 858 4394 
Q 1294 4750 2059 4750 
Q 2388 4750 2728 4690 
Q 3069 4631 3425 4513 
z
" transform="scale(0.015625)"/>
      </defs>
      <use xlink:href="#DejaVuSans-45"/>
      <use xlink:href="#DejaVuSans-53" transform="translate(63.183594 0)"/>
     </g>
    </g>
    <g id="line2d_32">
     <path d="M 763.227188 57.929531 
L 775.227188 57.929531 
L 787.227188 57.929531 
" style="fill: none; stroke: #ff7f0e; stroke-width: 2.5; stroke-linecap: square"/>
    </g>
    <g id="text_18">
     <!-- GA -->
     <g transform="translate(796.827188 62.129531) scale(0.12 -0.12)">
      <defs>
       <path id="DejaVuSans-47" d="M 3809 666 
L 3809 1919 
L 2778 1919 
L 2778 2438 
L 4434 2438 
L 4434 434 
Q 4069 175 3628 42 
Q 3188 -91 2688 -91 
Q 1594 -91 976 548 
Q 359 1188 359 2328 
Q 359 3472 976 4111 
Q 1594 4750 2688 4750 
Q 3144 4750 3555 4637 
Q 3966 4525 4313 4306 
L 4313 3634 
Q 3963 3931 3569 4081 
Q 3175 4231 2741 4231 
Q 1884 4231 1454 3753 
Q 1025 3275 1025 2328 
Q 1025 1384 1454 906 
Q 1884 428 2741 428 
Q 3075 428 3337 486 
Q 3600 544 3809 666 
z
" transform="scale(0.015625)"/>
       <path id="DejaVuSans-41" d="M 2188 4044 
L 1331 1722 
L 3047 1722 
L 2188 4044 
z
M 1831 4666 
L 2547 4666 
L 4325 0 
L 3669 0 
L 3244 1197 
L 1141 1197 
L 716 0 
L 50 0 
L 1831 4666 
z
" transform="scale(0.015625)"/>
      </defs>
      <use xlink:href="#DejaVuSans-47"/>
      <use xlink:href="#DejaVuSans-41" transform="translate(77.490234 0)"/>
     </g>
    </g>
    <g id="line2d_33">
     <path d="M 763.227188 75.543281 
L 775.227188 75.543281 
L 787.227188 75.543281 
" style="fill: none; stroke: #2ca02c; stroke-width: 2.5; stroke-linecap: square"/>
    </g>
    <g id="text_19">
     <!-- PABBO -->
     <g transform="translate(796.827188 79.743281) scale(0.12 -0.12)">
      <defs>
       <path id="DejaVuSans-4f" d="M 2522 4238 
Q 1834 4238 1429 3725 
Q 1025 3213 1025 2328 
Q 1025 1447 1429 934 
Q 1834 422 2522 422 
Q 3209 422 3611 934 
Q 4013 1447 4013 2328 
Q 4013 3213 3611 3725 
Q 3209 4238 2522 4238 
z
M 2522 4750 
Q 3503 4750 4090 4092 
Q 4678 3434 4678 2328 
Q 4678 1225 4090 567 
Q 3503 -91 2522 -91 
Q 1538 -91 948 565 
Q 359 1222 359 2328 
Q 359 3434 948 4092 
Q 1538 4750 2522 4750 
z
" transform="scale(0.015625)"/>
      </defs>
      <use xlink:href="#DejaVuSans-50"/>
      <use xlink:href="#DejaVuSans-41" transform="translate(53.927734 0)"/>
      <use xlink:href="#DejaVuSans-42" transform="translate(122.335938 0)"/>
      <use xlink:href="#DejaVuSans-42" transform="translate(190.939453 0)"/>
      <use xlink:href="#DejaVuSans-4f" transform="translate(257.792969 0)"/>
     </g>
    </g>
    <g id="line2d_34">
     <path d="M 763.227188 93.157031 
L 775.227188 93.157031 
L 787.227188 93.157031 
" style="fill: none; stroke: #d62728; stroke-width: 2.5; stroke-linecap: square"/>
    </g>
    <g id="text_20">
     <!-- SABBO -->
     <g transform="translate(796.827188 97.357031) scale(0.12 -0.12)">
      <use xlink:href="#DejaVuSans-53"/>
      <use xlink:href="#DejaVuSans-41" transform="translate(65.351562 0)"/>
      <use xlink:href="#DejaVuSans-42" transform="translate(133.759766 0)"/>
      <use xlink:href="#DejaVuSans-42" transform="translate(202.363281 0)"/>
      <use xlink:href="#DejaVuSans-4f" transform="translate(269.216797 0)"/>
     </g>
    </g>
   </g>
  </g>
 </g>
 <defs>
  <clipPath id="p85a298a65b">
   <rect x="56.231563" y="24.597656" width="793.15" height="502.84"/>
  </clipPath>
 </defs>
</svg>
